G04 #@! TF.GenerationSoftware,KiCad,Pcbnew,(5.0.0)*
G04 #@! TF.CreationDate,2019-04-25T23:48:33-07:00*
G04 #@! TF.ProjectId,Arduino_Mega_6x,41726475696E6F5F4D6567615F36782E,rev?*
G04 #@! TF.SameCoordinates,Original*
G04 #@! TF.FileFunction,Soldermask,Bot*
G04 #@! TF.FilePolarity,Negative*
%FSLAX46Y46*%
G04 Gerber Fmt 4.6, Leading zero omitted, Abs format (unit mm)*
G04 Created by KiCad (PCBNEW (5.0.0)) date 04/25/19 23:48:33*
%MOMM*%
%LPD*%
G01*
G04 APERTURE LIST*
%ADD10O,1.524000X2.540000*%
%ADD11C,3.937000*%
%ADD12C,1.524000*%
%ADD13C,15.875000*%
%ADD14C,1.500000*%
G04 APERTURE END LIST*
D10*
G04 #@! TO.C,SHIELD1*
X265430000Y-36830000D03*
X267970000Y-36830000D03*
X270510000Y-36830000D03*
X273050000Y-36830000D03*
X275590000Y-36830000D03*
X278130000Y-36830000D03*
X280670000Y-36830000D03*
X283210000Y-36830000D03*
X288290000Y-85090000D03*
X285750000Y-85090000D03*
X283210000Y-85090000D03*
X280670000Y-85090000D03*
X270510000Y-85090000D03*
X265430000Y-85090000D03*
X262890000Y-85090000D03*
X273050000Y-85090000D03*
X275590000Y-85090000D03*
X278130000Y-85090000D03*
X260350000Y-85090000D03*
X257810000Y-85090000D03*
X255270000Y-85090000D03*
X247650000Y-85090000D03*
X250190000Y-85090000D03*
X252730000Y-85090000D03*
X242570000Y-85090000D03*
X240030000Y-85090000D03*
X237490000Y-85090000D03*
X232410000Y-85090000D03*
X229870000Y-85090000D03*
X260350000Y-36830000D03*
X257810000Y-36830000D03*
X255270000Y-36830000D03*
X252730000Y-36830000D03*
X250190000Y-36830000D03*
X247650000Y-36830000D03*
X245110000Y-36830000D03*
X242570000Y-36830000D03*
X238506000Y-36830000D03*
X235966000Y-36830000D03*
X233426000Y-36830000D03*
X230886000Y-36830000D03*
X228346000Y-36830000D03*
X225806000Y-36830000D03*
X223266000Y-36830000D03*
X220726000Y-36830000D03*
X234950000Y-85090000D03*
D11*
X293370000Y-85090000D03*
X287020000Y-36830000D03*
X212090000Y-36830000D03*
X210820000Y-85090000D03*
D12*
X290830000Y-39370000D03*
X293370000Y-39370000D03*
X290830000Y-41910000D03*
X293370000Y-41910000D03*
X290830000Y-44450000D03*
X293370000Y-44450000D03*
X290830000Y-46990000D03*
X293370000Y-46990000D03*
X290830000Y-36830000D03*
X293370000Y-36830000D03*
X293370000Y-49530000D03*
X290830000Y-49530000D03*
X290830000Y-52070000D03*
X293370000Y-52070000D03*
X290830000Y-54610000D03*
X293370000Y-54610000D03*
X290830000Y-57150000D03*
X293370000Y-57150000D03*
X290830000Y-59690000D03*
X293370000Y-59690000D03*
X290830000Y-62230000D03*
X293370000Y-62230000D03*
X290830000Y-64770000D03*
X293370000Y-64770000D03*
X290830000Y-67310000D03*
X293370000Y-67310000D03*
X290830000Y-69850000D03*
X293370000Y-69850000D03*
X290830000Y-72390000D03*
X293370000Y-72390000D03*
X290830000Y-74930000D03*
X293370000Y-74930000D03*
X290830000Y-77470000D03*
X293370000Y-77470000D03*
X290830000Y-80010000D03*
X293370000Y-80010000D03*
G04 #@! TD*
D13*
G04 #@! TO.C,U1*
X209550000Y-47625000D03*
D14*
X218440000Y-48628300D03*
X210553300Y-56515000D03*
X208546700Y-56515000D03*
X218440000Y-46621700D03*
X200660000Y-48628300D03*
X200660000Y-46621700D03*
G04 #@! TD*
D13*
G04 #@! TO.C,U3*
X265430000Y-47625000D03*
D14*
X274320000Y-48628300D03*
X266433300Y-56515000D03*
X264426700Y-56515000D03*
X274320000Y-46621700D03*
X256540000Y-48628300D03*
X256540000Y-46621700D03*
G04 #@! TD*
D13*
G04 #@! TO.C,U2*
X237490000Y-47625000D03*
D14*
X246380000Y-48628300D03*
X238493300Y-56515000D03*
X236486700Y-56515000D03*
X246380000Y-46621700D03*
X228600000Y-48628300D03*
X228600000Y-46621700D03*
G04 #@! TD*
D13*
G04 #@! TO.C,U4*
X209550000Y-71755000D03*
D14*
X200660000Y-70751700D03*
X208546700Y-62865000D03*
X210553300Y-62865000D03*
X200660000Y-72758300D03*
X218440000Y-70751700D03*
X218440000Y-72758300D03*
G04 #@! TD*
D13*
G04 #@! TO.C,U5*
X237490000Y-71755000D03*
D14*
X228600000Y-70751700D03*
X236486700Y-62865000D03*
X238493300Y-62865000D03*
X228600000Y-72758300D03*
X246380000Y-70751700D03*
X246380000Y-72758300D03*
G04 #@! TD*
D13*
G04 #@! TO.C,U6*
X265430000Y-71755000D03*
D14*
X256540000Y-70751700D03*
X264426700Y-62865000D03*
X266433300Y-62865000D03*
X256540000Y-72758300D03*
X274320000Y-70751700D03*
X274320000Y-72758300D03*
G04 #@! TD*
M02*
