G04 #@! TF.GenerationSoftware,KiCad,Pcbnew,(5.0.0)*
G04 #@! TF.CreationDate,2019-04-25T23:48:33-07:00*
G04 #@! TF.ProjectId,Arduino_Mega_6x,41726475696E6F5F4D6567615F36782E,rev?*
G04 #@! TF.SameCoordinates,Original*
G04 #@! TF.FileFunction,Legend,Top*
G04 #@! TF.FilePolarity,Positive*
%FSLAX46Y46*%
G04 Gerber Fmt 4.6, Leading zero omitted, Abs format (unit mm)*
G04 Created by KiCad (PCBNEW (5.0.0)) date 04/25/19 23:48:33*
%MOMM*%
%LPD*%
G01*
G04 APERTURE LIST*
%ADD10C,0.150000*%
%ADD11C,0.099060*%
%ADD12C,0.304800*%
%ADD13C,0.109220*%
G04 APERTURE END LIST*
D10*
G04 #@! TO.C,SHIELD1*
X196850000Y-87630000D02*
X295910000Y-87630000D01*
X295910000Y-34290000D02*
X196850000Y-34290000D01*
X295910000Y-87630000D02*
X295910000Y-84074000D01*
X295910000Y-84074000D02*
X295910000Y-34290000D01*
X196850000Y-34290000D02*
X196850000Y-87630000D01*
G04 #@! TO.C,U9*
X281432000Y-64008000D02*
X277368000Y-64008000D01*
X277368000Y-64008000D02*
X277368000Y-55372000D01*
X277368000Y-55372000D02*
X281432000Y-55372000D01*
X281432000Y-55372000D02*
X281432000Y-64008000D01*
G04 #@! TO.C,U7*
X225552000Y-64008000D02*
X221488000Y-64008000D01*
X221488000Y-64008000D02*
X221488000Y-55372000D01*
X221488000Y-55372000D02*
X225552000Y-55372000D01*
X225552000Y-55372000D02*
X225552000Y-64008000D01*
G04 #@! TO.C,U8*
X253492000Y-64008000D02*
X249428000Y-64008000D01*
X249428000Y-64008000D02*
X249428000Y-55372000D01*
X249428000Y-55372000D02*
X253492000Y-55372000D01*
X253492000Y-55372000D02*
X253492000Y-64008000D01*
D11*
G04 #@! TO.C,R1*
X216916000Y-58166000D02*
G75*
G03X216916000Y-58166000I-127000J0D01*
G01*
X216789000Y-57023000D02*
X216789000Y-58039000D01*
X216789000Y-58039000D02*
X215265000Y-58039000D01*
X215265000Y-58039000D02*
X215265000Y-57023000D01*
X215265000Y-56007000D02*
X215265000Y-54991000D01*
X215265000Y-54991000D02*
X216789000Y-54991000D01*
X216789000Y-54991000D02*
X216789000Y-56007000D01*
G04 #@! TO.C,R8*
X230378000Y-61214000D02*
G75*
G03X230378000Y-61214000I-127000J0D01*
G01*
X230251000Y-62357000D02*
X230251000Y-61341000D01*
X230251000Y-61341000D02*
X231775000Y-61341000D01*
X231775000Y-61341000D02*
X231775000Y-62357000D01*
X231775000Y-63373000D02*
X231775000Y-64389000D01*
X231775000Y-64389000D02*
X230251000Y-64389000D01*
X230251000Y-64389000D02*
X230251000Y-63373000D01*
G04 #@! TO.C,R3*
X221996000Y-51562000D02*
G75*
G03X221996000Y-51562000I-127000J0D01*
G01*
X223012000Y-51562000D02*
X221996000Y-51562000D01*
X221996000Y-51562000D02*
X221996000Y-50038000D01*
X221996000Y-50038000D02*
X223012000Y-50038000D01*
X224028000Y-50038000D02*
X225044000Y-50038000D01*
X225044000Y-50038000D02*
X225044000Y-51562000D01*
X225044000Y-51562000D02*
X224028000Y-51562000D01*
G04 #@! TO.C,R4*
X221996000Y-54102000D02*
G75*
G03X221996000Y-54102000I-127000J0D01*
G01*
X223012000Y-54102000D02*
X221996000Y-54102000D01*
X221996000Y-54102000D02*
X221996000Y-52578000D01*
X221996000Y-52578000D02*
X223012000Y-52578000D01*
X224028000Y-52578000D02*
X225044000Y-52578000D01*
X225044000Y-52578000D02*
X225044000Y-54102000D01*
X225044000Y-54102000D02*
X224028000Y-54102000D01*
G04 #@! TO.C,R2*
X221996000Y-49022000D02*
G75*
G03X221996000Y-49022000I-127000J0D01*
G01*
X223012000Y-49022000D02*
X221996000Y-49022000D01*
X221996000Y-49022000D02*
X221996000Y-47498000D01*
X221996000Y-47498000D02*
X223012000Y-47498000D01*
X224028000Y-47498000D02*
X225044000Y-47498000D01*
X225044000Y-47498000D02*
X225044000Y-49022000D01*
X225044000Y-49022000D02*
X224028000Y-49022000D01*
G04 #@! TO.C,R6*
X221996000Y-69342000D02*
G75*
G03X221996000Y-69342000I-127000J0D01*
G01*
X223012000Y-69342000D02*
X221996000Y-69342000D01*
X221996000Y-69342000D02*
X221996000Y-67818000D01*
X221996000Y-67818000D02*
X223012000Y-67818000D01*
X224028000Y-67818000D02*
X225044000Y-67818000D01*
X225044000Y-67818000D02*
X225044000Y-69342000D01*
X225044000Y-69342000D02*
X224028000Y-69342000D01*
G04 #@! TO.C,R5*
X221996000Y-66802000D02*
G75*
G03X221996000Y-66802000I-127000J0D01*
G01*
X223012000Y-66802000D02*
X221996000Y-66802000D01*
X221996000Y-66802000D02*
X221996000Y-65278000D01*
X221996000Y-65278000D02*
X223012000Y-65278000D01*
X224028000Y-65278000D02*
X225044000Y-65278000D01*
X225044000Y-65278000D02*
X225044000Y-66802000D01*
X225044000Y-66802000D02*
X224028000Y-66802000D01*
G04 #@! TO.C,R7*
X221996000Y-71882000D02*
G75*
G03X221996000Y-71882000I-127000J0D01*
G01*
X223012000Y-71882000D02*
X221996000Y-71882000D01*
X221996000Y-71882000D02*
X221996000Y-70358000D01*
X221996000Y-70358000D02*
X223012000Y-70358000D01*
X224028000Y-70358000D02*
X225044000Y-70358000D01*
X225044000Y-70358000D02*
X225044000Y-71882000D01*
X225044000Y-71882000D02*
X224028000Y-71882000D01*
G04 #@! TO.C,R9*
X244856000Y-58166000D02*
G75*
G03X244856000Y-58166000I-127000J0D01*
G01*
X244729000Y-57023000D02*
X244729000Y-58039000D01*
X244729000Y-58039000D02*
X243205000Y-58039000D01*
X243205000Y-58039000D02*
X243205000Y-57023000D01*
X243205000Y-56007000D02*
X243205000Y-54991000D01*
X243205000Y-54991000D02*
X244729000Y-54991000D01*
X244729000Y-54991000D02*
X244729000Y-56007000D01*
G04 #@! TO.C,R16*
X258318000Y-61214000D02*
G75*
G03X258318000Y-61214000I-127000J0D01*
G01*
X258191000Y-62357000D02*
X258191000Y-61341000D01*
X258191000Y-61341000D02*
X259715000Y-61341000D01*
X259715000Y-61341000D02*
X259715000Y-62357000D01*
X259715000Y-63373000D02*
X259715000Y-64389000D01*
X259715000Y-64389000D02*
X258191000Y-64389000D01*
X258191000Y-64389000D02*
X258191000Y-63373000D01*
G04 #@! TO.C,R11*
X249936000Y-51562000D02*
G75*
G03X249936000Y-51562000I-127000J0D01*
G01*
X250952000Y-51562000D02*
X249936000Y-51562000D01*
X249936000Y-51562000D02*
X249936000Y-50038000D01*
X249936000Y-50038000D02*
X250952000Y-50038000D01*
X251968000Y-50038000D02*
X252984000Y-50038000D01*
X252984000Y-50038000D02*
X252984000Y-51562000D01*
X252984000Y-51562000D02*
X251968000Y-51562000D01*
G04 #@! TO.C,R12*
X249936000Y-54102000D02*
G75*
G03X249936000Y-54102000I-127000J0D01*
G01*
X250952000Y-54102000D02*
X249936000Y-54102000D01*
X249936000Y-54102000D02*
X249936000Y-52578000D01*
X249936000Y-52578000D02*
X250952000Y-52578000D01*
X251968000Y-52578000D02*
X252984000Y-52578000D01*
X252984000Y-52578000D02*
X252984000Y-54102000D01*
X252984000Y-54102000D02*
X251968000Y-54102000D01*
G04 #@! TO.C,R10*
X249936000Y-49022000D02*
G75*
G03X249936000Y-49022000I-127000J0D01*
G01*
X250952000Y-49022000D02*
X249936000Y-49022000D01*
X249936000Y-49022000D02*
X249936000Y-47498000D01*
X249936000Y-47498000D02*
X250952000Y-47498000D01*
X251968000Y-47498000D02*
X252984000Y-47498000D01*
X252984000Y-47498000D02*
X252984000Y-49022000D01*
X252984000Y-49022000D02*
X251968000Y-49022000D01*
G04 #@! TO.C,R14*
X249936000Y-69342000D02*
G75*
G03X249936000Y-69342000I-127000J0D01*
G01*
X250952000Y-69342000D02*
X249936000Y-69342000D01*
X249936000Y-69342000D02*
X249936000Y-67818000D01*
X249936000Y-67818000D02*
X250952000Y-67818000D01*
X251968000Y-67818000D02*
X252984000Y-67818000D01*
X252984000Y-67818000D02*
X252984000Y-69342000D01*
X252984000Y-69342000D02*
X251968000Y-69342000D01*
G04 #@! TO.C,R13*
X249936000Y-66802000D02*
G75*
G03X249936000Y-66802000I-127000J0D01*
G01*
X250952000Y-66802000D02*
X249936000Y-66802000D01*
X249936000Y-66802000D02*
X249936000Y-65278000D01*
X249936000Y-65278000D02*
X250952000Y-65278000D01*
X251968000Y-65278000D02*
X252984000Y-65278000D01*
X252984000Y-65278000D02*
X252984000Y-66802000D01*
X252984000Y-66802000D02*
X251968000Y-66802000D01*
G04 #@! TO.C,R15*
X249936000Y-71882000D02*
G75*
G03X249936000Y-71882000I-127000J0D01*
G01*
X250952000Y-71882000D02*
X249936000Y-71882000D01*
X249936000Y-71882000D02*
X249936000Y-70358000D01*
X249936000Y-70358000D02*
X250952000Y-70358000D01*
X251968000Y-70358000D02*
X252984000Y-70358000D01*
X252984000Y-70358000D02*
X252984000Y-71882000D01*
X252984000Y-71882000D02*
X251968000Y-71882000D01*
G04 #@! TO.C,R17*
X272796000Y-58166000D02*
G75*
G03X272796000Y-58166000I-127000J0D01*
G01*
X272669000Y-57023000D02*
X272669000Y-58039000D01*
X272669000Y-58039000D02*
X271145000Y-58039000D01*
X271145000Y-58039000D02*
X271145000Y-57023000D01*
X271145000Y-56007000D02*
X271145000Y-54991000D01*
X271145000Y-54991000D02*
X272669000Y-54991000D01*
X272669000Y-54991000D02*
X272669000Y-56007000D01*
G04 #@! TO.C,R24*
X286258000Y-61214000D02*
G75*
G03X286258000Y-61214000I-127000J0D01*
G01*
X286131000Y-62357000D02*
X286131000Y-61341000D01*
X286131000Y-61341000D02*
X287655000Y-61341000D01*
X287655000Y-61341000D02*
X287655000Y-62357000D01*
X287655000Y-63373000D02*
X287655000Y-64389000D01*
X287655000Y-64389000D02*
X286131000Y-64389000D01*
X286131000Y-64389000D02*
X286131000Y-63373000D01*
G04 #@! TO.C,R19*
X277876000Y-51562000D02*
G75*
G03X277876000Y-51562000I-127000J0D01*
G01*
X278892000Y-51562000D02*
X277876000Y-51562000D01*
X277876000Y-51562000D02*
X277876000Y-50038000D01*
X277876000Y-50038000D02*
X278892000Y-50038000D01*
X279908000Y-50038000D02*
X280924000Y-50038000D01*
X280924000Y-50038000D02*
X280924000Y-51562000D01*
X280924000Y-51562000D02*
X279908000Y-51562000D01*
G04 #@! TO.C,R20*
X277876000Y-54102000D02*
G75*
G03X277876000Y-54102000I-127000J0D01*
G01*
X278892000Y-54102000D02*
X277876000Y-54102000D01*
X277876000Y-54102000D02*
X277876000Y-52578000D01*
X277876000Y-52578000D02*
X278892000Y-52578000D01*
X279908000Y-52578000D02*
X280924000Y-52578000D01*
X280924000Y-52578000D02*
X280924000Y-54102000D01*
X280924000Y-54102000D02*
X279908000Y-54102000D01*
G04 #@! TO.C,R18*
X277876000Y-49022000D02*
G75*
G03X277876000Y-49022000I-127000J0D01*
G01*
X278892000Y-49022000D02*
X277876000Y-49022000D01*
X277876000Y-49022000D02*
X277876000Y-47498000D01*
X277876000Y-47498000D02*
X278892000Y-47498000D01*
X279908000Y-47498000D02*
X280924000Y-47498000D01*
X280924000Y-47498000D02*
X280924000Y-49022000D01*
X280924000Y-49022000D02*
X279908000Y-49022000D01*
G04 #@! TO.C,R22*
X277876000Y-69342000D02*
G75*
G03X277876000Y-69342000I-127000J0D01*
G01*
X278892000Y-69342000D02*
X277876000Y-69342000D01*
X277876000Y-69342000D02*
X277876000Y-67818000D01*
X277876000Y-67818000D02*
X278892000Y-67818000D01*
X279908000Y-67818000D02*
X280924000Y-67818000D01*
X280924000Y-67818000D02*
X280924000Y-69342000D01*
X280924000Y-69342000D02*
X279908000Y-69342000D01*
G04 #@! TO.C,R21*
X277876000Y-66802000D02*
G75*
G03X277876000Y-66802000I-127000J0D01*
G01*
X278892000Y-66802000D02*
X277876000Y-66802000D01*
X277876000Y-66802000D02*
X277876000Y-65278000D01*
X277876000Y-65278000D02*
X278892000Y-65278000D01*
X279908000Y-65278000D02*
X280924000Y-65278000D01*
X280924000Y-65278000D02*
X280924000Y-66802000D01*
X280924000Y-66802000D02*
X279908000Y-66802000D01*
G04 #@! TO.C,R23*
X277876000Y-71882000D02*
G75*
G03X277876000Y-71882000I-127000J0D01*
G01*
X278892000Y-71882000D02*
X277876000Y-71882000D01*
X277876000Y-71882000D02*
X277876000Y-70358000D01*
X277876000Y-70358000D02*
X278892000Y-70358000D01*
X279908000Y-70358000D02*
X280924000Y-70358000D01*
X280924000Y-70358000D02*
X280924000Y-71882000D01*
X280924000Y-71882000D02*
X279908000Y-71882000D01*
G04 #@! TO.C,C1*
X217170000Y-58928000D02*
G75*
G03X217170000Y-58928000I-127000J0D01*
G01*
X215900000Y-58928000D02*
X216916000Y-58928000D01*
X216916000Y-58928000D02*
X216916000Y-60452000D01*
X216916000Y-60452000D02*
X215900000Y-60452000D01*
X214884000Y-60452000D02*
X213868000Y-60452000D01*
X213868000Y-60452000D02*
X213868000Y-58928000D01*
X213868000Y-58928000D02*
X214884000Y-58928000D01*
G04 #@! TO.C,C2*
X244983000Y-58928000D02*
G75*
G03X244983000Y-58928000I-127000J0D01*
G01*
X243713000Y-58928000D02*
X244729000Y-58928000D01*
X244729000Y-58928000D02*
X244729000Y-60452000D01*
X244729000Y-60452000D02*
X243713000Y-60452000D01*
X242697000Y-60452000D02*
X241681000Y-60452000D01*
X241681000Y-60452000D02*
X241681000Y-58928000D01*
X241681000Y-58928000D02*
X242697000Y-58928000D01*
G04 #@! TO.C,C3*
X272923000Y-58928000D02*
G75*
G03X272923000Y-58928000I-127000J0D01*
G01*
X271653000Y-58928000D02*
X272669000Y-58928000D01*
X272669000Y-58928000D02*
X272669000Y-60452000D01*
X272669000Y-60452000D02*
X271653000Y-60452000D01*
X270637000Y-60452000D02*
X269621000Y-60452000D01*
X269621000Y-60452000D02*
X269621000Y-58928000D01*
X269621000Y-58928000D02*
X270637000Y-58928000D01*
G04 #@! TO.C,C5*
X231902000Y-58166000D02*
G75*
G03X231902000Y-58166000I-127000J0D01*
G01*
X231775000Y-57023000D02*
X231775000Y-58039000D01*
X231775000Y-58039000D02*
X230251000Y-58039000D01*
X230251000Y-58039000D02*
X230251000Y-57023000D01*
X230251000Y-56007000D02*
X230251000Y-54991000D01*
X230251000Y-54991000D02*
X231775000Y-54991000D01*
X231775000Y-54991000D02*
X231775000Y-56007000D01*
G04 #@! TO.C,C4*
X216916000Y-64516000D02*
G75*
G03X216916000Y-64516000I-127000J0D01*
G01*
X216789000Y-63373000D02*
X216789000Y-64389000D01*
X216789000Y-64389000D02*
X215265000Y-64389000D01*
X215265000Y-64389000D02*
X215265000Y-63373000D01*
X215265000Y-62357000D02*
X215265000Y-61341000D01*
X215265000Y-61341000D02*
X216789000Y-61341000D01*
X216789000Y-61341000D02*
X216789000Y-62357000D01*
G04 #@! TO.C,C6*
X244856000Y-64516000D02*
G75*
G03X244856000Y-64516000I-127000J0D01*
G01*
X244729000Y-63373000D02*
X244729000Y-64389000D01*
X244729000Y-64389000D02*
X243205000Y-64389000D01*
X243205000Y-64389000D02*
X243205000Y-63373000D01*
X243205000Y-62357000D02*
X243205000Y-61341000D01*
X243205000Y-61341000D02*
X244729000Y-61341000D01*
X244729000Y-61341000D02*
X244729000Y-62357000D01*
G04 #@! TO.C,C8*
X272796000Y-64516000D02*
G75*
G03X272796000Y-64516000I-127000J0D01*
G01*
X272669000Y-63373000D02*
X272669000Y-64389000D01*
X272669000Y-64389000D02*
X271145000Y-64389000D01*
X271145000Y-64389000D02*
X271145000Y-63373000D01*
X271145000Y-62357000D02*
X271145000Y-61341000D01*
X271145000Y-61341000D02*
X272669000Y-61341000D01*
X272669000Y-61341000D02*
X272669000Y-62357000D01*
G04 #@! TO.C,C9*
X287909000Y-57785000D02*
G75*
G03X287909000Y-57785000I-127000J0D01*
G01*
X287782000Y-56642000D02*
X287782000Y-57658000D01*
X287782000Y-57658000D02*
X286258000Y-57658000D01*
X286258000Y-57658000D02*
X286258000Y-56642000D01*
X286258000Y-55626000D02*
X286258000Y-54610000D01*
X286258000Y-54610000D02*
X287782000Y-54610000D01*
X287782000Y-54610000D02*
X287782000Y-55626000D01*
G04 #@! TO.C,C7*
X259842000Y-58166000D02*
G75*
G03X259842000Y-58166000I-127000J0D01*
G01*
X259715000Y-57023000D02*
X259715000Y-58039000D01*
X259715000Y-58039000D02*
X258191000Y-58039000D01*
X258191000Y-58039000D02*
X258191000Y-57023000D01*
X258191000Y-56007000D02*
X258191000Y-54991000D01*
X258191000Y-54991000D02*
X259715000Y-54991000D01*
X259715000Y-54991000D02*
X259715000Y-56007000D01*
D10*
G04 #@! TO.C,U11*
X283096000Y-48382000D02*
X283096000Y-44582000D01*
X283096000Y-44582000D02*
X287896000Y-44582000D01*
X287896000Y-44582000D02*
X287896000Y-48382000D01*
X287896000Y-48382000D02*
X283096000Y-48382000D01*
D11*
G04 #@! TO.C,C13*
X285242000Y-40894000D02*
G75*
G03X285242000Y-40894000I-127000J0D01*
G01*
X286258000Y-40894000D02*
X285242000Y-40894000D01*
X285242000Y-40894000D02*
X285242000Y-39370000D01*
X285242000Y-39370000D02*
X286258000Y-39370000D01*
X287274000Y-39370000D02*
X288290000Y-39370000D01*
X288290000Y-39370000D02*
X288290000Y-40894000D01*
X288290000Y-40894000D02*
X287274000Y-40894000D01*
G04 #@! TO.C,C14*
X288226000Y-52578000D02*
G75*
G03X288226000Y-52578000I-127000J0D01*
G01*
X286956000Y-52578000D02*
X287972000Y-52578000D01*
X287972000Y-52578000D02*
X287972000Y-54102000D01*
X287972000Y-54102000D02*
X286956000Y-54102000D01*
X285940000Y-54102000D02*
X284924000Y-54102000D01*
X284924000Y-54102000D02*
X284924000Y-52578000D01*
X284924000Y-52578000D02*
X285940000Y-52578000D01*
G04 #@! TO.C,R25*
X281750000Y-40894000D02*
G75*
G03X281750000Y-40894000I-127000J0D01*
G01*
X282766000Y-40894000D02*
X281750000Y-40894000D01*
X281750000Y-40894000D02*
X281750000Y-39370000D01*
X281750000Y-39370000D02*
X282766000Y-39370000D01*
X283782000Y-39370000D02*
X284798000Y-39370000D01*
X284798000Y-39370000D02*
X284798000Y-40894000D01*
X284798000Y-40894000D02*
X283782000Y-40894000D01*
G04 #@! TO.C,R26*
X278320000Y-40894000D02*
G75*
G03X278320000Y-40894000I-127000J0D01*
G01*
X279336000Y-40894000D02*
X278320000Y-40894000D01*
X278320000Y-40894000D02*
X278320000Y-39370000D01*
X278320000Y-39370000D02*
X279336000Y-39370000D01*
X280352000Y-39370000D02*
X281368000Y-39370000D01*
X281368000Y-39370000D02*
X281368000Y-40894000D01*
X281368000Y-40894000D02*
X280352000Y-40894000D01*
G04 #@! TO.C,SHIELD1*
D12*
X194999428Y-31096857D02*
X195217142Y-31169428D01*
X195580000Y-31169428D01*
X195725142Y-31096857D01*
X195797714Y-31024285D01*
X195870285Y-30879142D01*
X195870285Y-30734000D01*
X195797714Y-30588857D01*
X195725142Y-30516285D01*
X195580000Y-30443714D01*
X195289714Y-30371142D01*
X195144571Y-30298571D01*
X195072000Y-30226000D01*
X194999428Y-30080857D01*
X194999428Y-29935714D01*
X195072000Y-29790571D01*
X195144571Y-29718000D01*
X195289714Y-29645428D01*
X195652571Y-29645428D01*
X195870285Y-29718000D01*
X196523428Y-31169428D02*
X196523428Y-29645428D01*
X196523428Y-30371142D02*
X197394285Y-30371142D01*
X197394285Y-31169428D02*
X197394285Y-29645428D01*
X198120000Y-31169428D02*
X198120000Y-29645428D01*
X198845714Y-30371142D02*
X199353714Y-30371142D01*
X199571428Y-31169428D02*
X198845714Y-31169428D01*
X198845714Y-29645428D01*
X199571428Y-29645428D01*
X200950285Y-31169428D02*
X200224571Y-31169428D01*
X200224571Y-29645428D01*
X201458285Y-31169428D02*
X201458285Y-29645428D01*
X201821142Y-29645428D01*
X202038857Y-29718000D01*
X202184000Y-29863142D01*
X202256571Y-30008285D01*
X202329142Y-30298571D01*
X202329142Y-30516285D01*
X202256571Y-30806571D01*
X202184000Y-30951714D01*
X202038857Y-31096857D01*
X201821142Y-31169428D01*
X201458285Y-31169428D01*
X203780571Y-31169428D02*
X202909714Y-31169428D01*
X203345142Y-31169428D02*
X203345142Y-29645428D01*
X203200000Y-29863142D01*
X203054857Y-30008285D01*
X202909714Y-30080857D01*
G04 #@! TO.C,U1*
D10*
X208788095Y-47077380D02*
X208788095Y-47886904D01*
X208835714Y-47982142D01*
X208883333Y-48029761D01*
X208978571Y-48077380D01*
X209169047Y-48077380D01*
X209264285Y-48029761D01*
X209311904Y-47982142D01*
X209359523Y-47886904D01*
X209359523Y-47077380D01*
X210359523Y-48077380D02*
X209788095Y-48077380D01*
X210073809Y-48077380D02*
X210073809Y-47077380D01*
X209978571Y-47220238D01*
X209883333Y-47315476D01*
X209788095Y-47363095D01*
X198445714Y-40409761D02*
X198588571Y-40457380D01*
X198826666Y-40457380D01*
X198921904Y-40409761D01*
X198969523Y-40362142D01*
X199017142Y-40266904D01*
X199017142Y-40171666D01*
X198969523Y-40076428D01*
X198921904Y-40028809D01*
X198826666Y-39981190D01*
X198636190Y-39933571D01*
X198540952Y-39885952D01*
X198493333Y-39838333D01*
X198445714Y-39743095D01*
X198445714Y-39647857D01*
X198493333Y-39552619D01*
X198540952Y-39505000D01*
X198636190Y-39457380D01*
X198874285Y-39457380D01*
X199017142Y-39505000D01*
X199445714Y-40457380D02*
X199445714Y-39457380D01*
X199826666Y-39457380D01*
X199921904Y-39505000D01*
X199969523Y-39552619D01*
X200017142Y-39647857D01*
X200017142Y-39790714D01*
X199969523Y-39885952D01*
X199921904Y-39933571D01*
X199826666Y-39981190D01*
X199445714Y-39981190D01*
X200445714Y-39933571D02*
X200779047Y-39933571D01*
X200921904Y-40457380D02*
X200445714Y-40457380D01*
X200445714Y-39457380D01*
X200921904Y-39457380D01*
X201921904Y-40362142D02*
X201874285Y-40409761D01*
X201731428Y-40457380D01*
X201636190Y-40457380D01*
X201493333Y-40409761D01*
X201398095Y-40314523D01*
X201350476Y-40219285D01*
X201302857Y-40028809D01*
X201302857Y-39885952D01*
X201350476Y-39695476D01*
X201398095Y-39600238D01*
X201493333Y-39505000D01*
X201636190Y-39457380D01*
X201731428Y-39457380D01*
X201874285Y-39505000D01*
X201921904Y-39552619D01*
X202302857Y-40409761D02*
X202445714Y-40457380D01*
X202683809Y-40457380D01*
X202779047Y-40409761D01*
X202826666Y-40362142D01*
X202874285Y-40266904D01*
X202874285Y-40171666D01*
X202826666Y-40076428D01*
X202779047Y-40028809D01*
X202683809Y-39981190D01*
X202493333Y-39933571D01*
X202398095Y-39885952D01*
X202350476Y-39838333D01*
X202302857Y-39743095D01*
X202302857Y-39647857D01*
X202350476Y-39552619D01*
X202398095Y-39505000D01*
X202493333Y-39457380D01*
X202731428Y-39457380D01*
X202874285Y-39505000D01*
G04 #@! TO.C,U3*
X264668095Y-47077380D02*
X264668095Y-47886904D01*
X264715714Y-47982142D01*
X264763333Y-48029761D01*
X264858571Y-48077380D01*
X265049047Y-48077380D01*
X265144285Y-48029761D01*
X265191904Y-47982142D01*
X265239523Y-47886904D01*
X265239523Y-47077380D01*
X265620476Y-47077380D02*
X266239523Y-47077380D01*
X265906190Y-47458333D01*
X266049047Y-47458333D01*
X266144285Y-47505952D01*
X266191904Y-47553571D01*
X266239523Y-47648809D01*
X266239523Y-47886904D01*
X266191904Y-47982142D01*
X266144285Y-48029761D01*
X266049047Y-48077380D01*
X265763333Y-48077380D01*
X265668095Y-48029761D01*
X265620476Y-47982142D01*
X254325714Y-40409761D02*
X254468571Y-40457380D01*
X254706666Y-40457380D01*
X254801904Y-40409761D01*
X254849523Y-40362142D01*
X254897142Y-40266904D01*
X254897142Y-40171666D01*
X254849523Y-40076428D01*
X254801904Y-40028809D01*
X254706666Y-39981190D01*
X254516190Y-39933571D01*
X254420952Y-39885952D01*
X254373333Y-39838333D01*
X254325714Y-39743095D01*
X254325714Y-39647857D01*
X254373333Y-39552619D01*
X254420952Y-39505000D01*
X254516190Y-39457380D01*
X254754285Y-39457380D01*
X254897142Y-39505000D01*
X255325714Y-40457380D02*
X255325714Y-39457380D01*
X255706666Y-39457380D01*
X255801904Y-39505000D01*
X255849523Y-39552619D01*
X255897142Y-39647857D01*
X255897142Y-39790714D01*
X255849523Y-39885952D01*
X255801904Y-39933571D01*
X255706666Y-39981190D01*
X255325714Y-39981190D01*
X256325714Y-39933571D02*
X256659047Y-39933571D01*
X256801904Y-40457380D02*
X256325714Y-40457380D01*
X256325714Y-39457380D01*
X256801904Y-39457380D01*
X257801904Y-40362142D02*
X257754285Y-40409761D01*
X257611428Y-40457380D01*
X257516190Y-40457380D01*
X257373333Y-40409761D01*
X257278095Y-40314523D01*
X257230476Y-40219285D01*
X257182857Y-40028809D01*
X257182857Y-39885952D01*
X257230476Y-39695476D01*
X257278095Y-39600238D01*
X257373333Y-39505000D01*
X257516190Y-39457380D01*
X257611428Y-39457380D01*
X257754285Y-39505000D01*
X257801904Y-39552619D01*
X258182857Y-40409761D02*
X258325714Y-40457380D01*
X258563809Y-40457380D01*
X258659047Y-40409761D01*
X258706666Y-40362142D01*
X258754285Y-40266904D01*
X258754285Y-40171666D01*
X258706666Y-40076428D01*
X258659047Y-40028809D01*
X258563809Y-39981190D01*
X258373333Y-39933571D01*
X258278095Y-39885952D01*
X258230476Y-39838333D01*
X258182857Y-39743095D01*
X258182857Y-39647857D01*
X258230476Y-39552619D01*
X258278095Y-39505000D01*
X258373333Y-39457380D01*
X258611428Y-39457380D01*
X258754285Y-39505000D01*
G04 #@! TO.C,U2*
X236728095Y-47077380D02*
X236728095Y-47886904D01*
X236775714Y-47982142D01*
X236823333Y-48029761D01*
X236918571Y-48077380D01*
X237109047Y-48077380D01*
X237204285Y-48029761D01*
X237251904Y-47982142D01*
X237299523Y-47886904D01*
X237299523Y-47077380D01*
X237728095Y-47172619D02*
X237775714Y-47125000D01*
X237870952Y-47077380D01*
X238109047Y-47077380D01*
X238204285Y-47125000D01*
X238251904Y-47172619D01*
X238299523Y-47267857D01*
X238299523Y-47363095D01*
X238251904Y-47505952D01*
X237680476Y-48077380D01*
X238299523Y-48077380D01*
X226385714Y-40409761D02*
X226528571Y-40457380D01*
X226766666Y-40457380D01*
X226861904Y-40409761D01*
X226909523Y-40362142D01*
X226957142Y-40266904D01*
X226957142Y-40171666D01*
X226909523Y-40076428D01*
X226861904Y-40028809D01*
X226766666Y-39981190D01*
X226576190Y-39933571D01*
X226480952Y-39885952D01*
X226433333Y-39838333D01*
X226385714Y-39743095D01*
X226385714Y-39647857D01*
X226433333Y-39552619D01*
X226480952Y-39505000D01*
X226576190Y-39457380D01*
X226814285Y-39457380D01*
X226957142Y-39505000D01*
X227385714Y-40457380D02*
X227385714Y-39457380D01*
X227766666Y-39457380D01*
X227861904Y-39505000D01*
X227909523Y-39552619D01*
X227957142Y-39647857D01*
X227957142Y-39790714D01*
X227909523Y-39885952D01*
X227861904Y-39933571D01*
X227766666Y-39981190D01*
X227385714Y-39981190D01*
X228385714Y-39933571D02*
X228719047Y-39933571D01*
X228861904Y-40457380D02*
X228385714Y-40457380D01*
X228385714Y-39457380D01*
X228861904Y-39457380D01*
X229861904Y-40362142D02*
X229814285Y-40409761D01*
X229671428Y-40457380D01*
X229576190Y-40457380D01*
X229433333Y-40409761D01*
X229338095Y-40314523D01*
X229290476Y-40219285D01*
X229242857Y-40028809D01*
X229242857Y-39885952D01*
X229290476Y-39695476D01*
X229338095Y-39600238D01*
X229433333Y-39505000D01*
X229576190Y-39457380D01*
X229671428Y-39457380D01*
X229814285Y-39505000D01*
X229861904Y-39552619D01*
X230242857Y-40409761D02*
X230385714Y-40457380D01*
X230623809Y-40457380D01*
X230719047Y-40409761D01*
X230766666Y-40362142D01*
X230814285Y-40266904D01*
X230814285Y-40171666D01*
X230766666Y-40076428D01*
X230719047Y-40028809D01*
X230623809Y-39981190D01*
X230433333Y-39933571D01*
X230338095Y-39885952D01*
X230290476Y-39838333D01*
X230242857Y-39743095D01*
X230242857Y-39647857D01*
X230290476Y-39552619D01*
X230338095Y-39505000D01*
X230433333Y-39457380D01*
X230671428Y-39457380D01*
X230814285Y-39505000D01*
G04 #@! TO.C,U4*
X208788095Y-71207380D02*
X208788095Y-72016904D01*
X208835714Y-72112142D01*
X208883333Y-72159761D01*
X208978571Y-72207380D01*
X209169047Y-72207380D01*
X209264285Y-72159761D01*
X209311904Y-72112142D01*
X209359523Y-72016904D01*
X209359523Y-71207380D01*
X210264285Y-71540714D02*
X210264285Y-72207380D01*
X210026190Y-71159761D02*
X209788095Y-71874047D01*
X210407142Y-71874047D01*
X214447714Y-79271761D02*
X214590571Y-79319380D01*
X214828666Y-79319380D01*
X214923904Y-79271761D01*
X214971523Y-79224142D01*
X215019142Y-79128904D01*
X215019142Y-79033666D01*
X214971523Y-78938428D01*
X214923904Y-78890809D01*
X214828666Y-78843190D01*
X214638190Y-78795571D01*
X214542952Y-78747952D01*
X214495333Y-78700333D01*
X214447714Y-78605095D01*
X214447714Y-78509857D01*
X214495333Y-78414619D01*
X214542952Y-78367000D01*
X214638190Y-78319380D01*
X214876285Y-78319380D01*
X215019142Y-78367000D01*
X215447714Y-79319380D02*
X215447714Y-78319380D01*
X215828666Y-78319380D01*
X215923904Y-78367000D01*
X215971523Y-78414619D01*
X216019142Y-78509857D01*
X216019142Y-78652714D01*
X215971523Y-78747952D01*
X215923904Y-78795571D01*
X215828666Y-78843190D01*
X215447714Y-78843190D01*
X216447714Y-78795571D02*
X216781047Y-78795571D01*
X216923904Y-79319380D02*
X216447714Y-79319380D01*
X216447714Y-78319380D01*
X216923904Y-78319380D01*
X217923904Y-79224142D02*
X217876285Y-79271761D01*
X217733428Y-79319380D01*
X217638190Y-79319380D01*
X217495333Y-79271761D01*
X217400095Y-79176523D01*
X217352476Y-79081285D01*
X217304857Y-78890809D01*
X217304857Y-78747952D01*
X217352476Y-78557476D01*
X217400095Y-78462238D01*
X217495333Y-78367000D01*
X217638190Y-78319380D01*
X217733428Y-78319380D01*
X217876285Y-78367000D01*
X217923904Y-78414619D01*
X218304857Y-79271761D02*
X218447714Y-79319380D01*
X218685809Y-79319380D01*
X218781047Y-79271761D01*
X218828666Y-79224142D01*
X218876285Y-79128904D01*
X218876285Y-79033666D01*
X218828666Y-78938428D01*
X218781047Y-78890809D01*
X218685809Y-78843190D01*
X218495333Y-78795571D01*
X218400095Y-78747952D01*
X218352476Y-78700333D01*
X218304857Y-78605095D01*
X218304857Y-78509857D01*
X218352476Y-78414619D01*
X218400095Y-78367000D01*
X218495333Y-78319380D01*
X218733428Y-78319380D01*
X218876285Y-78367000D01*
G04 #@! TO.C,U5*
X236728095Y-71207380D02*
X236728095Y-72016904D01*
X236775714Y-72112142D01*
X236823333Y-72159761D01*
X236918571Y-72207380D01*
X237109047Y-72207380D01*
X237204285Y-72159761D01*
X237251904Y-72112142D01*
X237299523Y-72016904D01*
X237299523Y-71207380D01*
X238251904Y-71207380D02*
X237775714Y-71207380D01*
X237728095Y-71683571D01*
X237775714Y-71635952D01*
X237870952Y-71588333D01*
X238109047Y-71588333D01*
X238204285Y-71635952D01*
X238251904Y-71683571D01*
X238299523Y-71778809D01*
X238299523Y-72016904D01*
X238251904Y-72112142D01*
X238204285Y-72159761D01*
X238109047Y-72207380D01*
X237870952Y-72207380D01*
X237775714Y-72159761D01*
X237728095Y-72112142D01*
X242387714Y-79271761D02*
X242530571Y-79319380D01*
X242768666Y-79319380D01*
X242863904Y-79271761D01*
X242911523Y-79224142D01*
X242959142Y-79128904D01*
X242959142Y-79033666D01*
X242911523Y-78938428D01*
X242863904Y-78890809D01*
X242768666Y-78843190D01*
X242578190Y-78795571D01*
X242482952Y-78747952D01*
X242435333Y-78700333D01*
X242387714Y-78605095D01*
X242387714Y-78509857D01*
X242435333Y-78414619D01*
X242482952Y-78367000D01*
X242578190Y-78319380D01*
X242816285Y-78319380D01*
X242959142Y-78367000D01*
X243387714Y-79319380D02*
X243387714Y-78319380D01*
X243768666Y-78319380D01*
X243863904Y-78367000D01*
X243911523Y-78414619D01*
X243959142Y-78509857D01*
X243959142Y-78652714D01*
X243911523Y-78747952D01*
X243863904Y-78795571D01*
X243768666Y-78843190D01*
X243387714Y-78843190D01*
X244387714Y-78795571D02*
X244721047Y-78795571D01*
X244863904Y-79319380D02*
X244387714Y-79319380D01*
X244387714Y-78319380D01*
X244863904Y-78319380D01*
X245863904Y-79224142D02*
X245816285Y-79271761D01*
X245673428Y-79319380D01*
X245578190Y-79319380D01*
X245435333Y-79271761D01*
X245340095Y-79176523D01*
X245292476Y-79081285D01*
X245244857Y-78890809D01*
X245244857Y-78747952D01*
X245292476Y-78557476D01*
X245340095Y-78462238D01*
X245435333Y-78367000D01*
X245578190Y-78319380D01*
X245673428Y-78319380D01*
X245816285Y-78367000D01*
X245863904Y-78414619D01*
X246244857Y-79271761D02*
X246387714Y-79319380D01*
X246625809Y-79319380D01*
X246721047Y-79271761D01*
X246768666Y-79224142D01*
X246816285Y-79128904D01*
X246816285Y-79033666D01*
X246768666Y-78938428D01*
X246721047Y-78890809D01*
X246625809Y-78843190D01*
X246435333Y-78795571D01*
X246340095Y-78747952D01*
X246292476Y-78700333D01*
X246244857Y-78605095D01*
X246244857Y-78509857D01*
X246292476Y-78414619D01*
X246340095Y-78367000D01*
X246435333Y-78319380D01*
X246673428Y-78319380D01*
X246816285Y-78367000D01*
G04 #@! TO.C,U6*
X264668095Y-71207380D02*
X264668095Y-72016904D01*
X264715714Y-72112142D01*
X264763333Y-72159761D01*
X264858571Y-72207380D01*
X265049047Y-72207380D01*
X265144285Y-72159761D01*
X265191904Y-72112142D01*
X265239523Y-72016904D01*
X265239523Y-71207380D01*
X266144285Y-71207380D02*
X265953809Y-71207380D01*
X265858571Y-71255000D01*
X265810952Y-71302619D01*
X265715714Y-71445476D01*
X265668095Y-71635952D01*
X265668095Y-72016904D01*
X265715714Y-72112142D01*
X265763333Y-72159761D01*
X265858571Y-72207380D01*
X266049047Y-72207380D01*
X266144285Y-72159761D01*
X266191904Y-72112142D01*
X266239523Y-72016904D01*
X266239523Y-71778809D01*
X266191904Y-71683571D01*
X266144285Y-71635952D01*
X266049047Y-71588333D01*
X265858571Y-71588333D01*
X265763333Y-71635952D01*
X265715714Y-71683571D01*
X265668095Y-71778809D01*
X270327714Y-79271761D02*
X270470571Y-79319380D01*
X270708666Y-79319380D01*
X270803904Y-79271761D01*
X270851523Y-79224142D01*
X270899142Y-79128904D01*
X270899142Y-79033666D01*
X270851523Y-78938428D01*
X270803904Y-78890809D01*
X270708666Y-78843190D01*
X270518190Y-78795571D01*
X270422952Y-78747952D01*
X270375333Y-78700333D01*
X270327714Y-78605095D01*
X270327714Y-78509857D01*
X270375333Y-78414619D01*
X270422952Y-78367000D01*
X270518190Y-78319380D01*
X270756285Y-78319380D01*
X270899142Y-78367000D01*
X271327714Y-79319380D02*
X271327714Y-78319380D01*
X271708666Y-78319380D01*
X271803904Y-78367000D01*
X271851523Y-78414619D01*
X271899142Y-78509857D01*
X271899142Y-78652714D01*
X271851523Y-78747952D01*
X271803904Y-78795571D01*
X271708666Y-78843190D01*
X271327714Y-78843190D01*
X272327714Y-78795571D02*
X272661047Y-78795571D01*
X272803904Y-79319380D02*
X272327714Y-79319380D01*
X272327714Y-78319380D01*
X272803904Y-78319380D01*
X273803904Y-79224142D02*
X273756285Y-79271761D01*
X273613428Y-79319380D01*
X273518190Y-79319380D01*
X273375333Y-79271761D01*
X273280095Y-79176523D01*
X273232476Y-79081285D01*
X273184857Y-78890809D01*
X273184857Y-78747952D01*
X273232476Y-78557476D01*
X273280095Y-78462238D01*
X273375333Y-78367000D01*
X273518190Y-78319380D01*
X273613428Y-78319380D01*
X273756285Y-78367000D01*
X273803904Y-78414619D01*
X274184857Y-79271761D02*
X274327714Y-79319380D01*
X274565809Y-79319380D01*
X274661047Y-79271761D01*
X274708666Y-79224142D01*
X274756285Y-79128904D01*
X274756285Y-79033666D01*
X274708666Y-78938428D01*
X274661047Y-78890809D01*
X274565809Y-78843190D01*
X274375333Y-78795571D01*
X274280095Y-78747952D01*
X274232476Y-78700333D01*
X274184857Y-78605095D01*
X274184857Y-78509857D01*
X274232476Y-78414619D01*
X274280095Y-78367000D01*
X274375333Y-78319380D01*
X274613428Y-78319380D01*
X274756285Y-78367000D01*
G04 #@! TO.C,U9*
X277582380Y-60451904D02*
X278391904Y-60451904D01*
X278487142Y-60404285D01*
X278534761Y-60356666D01*
X278582380Y-60261428D01*
X278582380Y-60070952D01*
X278534761Y-59975714D01*
X278487142Y-59928095D01*
X278391904Y-59880476D01*
X277582380Y-59880476D01*
X278582380Y-59356666D02*
X278582380Y-59166190D01*
X278534761Y-59070952D01*
X278487142Y-59023333D01*
X278344285Y-58928095D01*
X278153809Y-58880476D01*
X277772857Y-58880476D01*
X277677619Y-58928095D01*
X277630000Y-58975714D01*
X277582380Y-59070952D01*
X277582380Y-59261428D01*
X277630000Y-59356666D01*
X277677619Y-59404285D01*
X277772857Y-59451904D01*
X278010952Y-59451904D01*
X278106190Y-59404285D01*
X278153809Y-59356666D01*
X278201428Y-59261428D01*
X278201428Y-59070952D01*
X278153809Y-58975714D01*
X278106190Y-58928095D01*
X278010952Y-58880476D01*
X281122380Y-62928095D02*
X280122380Y-62928095D01*
X280836666Y-62594761D01*
X280122380Y-62261428D01*
X281122380Y-62261428D01*
X281027142Y-61213809D02*
X281074761Y-61261428D01*
X281122380Y-61404285D01*
X281122380Y-61499523D01*
X281074761Y-61642380D01*
X280979523Y-61737619D01*
X280884285Y-61785238D01*
X280693809Y-61832857D01*
X280550952Y-61832857D01*
X280360476Y-61785238D01*
X280265238Y-61737619D01*
X280170000Y-61642380D01*
X280122380Y-61499523D01*
X280122380Y-61404285D01*
X280170000Y-61261428D01*
X280217619Y-61213809D01*
X281122380Y-60785238D02*
X280122380Y-60785238D01*
X280122380Y-60404285D01*
X280170000Y-60309047D01*
X280217619Y-60261428D01*
X280312857Y-60213809D01*
X280455714Y-60213809D01*
X280550952Y-60261428D01*
X280598571Y-60309047D01*
X280646190Y-60404285D01*
X280646190Y-60785238D01*
X280122380Y-59356666D02*
X280122380Y-59547142D01*
X280170000Y-59642380D01*
X280217619Y-59690000D01*
X280360476Y-59785238D01*
X280550952Y-59832857D01*
X280931904Y-59832857D01*
X281027142Y-59785238D01*
X281074761Y-59737619D01*
X281122380Y-59642380D01*
X281122380Y-59451904D01*
X281074761Y-59356666D01*
X281027142Y-59309047D01*
X280931904Y-59261428D01*
X280693809Y-59261428D01*
X280598571Y-59309047D01*
X280550952Y-59356666D01*
X280503333Y-59451904D01*
X280503333Y-59642380D01*
X280550952Y-59737619D01*
X280598571Y-59785238D01*
X280693809Y-59832857D01*
X280122380Y-58642380D02*
X280122380Y-58547142D01*
X280170000Y-58451904D01*
X280217619Y-58404285D01*
X280312857Y-58356666D01*
X280503333Y-58309047D01*
X280741428Y-58309047D01*
X280931904Y-58356666D01*
X281027142Y-58404285D01*
X281074761Y-58451904D01*
X281122380Y-58547142D01*
X281122380Y-58642380D01*
X281074761Y-58737619D01*
X281027142Y-58785238D01*
X280931904Y-58832857D01*
X280741428Y-58880476D01*
X280503333Y-58880476D01*
X280312857Y-58832857D01*
X280217619Y-58785238D01*
X280170000Y-58737619D01*
X280122380Y-58642380D01*
X280122380Y-57690000D02*
X280122380Y-57594761D01*
X280170000Y-57499523D01*
X280217619Y-57451904D01*
X280312857Y-57404285D01*
X280503333Y-57356666D01*
X280741428Y-57356666D01*
X280931904Y-57404285D01*
X281027142Y-57451904D01*
X281074761Y-57499523D01*
X281122380Y-57594761D01*
X281122380Y-57690000D01*
X281074761Y-57785238D01*
X281027142Y-57832857D01*
X280931904Y-57880476D01*
X280741428Y-57928095D01*
X280503333Y-57928095D01*
X280312857Y-57880476D01*
X280217619Y-57832857D01*
X280170000Y-57785238D01*
X280122380Y-57690000D01*
X280455714Y-56499523D02*
X281122380Y-56499523D01*
X280074761Y-56737619D02*
X280789047Y-56975714D01*
X280789047Y-56356666D01*
G04 #@! TO.C,U7*
X221702380Y-60451904D02*
X222511904Y-60451904D01*
X222607142Y-60404285D01*
X222654761Y-60356666D01*
X222702380Y-60261428D01*
X222702380Y-60070952D01*
X222654761Y-59975714D01*
X222607142Y-59928095D01*
X222511904Y-59880476D01*
X221702380Y-59880476D01*
X221702380Y-59499523D02*
X221702380Y-58832857D01*
X222702380Y-59261428D01*
X225242380Y-62928095D02*
X224242380Y-62928095D01*
X224956666Y-62594761D01*
X224242380Y-62261428D01*
X225242380Y-62261428D01*
X225147142Y-61213809D02*
X225194761Y-61261428D01*
X225242380Y-61404285D01*
X225242380Y-61499523D01*
X225194761Y-61642380D01*
X225099523Y-61737619D01*
X225004285Y-61785238D01*
X224813809Y-61832857D01*
X224670952Y-61832857D01*
X224480476Y-61785238D01*
X224385238Y-61737619D01*
X224290000Y-61642380D01*
X224242380Y-61499523D01*
X224242380Y-61404285D01*
X224290000Y-61261428D01*
X224337619Y-61213809D01*
X225242380Y-60785238D02*
X224242380Y-60785238D01*
X224242380Y-60404285D01*
X224290000Y-60309047D01*
X224337619Y-60261428D01*
X224432857Y-60213809D01*
X224575714Y-60213809D01*
X224670952Y-60261428D01*
X224718571Y-60309047D01*
X224766190Y-60404285D01*
X224766190Y-60785238D01*
X224242380Y-59356666D02*
X224242380Y-59547142D01*
X224290000Y-59642380D01*
X224337619Y-59690000D01*
X224480476Y-59785238D01*
X224670952Y-59832857D01*
X225051904Y-59832857D01*
X225147142Y-59785238D01*
X225194761Y-59737619D01*
X225242380Y-59642380D01*
X225242380Y-59451904D01*
X225194761Y-59356666D01*
X225147142Y-59309047D01*
X225051904Y-59261428D01*
X224813809Y-59261428D01*
X224718571Y-59309047D01*
X224670952Y-59356666D01*
X224623333Y-59451904D01*
X224623333Y-59642380D01*
X224670952Y-59737619D01*
X224718571Y-59785238D01*
X224813809Y-59832857D01*
X224242380Y-58642380D02*
X224242380Y-58547142D01*
X224290000Y-58451904D01*
X224337619Y-58404285D01*
X224432857Y-58356666D01*
X224623333Y-58309047D01*
X224861428Y-58309047D01*
X225051904Y-58356666D01*
X225147142Y-58404285D01*
X225194761Y-58451904D01*
X225242380Y-58547142D01*
X225242380Y-58642380D01*
X225194761Y-58737619D01*
X225147142Y-58785238D01*
X225051904Y-58832857D01*
X224861428Y-58880476D01*
X224623333Y-58880476D01*
X224432857Y-58832857D01*
X224337619Y-58785238D01*
X224290000Y-58737619D01*
X224242380Y-58642380D01*
X224242380Y-57690000D02*
X224242380Y-57594761D01*
X224290000Y-57499523D01*
X224337619Y-57451904D01*
X224432857Y-57404285D01*
X224623333Y-57356666D01*
X224861428Y-57356666D01*
X225051904Y-57404285D01*
X225147142Y-57451904D01*
X225194761Y-57499523D01*
X225242380Y-57594761D01*
X225242380Y-57690000D01*
X225194761Y-57785238D01*
X225147142Y-57832857D01*
X225051904Y-57880476D01*
X224861428Y-57928095D01*
X224623333Y-57928095D01*
X224432857Y-57880476D01*
X224337619Y-57832857D01*
X224290000Y-57785238D01*
X224242380Y-57690000D01*
X224575714Y-56499523D02*
X225242380Y-56499523D01*
X224194761Y-56737619D02*
X224909047Y-56975714D01*
X224909047Y-56356666D01*
G04 #@! TO.C,U8*
X249642380Y-60451904D02*
X250451904Y-60451904D01*
X250547142Y-60404285D01*
X250594761Y-60356666D01*
X250642380Y-60261428D01*
X250642380Y-60070952D01*
X250594761Y-59975714D01*
X250547142Y-59928095D01*
X250451904Y-59880476D01*
X249642380Y-59880476D01*
X250070952Y-59261428D02*
X250023333Y-59356666D01*
X249975714Y-59404285D01*
X249880476Y-59451904D01*
X249832857Y-59451904D01*
X249737619Y-59404285D01*
X249690000Y-59356666D01*
X249642380Y-59261428D01*
X249642380Y-59070952D01*
X249690000Y-58975714D01*
X249737619Y-58928095D01*
X249832857Y-58880476D01*
X249880476Y-58880476D01*
X249975714Y-58928095D01*
X250023333Y-58975714D01*
X250070952Y-59070952D01*
X250070952Y-59261428D01*
X250118571Y-59356666D01*
X250166190Y-59404285D01*
X250261428Y-59451904D01*
X250451904Y-59451904D01*
X250547142Y-59404285D01*
X250594761Y-59356666D01*
X250642380Y-59261428D01*
X250642380Y-59070952D01*
X250594761Y-58975714D01*
X250547142Y-58928095D01*
X250451904Y-58880476D01*
X250261428Y-58880476D01*
X250166190Y-58928095D01*
X250118571Y-58975714D01*
X250070952Y-59070952D01*
X253182380Y-62928095D02*
X252182380Y-62928095D01*
X252896666Y-62594761D01*
X252182380Y-62261428D01*
X253182380Y-62261428D01*
X253087142Y-61213809D02*
X253134761Y-61261428D01*
X253182380Y-61404285D01*
X253182380Y-61499523D01*
X253134761Y-61642380D01*
X253039523Y-61737619D01*
X252944285Y-61785238D01*
X252753809Y-61832857D01*
X252610952Y-61832857D01*
X252420476Y-61785238D01*
X252325238Y-61737619D01*
X252230000Y-61642380D01*
X252182380Y-61499523D01*
X252182380Y-61404285D01*
X252230000Y-61261428D01*
X252277619Y-61213809D01*
X253182380Y-60785238D02*
X252182380Y-60785238D01*
X252182380Y-60404285D01*
X252230000Y-60309047D01*
X252277619Y-60261428D01*
X252372857Y-60213809D01*
X252515714Y-60213809D01*
X252610952Y-60261428D01*
X252658571Y-60309047D01*
X252706190Y-60404285D01*
X252706190Y-60785238D01*
X252182380Y-59356666D02*
X252182380Y-59547142D01*
X252230000Y-59642380D01*
X252277619Y-59690000D01*
X252420476Y-59785238D01*
X252610952Y-59832857D01*
X252991904Y-59832857D01*
X253087142Y-59785238D01*
X253134761Y-59737619D01*
X253182380Y-59642380D01*
X253182380Y-59451904D01*
X253134761Y-59356666D01*
X253087142Y-59309047D01*
X252991904Y-59261428D01*
X252753809Y-59261428D01*
X252658571Y-59309047D01*
X252610952Y-59356666D01*
X252563333Y-59451904D01*
X252563333Y-59642380D01*
X252610952Y-59737619D01*
X252658571Y-59785238D01*
X252753809Y-59832857D01*
X252182380Y-58642380D02*
X252182380Y-58547142D01*
X252230000Y-58451904D01*
X252277619Y-58404285D01*
X252372857Y-58356666D01*
X252563333Y-58309047D01*
X252801428Y-58309047D01*
X252991904Y-58356666D01*
X253087142Y-58404285D01*
X253134761Y-58451904D01*
X253182380Y-58547142D01*
X253182380Y-58642380D01*
X253134761Y-58737619D01*
X253087142Y-58785238D01*
X252991904Y-58832857D01*
X252801428Y-58880476D01*
X252563333Y-58880476D01*
X252372857Y-58832857D01*
X252277619Y-58785238D01*
X252230000Y-58737619D01*
X252182380Y-58642380D01*
X252182380Y-57690000D02*
X252182380Y-57594761D01*
X252230000Y-57499523D01*
X252277619Y-57451904D01*
X252372857Y-57404285D01*
X252563333Y-57356666D01*
X252801428Y-57356666D01*
X252991904Y-57404285D01*
X253087142Y-57451904D01*
X253134761Y-57499523D01*
X253182380Y-57594761D01*
X253182380Y-57690000D01*
X253134761Y-57785238D01*
X253087142Y-57832857D01*
X252991904Y-57880476D01*
X252801428Y-57928095D01*
X252563333Y-57928095D01*
X252372857Y-57880476D01*
X252277619Y-57832857D01*
X252230000Y-57785238D01*
X252182380Y-57690000D01*
X252515714Y-56499523D02*
X253182380Y-56499523D01*
X252134761Y-56737619D02*
X252849047Y-56975714D01*
X252849047Y-56356666D01*
G04 #@! TO.C,R1*
D13*
X215935862Y-56598396D02*
X215697586Y-56765190D01*
X215935862Y-56884328D02*
X215435482Y-56884328D01*
X215435482Y-56693707D01*
X215459310Y-56646051D01*
X215483137Y-56622224D01*
X215530792Y-56598396D01*
X215602275Y-56598396D01*
X215649930Y-56622224D01*
X215673758Y-56646051D01*
X215697586Y-56693707D01*
X215697586Y-56884328D01*
X215935862Y-56121844D02*
X215935862Y-56407775D01*
X215935862Y-56264810D02*
X215435482Y-56264810D01*
X215506965Y-56312465D01*
X215554620Y-56360120D01*
X215578448Y-56407775D01*
X216634362Y-56360120D02*
X216396086Y-56526913D01*
X216634362Y-56646051D02*
X216133982Y-56646051D01*
X216133982Y-56455430D01*
X216157810Y-56407775D01*
X216181637Y-56383948D01*
X216229292Y-56360120D01*
X216300775Y-56360120D01*
X216348430Y-56383948D01*
X216372258Y-56407775D01*
X216396086Y-56455430D01*
X216396086Y-56646051D01*
G04 #@! TO.C,R8*
X231556862Y-62948396D02*
X231318586Y-63115190D01*
X231556862Y-63234328D02*
X231056482Y-63234328D01*
X231056482Y-63043707D01*
X231080310Y-62996051D01*
X231104137Y-62972224D01*
X231151792Y-62948396D01*
X231223275Y-62948396D01*
X231270930Y-62972224D01*
X231294758Y-62996051D01*
X231318586Y-63043707D01*
X231318586Y-63234328D01*
X231270930Y-62662465D02*
X231247103Y-62710120D01*
X231223275Y-62733948D01*
X231175620Y-62757775D01*
X231151792Y-62757775D01*
X231104137Y-62733948D01*
X231080310Y-62710120D01*
X231056482Y-62662465D01*
X231056482Y-62567154D01*
X231080310Y-62519499D01*
X231104137Y-62495671D01*
X231151792Y-62471844D01*
X231175620Y-62471844D01*
X231223275Y-62495671D01*
X231247103Y-62519499D01*
X231270930Y-62567154D01*
X231270930Y-62662465D01*
X231294758Y-62710120D01*
X231318586Y-62733948D01*
X231366241Y-62757775D01*
X231461551Y-62757775D01*
X231509207Y-62733948D01*
X231533034Y-62710120D01*
X231556862Y-62662465D01*
X231556862Y-62567154D01*
X231533034Y-62519499D01*
X231509207Y-62495671D01*
X231461551Y-62471844D01*
X231366241Y-62471844D01*
X231318586Y-62495671D01*
X231294758Y-62519499D01*
X231270930Y-62567154D01*
X230858362Y-62710120D02*
X230620086Y-62876913D01*
X230858362Y-62996051D02*
X230357982Y-62996051D01*
X230357982Y-62805430D01*
X230381810Y-62757775D01*
X230405637Y-62733948D01*
X230453292Y-62710120D01*
X230524775Y-62710120D01*
X230572430Y-62733948D01*
X230596258Y-62757775D01*
X230620086Y-62805430D01*
X230620086Y-62996051D01*
G04 #@! TO.C,R3*
X223436603Y-50708862D02*
X223269810Y-50470586D01*
X223150671Y-50708862D02*
X223150671Y-50208482D01*
X223341292Y-50208482D01*
X223388948Y-50232310D01*
X223412775Y-50256137D01*
X223436603Y-50303792D01*
X223436603Y-50375275D01*
X223412775Y-50422930D01*
X223388948Y-50446758D01*
X223341292Y-50470586D01*
X223150671Y-50470586D01*
X223603396Y-50208482D02*
X223913155Y-50208482D01*
X223746362Y-50399103D01*
X223817845Y-50399103D01*
X223865500Y-50422930D01*
X223889328Y-50446758D01*
X223913155Y-50494413D01*
X223913155Y-50613551D01*
X223889328Y-50661207D01*
X223865500Y-50685034D01*
X223817845Y-50708862D01*
X223674879Y-50708862D01*
X223627224Y-50685034D01*
X223603396Y-50661207D01*
X223674879Y-51407362D02*
X223508086Y-51169086D01*
X223388948Y-51407362D02*
X223388948Y-50906982D01*
X223579569Y-50906982D01*
X223627224Y-50930810D01*
X223651051Y-50954637D01*
X223674879Y-51002292D01*
X223674879Y-51073775D01*
X223651051Y-51121430D01*
X223627224Y-51145258D01*
X223579569Y-51169086D01*
X223388948Y-51169086D01*
G04 #@! TO.C,R4*
X223436603Y-53248862D02*
X223269810Y-53010586D01*
X223150671Y-53248862D02*
X223150671Y-52748482D01*
X223341292Y-52748482D01*
X223388948Y-52772310D01*
X223412775Y-52796137D01*
X223436603Y-52843792D01*
X223436603Y-52915275D01*
X223412775Y-52962930D01*
X223388948Y-52986758D01*
X223341292Y-53010586D01*
X223150671Y-53010586D01*
X223865500Y-52915275D02*
X223865500Y-53248862D01*
X223746362Y-52724654D02*
X223627224Y-53082069D01*
X223936983Y-53082069D01*
X223674879Y-53947362D02*
X223508086Y-53709086D01*
X223388948Y-53947362D02*
X223388948Y-53446982D01*
X223579569Y-53446982D01*
X223627224Y-53470810D01*
X223651051Y-53494637D01*
X223674879Y-53542292D01*
X223674879Y-53613775D01*
X223651051Y-53661430D01*
X223627224Y-53685258D01*
X223579569Y-53709086D01*
X223388948Y-53709086D01*
G04 #@! TO.C,R2*
X223436603Y-48168862D02*
X223269810Y-47930586D01*
X223150671Y-48168862D02*
X223150671Y-47668482D01*
X223341292Y-47668482D01*
X223388948Y-47692310D01*
X223412775Y-47716137D01*
X223436603Y-47763792D01*
X223436603Y-47835275D01*
X223412775Y-47882930D01*
X223388948Y-47906758D01*
X223341292Y-47930586D01*
X223150671Y-47930586D01*
X223627224Y-47716137D02*
X223651051Y-47692310D01*
X223698707Y-47668482D01*
X223817845Y-47668482D01*
X223865500Y-47692310D01*
X223889328Y-47716137D01*
X223913155Y-47763792D01*
X223913155Y-47811448D01*
X223889328Y-47882930D01*
X223603396Y-48168862D01*
X223913155Y-48168862D01*
X223674879Y-48867362D02*
X223508086Y-48629086D01*
X223388948Y-48867362D02*
X223388948Y-48366982D01*
X223579569Y-48366982D01*
X223627224Y-48390810D01*
X223651051Y-48414637D01*
X223674879Y-48462292D01*
X223674879Y-48533775D01*
X223651051Y-48581430D01*
X223627224Y-48605258D01*
X223579569Y-48629086D01*
X223388948Y-48629086D01*
G04 #@! TO.C,R6*
X223436603Y-68488862D02*
X223269810Y-68250586D01*
X223150671Y-68488862D02*
X223150671Y-67988482D01*
X223341292Y-67988482D01*
X223388948Y-68012310D01*
X223412775Y-68036137D01*
X223436603Y-68083792D01*
X223436603Y-68155275D01*
X223412775Y-68202930D01*
X223388948Y-68226758D01*
X223341292Y-68250586D01*
X223150671Y-68250586D01*
X223865500Y-67988482D02*
X223770190Y-67988482D01*
X223722534Y-68012310D01*
X223698707Y-68036137D01*
X223651051Y-68107620D01*
X223627224Y-68202930D01*
X223627224Y-68393551D01*
X223651051Y-68441207D01*
X223674879Y-68465034D01*
X223722534Y-68488862D01*
X223817845Y-68488862D01*
X223865500Y-68465034D01*
X223889328Y-68441207D01*
X223913155Y-68393551D01*
X223913155Y-68274413D01*
X223889328Y-68226758D01*
X223865500Y-68202930D01*
X223817845Y-68179103D01*
X223722534Y-68179103D01*
X223674879Y-68202930D01*
X223651051Y-68226758D01*
X223627224Y-68274413D01*
X223674879Y-69187362D02*
X223508086Y-68949086D01*
X223388948Y-69187362D02*
X223388948Y-68686982D01*
X223579569Y-68686982D01*
X223627224Y-68710810D01*
X223651051Y-68734637D01*
X223674879Y-68782292D01*
X223674879Y-68853775D01*
X223651051Y-68901430D01*
X223627224Y-68925258D01*
X223579569Y-68949086D01*
X223388948Y-68949086D01*
G04 #@! TO.C,R5*
X223436603Y-65948862D02*
X223269810Y-65710586D01*
X223150671Y-65948862D02*
X223150671Y-65448482D01*
X223341292Y-65448482D01*
X223388948Y-65472310D01*
X223412775Y-65496137D01*
X223436603Y-65543792D01*
X223436603Y-65615275D01*
X223412775Y-65662930D01*
X223388948Y-65686758D01*
X223341292Y-65710586D01*
X223150671Y-65710586D01*
X223889328Y-65448482D02*
X223651051Y-65448482D01*
X223627224Y-65686758D01*
X223651051Y-65662930D01*
X223698707Y-65639103D01*
X223817845Y-65639103D01*
X223865500Y-65662930D01*
X223889328Y-65686758D01*
X223913155Y-65734413D01*
X223913155Y-65853551D01*
X223889328Y-65901207D01*
X223865500Y-65925034D01*
X223817845Y-65948862D01*
X223698707Y-65948862D01*
X223651051Y-65925034D01*
X223627224Y-65901207D01*
X223674879Y-66647362D02*
X223508086Y-66409086D01*
X223388948Y-66647362D02*
X223388948Y-66146982D01*
X223579569Y-66146982D01*
X223627224Y-66170810D01*
X223651051Y-66194637D01*
X223674879Y-66242292D01*
X223674879Y-66313775D01*
X223651051Y-66361430D01*
X223627224Y-66385258D01*
X223579569Y-66409086D01*
X223388948Y-66409086D01*
G04 #@! TO.C,R7*
X223436603Y-71028862D02*
X223269810Y-70790586D01*
X223150671Y-71028862D02*
X223150671Y-70528482D01*
X223341292Y-70528482D01*
X223388948Y-70552310D01*
X223412775Y-70576137D01*
X223436603Y-70623792D01*
X223436603Y-70695275D01*
X223412775Y-70742930D01*
X223388948Y-70766758D01*
X223341292Y-70790586D01*
X223150671Y-70790586D01*
X223603396Y-70528482D02*
X223936983Y-70528482D01*
X223722534Y-71028862D01*
X223674879Y-71727362D02*
X223508086Y-71489086D01*
X223388948Y-71727362D02*
X223388948Y-71226982D01*
X223579569Y-71226982D01*
X223627224Y-71250810D01*
X223651051Y-71274637D01*
X223674879Y-71322292D01*
X223674879Y-71393775D01*
X223651051Y-71441430D01*
X223627224Y-71465258D01*
X223579569Y-71489086D01*
X223388948Y-71489086D01*
G04 #@! TO.C,R9*
X243875862Y-56598396D02*
X243637586Y-56765190D01*
X243875862Y-56884328D02*
X243375482Y-56884328D01*
X243375482Y-56693707D01*
X243399310Y-56646051D01*
X243423137Y-56622224D01*
X243470792Y-56598396D01*
X243542275Y-56598396D01*
X243589930Y-56622224D01*
X243613758Y-56646051D01*
X243637586Y-56693707D01*
X243637586Y-56884328D01*
X243875862Y-56360120D02*
X243875862Y-56264810D01*
X243852034Y-56217154D01*
X243828207Y-56193327D01*
X243756724Y-56145671D01*
X243661413Y-56121844D01*
X243470792Y-56121844D01*
X243423137Y-56145671D01*
X243399310Y-56169499D01*
X243375482Y-56217154D01*
X243375482Y-56312465D01*
X243399310Y-56360120D01*
X243423137Y-56383948D01*
X243470792Y-56407775D01*
X243589930Y-56407775D01*
X243637586Y-56383948D01*
X243661413Y-56360120D01*
X243685241Y-56312465D01*
X243685241Y-56217154D01*
X243661413Y-56169499D01*
X243637586Y-56145671D01*
X243589930Y-56121844D01*
X244574362Y-56360120D02*
X244336086Y-56526913D01*
X244574362Y-56646051D02*
X244073982Y-56646051D01*
X244073982Y-56455430D01*
X244097810Y-56407775D01*
X244121637Y-56383948D01*
X244169292Y-56360120D01*
X244240775Y-56360120D01*
X244288430Y-56383948D01*
X244312258Y-56407775D01*
X244336086Y-56455430D01*
X244336086Y-56646051D01*
G04 #@! TO.C,R16*
X259496862Y-63186672D02*
X259258586Y-63353466D01*
X259496862Y-63472604D02*
X258996482Y-63472604D01*
X258996482Y-63281983D01*
X259020310Y-63234328D01*
X259044137Y-63210500D01*
X259091792Y-63186672D01*
X259163275Y-63186672D01*
X259210930Y-63210500D01*
X259234758Y-63234328D01*
X259258586Y-63281983D01*
X259258586Y-63472604D01*
X259496862Y-62710120D02*
X259496862Y-62996051D01*
X259496862Y-62853086D02*
X258996482Y-62853086D01*
X259067965Y-62900741D01*
X259115620Y-62948396D01*
X259139448Y-62996051D01*
X258996482Y-62281223D02*
X258996482Y-62376533D01*
X259020310Y-62424189D01*
X259044137Y-62448016D01*
X259115620Y-62495671D01*
X259210930Y-62519499D01*
X259401551Y-62519499D01*
X259449207Y-62495671D01*
X259473034Y-62471844D01*
X259496862Y-62424189D01*
X259496862Y-62328878D01*
X259473034Y-62281223D01*
X259449207Y-62257395D01*
X259401551Y-62233568D01*
X259282413Y-62233568D01*
X259234758Y-62257395D01*
X259210930Y-62281223D01*
X259187103Y-62328878D01*
X259187103Y-62424189D01*
X259210930Y-62471844D01*
X259234758Y-62495671D01*
X259282413Y-62519499D01*
X258798362Y-62710120D02*
X258560086Y-62876913D01*
X258798362Y-62996051D02*
X258297982Y-62996051D01*
X258297982Y-62805430D01*
X258321810Y-62757775D01*
X258345637Y-62733948D01*
X258393292Y-62710120D01*
X258464775Y-62710120D01*
X258512430Y-62733948D01*
X258536258Y-62757775D01*
X258560086Y-62805430D01*
X258560086Y-62996051D01*
G04 #@! TO.C,R11*
X251138327Y-50708862D02*
X250971533Y-50470586D01*
X250852395Y-50708862D02*
X250852395Y-50208482D01*
X251043016Y-50208482D01*
X251090671Y-50232310D01*
X251114499Y-50256137D01*
X251138327Y-50303792D01*
X251138327Y-50375275D01*
X251114499Y-50422930D01*
X251090671Y-50446758D01*
X251043016Y-50470586D01*
X250852395Y-50470586D01*
X251614879Y-50708862D02*
X251328948Y-50708862D01*
X251471913Y-50708862D02*
X251471913Y-50208482D01*
X251424258Y-50279965D01*
X251376603Y-50327620D01*
X251328948Y-50351448D01*
X252091431Y-50708862D02*
X251805500Y-50708862D01*
X251948466Y-50708862D02*
X251948466Y-50208482D01*
X251900810Y-50279965D01*
X251853155Y-50327620D01*
X251805500Y-50351448D01*
X251614879Y-51407362D02*
X251448086Y-51169086D01*
X251328948Y-51407362D02*
X251328948Y-50906982D01*
X251519569Y-50906982D01*
X251567224Y-50930810D01*
X251591051Y-50954637D01*
X251614879Y-51002292D01*
X251614879Y-51073775D01*
X251591051Y-51121430D01*
X251567224Y-51145258D01*
X251519569Y-51169086D01*
X251328948Y-51169086D01*
G04 #@! TO.C,R12*
X251138327Y-53248862D02*
X250971533Y-53010586D01*
X250852395Y-53248862D02*
X250852395Y-52748482D01*
X251043016Y-52748482D01*
X251090671Y-52772310D01*
X251114499Y-52796137D01*
X251138327Y-52843792D01*
X251138327Y-52915275D01*
X251114499Y-52962930D01*
X251090671Y-52986758D01*
X251043016Y-53010586D01*
X250852395Y-53010586D01*
X251614879Y-53248862D02*
X251328948Y-53248862D01*
X251471913Y-53248862D02*
X251471913Y-52748482D01*
X251424258Y-52819965D01*
X251376603Y-52867620D01*
X251328948Y-52891448D01*
X251805500Y-52796137D02*
X251829328Y-52772310D01*
X251876983Y-52748482D01*
X251996121Y-52748482D01*
X252043776Y-52772310D01*
X252067604Y-52796137D01*
X252091431Y-52843792D01*
X252091431Y-52891448D01*
X252067604Y-52962930D01*
X251781672Y-53248862D01*
X252091431Y-53248862D01*
X251614879Y-53947362D02*
X251448086Y-53709086D01*
X251328948Y-53947362D02*
X251328948Y-53446982D01*
X251519569Y-53446982D01*
X251567224Y-53470810D01*
X251591051Y-53494637D01*
X251614879Y-53542292D01*
X251614879Y-53613775D01*
X251591051Y-53661430D01*
X251567224Y-53685258D01*
X251519569Y-53709086D01*
X251328948Y-53709086D01*
G04 #@! TO.C,R10*
X251138327Y-48168862D02*
X250971533Y-47930586D01*
X250852395Y-48168862D02*
X250852395Y-47668482D01*
X251043016Y-47668482D01*
X251090671Y-47692310D01*
X251114499Y-47716137D01*
X251138327Y-47763792D01*
X251138327Y-47835275D01*
X251114499Y-47882930D01*
X251090671Y-47906758D01*
X251043016Y-47930586D01*
X250852395Y-47930586D01*
X251614879Y-48168862D02*
X251328948Y-48168862D01*
X251471913Y-48168862D02*
X251471913Y-47668482D01*
X251424258Y-47739965D01*
X251376603Y-47787620D01*
X251328948Y-47811448D01*
X251924638Y-47668482D02*
X251972293Y-47668482D01*
X252019949Y-47692310D01*
X252043776Y-47716137D01*
X252067604Y-47763792D01*
X252091431Y-47859103D01*
X252091431Y-47978241D01*
X252067604Y-48073551D01*
X252043776Y-48121207D01*
X252019949Y-48145034D01*
X251972293Y-48168862D01*
X251924638Y-48168862D01*
X251876983Y-48145034D01*
X251853155Y-48121207D01*
X251829328Y-48073551D01*
X251805500Y-47978241D01*
X251805500Y-47859103D01*
X251829328Y-47763792D01*
X251853155Y-47716137D01*
X251876983Y-47692310D01*
X251924638Y-47668482D01*
X251614879Y-48867362D02*
X251448086Y-48629086D01*
X251328948Y-48867362D02*
X251328948Y-48366982D01*
X251519569Y-48366982D01*
X251567224Y-48390810D01*
X251591051Y-48414637D01*
X251614879Y-48462292D01*
X251614879Y-48533775D01*
X251591051Y-48581430D01*
X251567224Y-48605258D01*
X251519569Y-48629086D01*
X251328948Y-48629086D01*
G04 #@! TO.C,R14*
X251138327Y-68488862D02*
X250971533Y-68250586D01*
X250852395Y-68488862D02*
X250852395Y-67988482D01*
X251043016Y-67988482D01*
X251090671Y-68012310D01*
X251114499Y-68036137D01*
X251138327Y-68083792D01*
X251138327Y-68155275D01*
X251114499Y-68202930D01*
X251090671Y-68226758D01*
X251043016Y-68250586D01*
X250852395Y-68250586D01*
X251614879Y-68488862D02*
X251328948Y-68488862D01*
X251471913Y-68488862D02*
X251471913Y-67988482D01*
X251424258Y-68059965D01*
X251376603Y-68107620D01*
X251328948Y-68131448D01*
X252043776Y-68155275D02*
X252043776Y-68488862D01*
X251924638Y-67964654D02*
X251805500Y-68322069D01*
X252115259Y-68322069D01*
X251614879Y-69187362D02*
X251448086Y-68949086D01*
X251328948Y-69187362D02*
X251328948Y-68686982D01*
X251519569Y-68686982D01*
X251567224Y-68710810D01*
X251591051Y-68734637D01*
X251614879Y-68782292D01*
X251614879Y-68853775D01*
X251591051Y-68901430D01*
X251567224Y-68925258D01*
X251519569Y-68949086D01*
X251328948Y-68949086D01*
G04 #@! TO.C,R13*
X251138327Y-65948862D02*
X250971533Y-65710586D01*
X250852395Y-65948862D02*
X250852395Y-65448482D01*
X251043016Y-65448482D01*
X251090671Y-65472310D01*
X251114499Y-65496137D01*
X251138327Y-65543792D01*
X251138327Y-65615275D01*
X251114499Y-65662930D01*
X251090671Y-65686758D01*
X251043016Y-65710586D01*
X250852395Y-65710586D01*
X251614879Y-65948862D02*
X251328948Y-65948862D01*
X251471913Y-65948862D02*
X251471913Y-65448482D01*
X251424258Y-65519965D01*
X251376603Y-65567620D01*
X251328948Y-65591448D01*
X251781672Y-65448482D02*
X252091431Y-65448482D01*
X251924638Y-65639103D01*
X251996121Y-65639103D01*
X252043776Y-65662930D01*
X252067604Y-65686758D01*
X252091431Y-65734413D01*
X252091431Y-65853551D01*
X252067604Y-65901207D01*
X252043776Y-65925034D01*
X251996121Y-65948862D01*
X251853155Y-65948862D01*
X251805500Y-65925034D01*
X251781672Y-65901207D01*
X251614879Y-66647362D02*
X251448086Y-66409086D01*
X251328948Y-66647362D02*
X251328948Y-66146982D01*
X251519569Y-66146982D01*
X251567224Y-66170810D01*
X251591051Y-66194637D01*
X251614879Y-66242292D01*
X251614879Y-66313775D01*
X251591051Y-66361430D01*
X251567224Y-66385258D01*
X251519569Y-66409086D01*
X251328948Y-66409086D01*
G04 #@! TO.C,R15*
X251138327Y-71028862D02*
X250971533Y-70790586D01*
X250852395Y-71028862D02*
X250852395Y-70528482D01*
X251043016Y-70528482D01*
X251090671Y-70552310D01*
X251114499Y-70576137D01*
X251138327Y-70623792D01*
X251138327Y-70695275D01*
X251114499Y-70742930D01*
X251090671Y-70766758D01*
X251043016Y-70790586D01*
X250852395Y-70790586D01*
X251614879Y-71028862D02*
X251328948Y-71028862D01*
X251471913Y-71028862D02*
X251471913Y-70528482D01*
X251424258Y-70599965D01*
X251376603Y-70647620D01*
X251328948Y-70671448D01*
X252067604Y-70528482D02*
X251829328Y-70528482D01*
X251805500Y-70766758D01*
X251829328Y-70742930D01*
X251876983Y-70719103D01*
X251996121Y-70719103D01*
X252043776Y-70742930D01*
X252067604Y-70766758D01*
X252091431Y-70814413D01*
X252091431Y-70933551D01*
X252067604Y-70981207D01*
X252043776Y-71005034D01*
X251996121Y-71028862D01*
X251876983Y-71028862D01*
X251829328Y-71005034D01*
X251805500Y-70981207D01*
X251614879Y-71727362D02*
X251448086Y-71489086D01*
X251328948Y-71727362D02*
X251328948Y-71226982D01*
X251519569Y-71226982D01*
X251567224Y-71250810D01*
X251591051Y-71274637D01*
X251614879Y-71322292D01*
X251614879Y-71393775D01*
X251591051Y-71441430D01*
X251567224Y-71465258D01*
X251519569Y-71489086D01*
X251328948Y-71489086D01*
G04 #@! TO.C,R17*
X271815862Y-56836672D02*
X271577586Y-57003466D01*
X271815862Y-57122604D02*
X271315482Y-57122604D01*
X271315482Y-56931983D01*
X271339310Y-56884328D01*
X271363137Y-56860500D01*
X271410792Y-56836672D01*
X271482275Y-56836672D01*
X271529930Y-56860500D01*
X271553758Y-56884328D01*
X271577586Y-56931983D01*
X271577586Y-57122604D01*
X271815862Y-56360120D02*
X271815862Y-56646051D01*
X271815862Y-56503086D02*
X271315482Y-56503086D01*
X271386965Y-56550741D01*
X271434620Y-56598396D01*
X271458448Y-56646051D01*
X271315482Y-56193327D02*
X271315482Y-55859740D01*
X271815862Y-56074189D01*
X272514362Y-56360120D02*
X272276086Y-56526913D01*
X272514362Y-56646051D02*
X272013982Y-56646051D01*
X272013982Y-56455430D01*
X272037810Y-56407775D01*
X272061637Y-56383948D01*
X272109292Y-56360120D01*
X272180775Y-56360120D01*
X272228430Y-56383948D01*
X272252258Y-56407775D01*
X272276086Y-56455430D01*
X272276086Y-56646051D01*
G04 #@! TO.C,R24*
X287436862Y-63186672D02*
X287198586Y-63353466D01*
X287436862Y-63472604D02*
X286936482Y-63472604D01*
X286936482Y-63281983D01*
X286960310Y-63234328D01*
X286984137Y-63210500D01*
X287031792Y-63186672D01*
X287103275Y-63186672D01*
X287150930Y-63210500D01*
X287174758Y-63234328D01*
X287198586Y-63281983D01*
X287198586Y-63472604D01*
X286984137Y-62996051D02*
X286960310Y-62972224D01*
X286936482Y-62924569D01*
X286936482Y-62805430D01*
X286960310Y-62757775D01*
X286984137Y-62733948D01*
X287031792Y-62710120D01*
X287079448Y-62710120D01*
X287150930Y-62733948D01*
X287436862Y-63019879D01*
X287436862Y-62710120D01*
X287103275Y-62281223D02*
X287436862Y-62281223D01*
X286912654Y-62400361D02*
X287270069Y-62519499D01*
X287270069Y-62209740D01*
X286738362Y-62710120D02*
X286500086Y-62876913D01*
X286738362Y-62996051D02*
X286237982Y-62996051D01*
X286237982Y-62805430D01*
X286261810Y-62757775D01*
X286285637Y-62733948D01*
X286333292Y-62710120D01*
X286404775Y-62710120D01*
X286452430Y-62733948D01*
X286476258Y-62757775D01*
X286500086Y-62805430D01*
X286500086Y-62996051D01*
G04 #@! TO.C,R19*
X279078327Y-50708862D02*
X278911533Y-50470586D01*
X278792395Y-50708862D02*
X278792395Y-50208482D01*
X278983016Y-50208482D01*
X279030671Y-50232310D01*
X279054499Y-50256137D01*
X279078327Y-50303792D01*
X279078327Y-50375275D01*
X279054499Y-50422930D01*
X279030671Y-50446758D01*
X278983016Y-50470586D01*
X278792395Y-50470586D01*
X279554879Y-50708862D02*
X279268948Y-50708862D01*
X279411913Y-50708862D02*
X279411913Y-50208482D01*
X279364258Y-50279965D01*
X279316603Y-50327620D01*
X279268948Y-50351448D01*
X279793155Y-50708862D02*
X279888466Y-50708862D01*
X279936121Y-50685034D01*
X279959949Y-50661207D01*
X280007604Y-50589724D01*
X280031431Y-50494413D01*
X280031431Y-50303792D01*
X280007604Y-50256137D01*
X279983776Y-50232310D01*
X279936121Y-50208482D01*
X279840810Y-50208482D01*
X279793155Y-50232310D01*
X279769328Y-50256137D01*
X279745500Y-50303792D01*
X279745500Y-50422930D01*
X279769328Y-50470586D01*
X279793155Y-50494413D01*
X279840810Y-50518241D01*
X279936121Y-50518241D01*
X279983776Y-50494413D01*
X280007604Y-50470586D01*
X280031431Y-50422930D01*
X279554879Y-51407362D02*
X279388086Y-51169086D01*
X279268948Y-51407362D02*
X279268948Y-50906982D01*
X279459569Y-50906982D01*
X279507224Y-50930810D01*
X279531051Y-50954637D01*
X279554879Y-51002292D01*
X279554879Y-51073775D01*
X279531051Y-51121430D01*
X279507224Y-51145258D01*
X279459569Y-51169086D01*
X279268948Y-51169086D01*
G04 #@! TO.C,R20*
X279078327Y-53248862D02*
X278911533Y-53010586D01*
X278792395Y-53248862D02*
X278792395Y-52748482D01*
X278983016Y-52748482D01*
X279030671Y-52772310D01*
X279054499Y-52796137D01*
X279078327Y-52843792D01*
X279078327Y-52915275D01*
X279054499Y-52962930D01*
X279030671Y-52986758D01*
X278983016Y-53010586D01*
X278792395Y-53010586D01*
X279268948Y-52796137D02*
X279292775Y-52772310D01*
X279340430Y-52748482D01*
X279459569Y-52748482D01*
X279507224Y-52772310D01*
X279531051Y-52796137D01*
X279554879Y-52843792D01*
X279554879Y-52891448D01*
X279531051Y-52962930D01*
X279245120Y-53248862D01*
X279554879Y-53248862D01*
X279864638Y-52748482D02*
X279912293Y-52748482D01*
X279959949Y-52772310D01*
X279983776Y-52796137D01*
X280007604Y-52843792D01*
X280031431Y-52939103D01*
X280031431Y-53058241D01*
X280007604Y-53153551D01*
X279983776Y-53201207D01*
X279959949Y-53225034D01*
X279912293Y-53248862D01*
X279864638Y-53248862D01*
X279816983Y-53225034D01*
X279793155Y-53201207D01*
X279769328Y-53153551D01*
X279745500Y-53058241D01*
X279745500Y-52939103D01*
X279769328Y-52843792D01*
X279793155Y-52796137D01*
X279816983Y-52772310D01*
X279864638Y-52748482D01*
X279554879Y-53947362D02*
X279388086Y-53709086D01*
X279268948Y-53947362D02*
X279268948Y-53446982D01*
X279459569Y-53446982D01*
X279507224Y-53470810D01*
X279531051Y-53494637D01*
X279554879Y-53542292D01*
X279554879Y-53613775D01*
X279531051Y-53661430D01*
X279507224Y-53685258D01*
X279459569Y-53709086D01*
X279268948Y-53709086D01*
G04 #@! TO.C,R18*
X279078327Y-48168862D02*
X278911533Y-47930586D01*
X278792395Y-48168862D02*
X278792395Y-47668482D01*
X278983016Y-47668482D01*
X279030671Y-47692310D01*
X279054499Y-47716137D01*
X279078327Y-47763792D01*
X279078327Y-47835275D01*
X279054499Y-47882930D01*
X279030671Y-47906758D01*
X278983016Y-47930586D01*
X278792395Y-47930586D01*
X279554879Y-48168862D02*
X279268948Y-48168862D01*
X279411913Y-48168862D02*
X279411913Y-47668482D01*
X279364258Y-47739965D01*
X279316603Y-47787620D01*
X279268948Y-47811448D01*
X279840810Y-47882930D02*
X279793155Y-47859103D01*
X279769328Y-47835275D01*
X279745500Y-47787620D01*
X279745500Y-47763792D01*
X279769328Y-47716137D01*
X279793155Y-47692310D01*
X279840810Y-47668482D01*
X279936121Y-47668482D01*
X279983776Y-47692310D01*
X280007604Y-47716137D01*
X280031431Y-47763792D01*
X280031431Y-47787620D01*
X280007604Y-47835275D01*
X279983776Y-47859103D01*
X279936121Y-47882930D01*
X279840810Y-47882930D01*
X279793155Y-47906758D01*
X279769328Y-47930586D01*
X279745500Y-47978241D01*
X279745500Y-48073551D01*
X279769328Y-48121207D01*
X279793155Y-48145034D01*
X279840810Y-48168862D01*
X279936121Y-48168862D01*
X279983776Y-48145034D01*
X280007604Y-48121207D01*
X280031431Y-48073551D01*
X280031431Y-47978241D01*
X280007604Y-47930586D01*
X279983776Y-47906758D01*
X279936121Y-47882930D01*
X279554879Y-48867362D02*
X279388086Y-48629086D01*
X279268948Y-48867362D02*
X279268948Y-48366982D01*
X279459569Y-48366982D01*
X279507224Y-48390810D01*
X279531051Y-48414637D01*
X279554879Y-48462292D01*
X279554879Y-48533775D01*
X279531051Y-48581430D01*
X279507224Y-48605258D01*
X279459569Y-48629086D01*
X279268948Y-48629086D01*
G04 #@! TO.C,R22*
X279078327Y-68488862D02*
X278911533Y-68250586D01*
X278792395Y-68488862D02*
X278792395Y-67988482D01*
X278983016Y-67988482D01*
X279030671Y-68012310D01*
X279054499Y-68036137D01*
X279078327Y-68083792D01*
X279078327Y-68155275D01*
X279054499Y-68202930D01*
X279030671Y-68226758D01*
X278983016Y-68250586D01*
X278792395Y-68250586D01*
X279268948Y-68036137D02*
X279292775Y-68012310D01*
X279340430Y-67988482D01*
X279459569Y-67988482D01*
X279507224Y-68012310D01*
X279531051Y-68036137D01*
X279554879Y-68083792D01*
X279554879Y-68131448D01*
X279531051Y-68202930D01*
X279245120Y-68488862D01*
X279554879Y-68488862D01*
X279745500Y-68036137D02*
X279769328Y-68012310D01*
X279816983Y-67988482D01*
X279936121Y-67988482D01*
X279983776Y-68012310D01*
X280007604Y-68036137D01*
X280031431Y-68083792D01*
X280031431Y-68131448D01*
X280007604Y-68202930D01*
X279721672Y-68488862D01*
X280031431Y-68488862D01*
X279554879Y-69187362D02*
X279388086Y-68949086D01*
X279268948Y-69187362D02*
X279268948Y-68686982D01*
X279459569Y-68686982D01*
X279507224Y-68710810D01*
X279531051Y-68734637D01*
X279554879Y-68782292D01*
X279554879Y-68853775D01*
X279531051Y-68901430D01*
X279507224Y-68925258D01*
X279459569Y-68949086D01*
X279268948Y-68949086D01*
G04 #@! TO.C,R21*
X279078327Y-65948862D02*
X278911533Y-65710586D01*
X278792395Y-65948862D02*
X278792395Y-65448482D01*
X278983016Y-65448482D01*
X279030671Y-65472310D01*
X279054499Y-65496137D01*
X279078327Y-65543792D01*
X279078327Y-65615275D01*
X279054499Y-65662930D01*
X279030671Y-65686758D01*
X278983016Y-65710586D01*
X278792395Y-65710586D01*
X279268948Y-65496137D02*
X279292775Y-65472310D01*
X279340430Y-65448482D01*
X279459569Y-65448482D01*
X279507224Y-65472310D01*
X279531051Y-65496137D01*
X279554879Y-65543792D01*
X279554879Y-65591448D01*
X279531051Y-65662930D01*
X279245120Y-65948862D01*
X279554879Y-65948862D01*
X280031431Y-65948862D02*
X279745500Y-65948862D01*
X279888466Y-65948862D02*
X279888466Y-65448482D01*
X279840810Y-65519965D01*
X279793155Y-65567620D01*
X279745500Y-65591448D01*
X279554879Y-66647362D02*
X279388086Y-66409086D01*
X279268948Y-66647362D02*
X279268948Y-66146982D01*
X279459569Y-66146982D01*
X279507224Y-66170810D01*
X279531051Y-66194637D01*
X279554879Y-66242292D01*
X279554879Y-66313775D01*
X279531051Y-66361430D01*
X279507224Y-66385258D01*
X279459569Y-66409086D01*
X279268948Y-66409086D01*
G04 #@! TO.C,R23*
X279078327Y-71028862D02*
X278911533Y-70790586D01*
X278792395Y-71028862D02*
X278792395Y-70528482D01*
X278983016Y-70528482D01*
X279030671Y-70552310D01*
X279054499Y-70576137D01*
X279078327Y-70623792D01*
X279078327Y-70695275D01*
X279054499Y-70742930D01*
X279030671Y-70766758D01*
X278983016Y-70790586D01*
X278792395Y-70790586D01*
X279268948Y-70576137D02*
X279292775Y-70552310D01*
X279340430Y-70528482D01*
X279459569Y-70528482D01*
X279507224Y-70552310D01*
X279531051Y-70576137D01*
X279554879Y-70623792D01*
X279554879Y-70671448D01*
X279531051Y-70742930D01*
X279245120Y-71028862D01*
X279554879Y-71028862D01*
X279721672Y-70528482D02*
X280031431Y-70528482D01*
X279864638Y-70719103D01*
X279936121Y-70719103D01*
X279983776Y-70742930D01*
X280007604Y-70766758D01*
X280031431Y-70814413D01*
X280031431Y-70933551D01*
X280007604Y-70981207D01*
X279983776Y-71005034D01*
X279936121Y-71028862D01*
X279793155Y-71028862D01*
X279745500Y-71005034D01*
X279721672Y-70981207D01*
X279554879Y-71727362D02*
X279388086Y-71489086D01*
X279268948Y-71727362D02*
X279268948Y-71226982D01*
X279459569Y-71226982D01*
X279507224Y-71250810D01*
X279531051Y-71274637D01*
X279554879Y-71322292D01*
X279554879Y-71393775D01*
X279531051Y-71441430D01*
X279507224Y-71465258D01*
X279459569Y-71489086D01*
X279268948Y-71489086D01*
G04 #@! TO.C,C1*
X215308603Y-60186207D02*
X215284775Y-60210034D01*
X215213292Y-60233862D01*
X215165637Y-60233862D01*
X215094154Y-60210034D01*
X215046499Y-60162379D01*
X215022671Y-60114724D01*
X214998844Y-60019413D01*
X214998844Y-59947930D01*
X215022671Y-59852620D01*
X215046499Y-59804965D01*
X215094154Y-59757310D01*
X215165637Y-59733482D01*
X215213292Y-59733482D01*
X215284775Y-59757310D01*
X215308603Y-59781137D01*
X215785155Y-60233862D02*
X215499224Y-60233862D01*
X215642190Y-60233862D02*
X215642190Y-59733482D01*
X215594534Y-59804965D01*
X215546879Y-59852620D01*
X215499224Y-59876448D01*
X215546879Y-59487707D02*
X215523051Y-59511534D01*
X215451569Y-59535362D01*
X215403913Y-59535362D01*
X215332430Y-59511534D01*
X215284775Y-59463879D01*
X215260948Y-59416224D01*
X215237120Y-59320913D01*
X215237120Y-59249430D01*
X215260948Y-59154120D01*
X215284775Y-59106465D01*
X215332430Y-59058810D01*
X215403913Y-59034982D01*
X215451569Y-59034982D01*
X215523051Y-59058810D01*
X215546879Y-59082637D01*
G04 #@! TO.C,C2*
X243121603Y-60186207D02*
X243097775Y-60210034D01*
X243026292Y-60233862D01*
X242978637Y-60233862D01*
X242907154Y-60210034D01*
X242859499Y-60162379D01*
X242835671Y-60114724D01*
X242811844Y-60019413D01*
X242811844Y-59947930D01*
X242835671Y-59852620D01*
X242859499Y-59804965D01*
X242907154Y-59757310D01*
X242978637Y-59733482D01*
X243026292Y-59733482D01*
X243097775Y-59757310D01*
X243121603Y-59781137D01*
X243312224Y-59781137D02*
X243336051Y-59757310D01*
X243383707Y-59733482D01*
X243502845Y-59733482D01*
X243550500Y-59757310D01*
X243574328Y-59781137D01*
X243598155Y-59828792D01*
X243598155Y-59876448D01*
X243574328Y-59947930D01*
X243288396Y-60233862D01*
X243598155Y-60233862D01*
X243359879Y-59487707D02*
X243336051Y-59511534D01*
X243264569Y-59535362D01*
X243216913Y-59535362D01*
X243145430Y-59511534D01*
X243097775Y-59463879D01*
X243073948Y-59416224D01*
X243050120Y-59320913D01*
X243050120Y-59249430D01*
X243073948Y-59154120D01*
X243097775Y-59106465D01*
X243145430Y-59058810D01*
X243216913Y-59034982D01*
X243264569Y-59034982D01*
X243336051Y-59058810D01*
X243359879Y-59082637D01*
G04 #@! TO.C,C3*
X271061603Y-60186207D02*
X271037775Y-60210034D01*
X270966292Y-60233862D01*
X270918637Y-60233862D01*
X270847154Y-60210034D01*
X270799499Y-60162379D01*
X270775671Y-60114724D01*
X270751844Y-60019413D01*
X270751844Y-59947930D01*
X270775671Y-59852620D01*
X270799499Y-59804965D01*
X270847154Y-59757310D01*
X270918637Y-59733482D01*
X270966292Y-59733482D01*
X271037775Y-59757310D01*
X271061603Y-59781137D01*
X271228396Y-59733482D02*
X271538155Y-59733482D01*
X271371362Y-59924103D01*
X271442845Y-59924103D01*
X271490500Y-59947930D01*
X271514328Y-59971758D01*
X271538155Y-60019413D01*
X271538155Y-60138551D01*
X271514328Y-60186207D01*
X271490500Y-60210034D01*
X271442845Y-60233862D01*
X271299879Y-60233862D01*
X271252224Y-60210034D01*
X271228396Y-60186207D01*
X271299879Y-59487707D02*
X271276051Y-59511534D01*
X271204569Y-59535362D01*
X271156913Y-59535362D01*
X271085430Y-59511534D01*
X271037775Y-59463879D01*
X271013948Y-59416224D01*
X270990120Y-59320913D01*
X270990120Y-59249430D01*
X271013948Y-59154120D01*
X271037775Y-59106465D01*
X271085430Y-59058810D01*
X271156913Y-59034982D01*
X271204569Y-59034982D01*
X271276051Y-59058810D01*
X271299879Y-59082637D01*
G04 #@! TO.C,C5*
X230874207Y-56598396D02*
X230898034Y-56622224D01*
X230921862Y-56693707D01*
X230921862Y-56741362D01*
X230898034Y-56812845D01*
X230850379Y-56860500D01*
X230802724Y-56884328D01*
X230707413Y-56908155D01*
X230635930Y-56908155D01*
X230540620Y-56884328D01*
X230492965Y-56860500D01*
X230445310Y-56812845D01*
X230421482Y-56741362D01*
X230421482Y-56693707D01*
X230445310Y-56622224D01*
X230469137Y-56598396D01*
X230421482Y-56145671D02*
X230421482Y-56383948D01*
X230659758Y-56407775D01*
X230635930Y-56383948D01*
X230612103Y-56336292D01*
X230612103Y-56217154D01*
X230635930Y-56169499D01*
X230659758Y-56145671D01*
X230707413Y-56121844D01*
X230826551Y-56121844D01*
X230874207Y-56145671D01*
X230898034Y-56169499D01*
X230921862Y-56217154D01*
X230921862Y-56336292D01*
X230898034Y-56383948D01*
X230874207Y-56407775D01*
X231572707Y-56360120D02*
X231596534Y-56383948D01*
X231620362Y-56455430D01*
X231620362Y-56503086D01*
X231596534Y-56574569D01*
X231548879Y-56622224D01*
X231501224Y-56646051D01*
X231405913Y-56669879D01*
X231334430Y-56669879D01*
X231239120Y-56646051D01*
X231191465Y-56622224D01*
X231143810Y-56574569D01*
X231119982Y-56503086D01*
X231119982Y-56455430D01*
X231143810Y-56383948D01*
X231167637Y-56360120D01*
G04 #@! TO.C,C4*
X215888207Y-62948396D02*
X215912034Y-62972224D01*
X215935862Y-63043707D01*
X215935862Y-63091362D01*
X215912034Y-63162845D01*
X215864379Y-63210500D01*
X215816724Y-63234328D01*
X215721413Y-63258155D01*
X215649930Y-63258155D01*
X215554620Y-63234328D01*
X215506965Y-63210500D01*
X215459310Y-63162845D01*
X215435482Y-63091362D01*
X215435482Y-63043707D01*
X215459310Y-62972224D01*
X215483137Y-62948396D01*
X215602275Y-62519499D02*
X215935862Y-62519499D01*
X215411654Y-62638637D02*
X215769069Y-62757775D01*
X215769069Y-62448016D01*
X216586707Y-62710120D02*
X216610534Y-62733948D01*
X216634362Y-62805430D01*
X216634362Y-62853086D01*
X216610534Y-62924569D01*
X216562879Y-62972224D01*
X216515224Y-62996051D01*
X216419913Y-63019879D01*
X216348430Y-63019879D01*
X216253120Y-62996051D01*
X216205465Y-62972224D01*
X216157810Y-62924569D01*
X216133982Y-62853086D01*
X216133982Y-62805430D01*
X216157810Y-62733948D01*
X216181637Y-62710120D01*
G04 #@! TO.C,C6*
X243828207Y-62948396D02*
X243852034Y-62972224D01*
X243875862Y-63043707D01*
X243875862Y-63091362D01*
X243852034Y-63162845D01*
X243804379Y-63210500D01*
X243756724Y-63234328D01*
X243661413Y-63258155D01*
X243589930Y-63258155D01*
X243494620Y-63234328D01*
X243446965Y-63210500D01*
X243399310Y-63162845D01*
X243375482Y-63091362D01*
X243375482Y-63043707D01*
X243399310Y-62972224D01*
X243423137Y-62948396D01*
X243375482Y-62519499D02*
X243375482Y-62614810D01*
X243399310Y-62662465D01*
X243423137Y-62686292D01*
X243494620Y-62733948D01*
X243589930Y-62757775D01*
X243780551Y-62757775D01*
X243828207Y-62733948D01*
X243852034Y-62710120D01*
X243875862Y-62662465D01*
X243875862Y-62567154D01*
X243852034Y-62519499D01*
X243828207Y-62495671D01*
X243780551Y-62471844D01*
X243661413Y-62471844D01*
X243613758Y-62495671D01*
X243589930Y-62519499D01*
X243566103Y-62567154D01*
X243566103Y-62662465D01*
X243589930Y-62710120D01*
X243613758Y-62733948D01*
X243661413Y-62757775D01*
X244526707Y-62710120D02*
X244550534Y-62733948D01*
X244574362Y-62805430D01*
X244574362Y-62853086D01*
X244550534Y-62924569D01*
X244502879Y-62972224D01*
X244455224Y-62996051D01*
X244359913Y-63019879D01*
X244288430Y-63019879D01*
X244193120Y-62996051D01*
X244145465Y-62972224D01*
X244097810Y-62924569D01*
X244073982Y-62853086D01*
X244073982Y-62805430D01*
X244097810Y-62733948D01*
X244121637Y-62710120D01*
G04 #@! TO.C,C8*
X271768207Y-62948396D02*
X271792034Y-62972224D01*
X271815862Y-63043707D01*
X271815862Y-63091362D01*
X271792034Y-63162845D01*
X271744379Y-63210500D01*
X271696724Y-63234328D01*
X271601413Y-63258155D01*
X271529930Y-63258155D01*
X271434620Y-63234328D01*
X271386965Y-63210500D01*
X271339310Y-63162845D01*
X271315482Y-63091362D01*
X271315482Y-63043707D01*
X271339310Y-62972224D01*
X271363137Y-62948396D01*
X271529930Y-62662465D02*
X271506103Y-62710120D01*
X271482275Y-62733948D01*
X271434620Y-62757775D01*
X271410792Y-62757775D01*
X271363137Y-62733948D01*
X271339310Y-62710120D01*
X271315482Y-62662465D01*
X271315482Y-62567154D01*
X271339310Y-62519499D01*
X271363137Y-62495671D01*
X271410792Y-62471844D01*
X271434620Y-62471844D01*
X271482275Y-62495671D01*
X271506103Y-62519499D01*
X271529930Y-62567154D01*
X271529930Y-62662465D01*
X271553758Y-62710120D01*
X271577586Y-62733948D01*
X271625241Y-62757775D01*
X271720551Y-62757775D01*
X271768207Y-62733948D01*
X271792034Y-62710120D01*
X271815862Y-62662465D01*
X271815862Y-62567154D01*
X271792034Y-62519499D01*
X271768207Y-62495671D01*
X271720551Y-62471844D01*
X271625241Y-62471844D01*
X271577586Y-62495671D01*
X271553758Y-62519499D01*
X271529930Y-62567154D01*
X272466707Y-62710120D02*
X272490534Y-62733948D01*
X272514362Y-62805430D01*
X272514362Y-62853086D01*
X272490534Y-62924569D01*
X272442879Y-62972224D01*
X272395224Y-62996051D01*
X272299913Y-63019879D01*
X272228430Y-63019879D01*
X272133120Y-62996051D01*
X272085465Y-62972224D01*
X272037810Y-62924569D01*
X272013982Y-62853086D01*
X272013982Y-62805430D01*
X272037810Y-62733948D01*
X272061637Y-62710120D01*
G04 #@! TO.C,C9*
X286881207Y-56217396D02*
X286905034Y-56241224D01*
X286928862Y-56312707D01*
X286928862Y-56360362D01*
X286905034Y-56431845D01*
X286857379Y-56479500D01*
X286809724Y-56503328D01*
X286714413Y-56527155D01*
X286642930Y-56527155D01*
X286547620Y-56503328D01*
X286499965Y-56479500D01*
X286452310Y-56431845D01*
X286428482Y-56360362D01*
X286428482Y-56312707D01*
X286452310Y-56241224D01*
X286476137Y-56217396D01*
X286928862Y-55979120D02*
X286928862Y-55883810D01*
X286905034Y-55836154D01*
X286881207Y-55812327D01*
X286809724Y-55764671D01*
X286714413Y-55740844D01*
X286523792Y-55740844D01*
X286476137Y-55764671D01*
X286452310Y-55788499D01*
X286428482Y-55836154D01*
X286428482Y-55931465D01*
X286452310Y-55979120D01*
X286476137Y-56002948D01*
X286523792Y-56026775D01*
X286642930Y-56026775D01*
X286690586Y-56002948D01*
X286714413Y-55979120D01*
X286738241Y-55931465D01*
X286738241Y-55836154D01*
X286714413Y-55788499D01*
X286690586Y-55764671D01*
X286642930Y-55740844D01*
X287579707Y-55979120D02*
X287603534Y-56002948D01*
X287627362Y-56074430D01*
X287627362Y-56122086D01*
X287603534Y-56193569D01*
X287555879Y-56241224D01*
X287508224Y-56265051D01*
X287412913Y-56288879D01*
X287341430Y-56288879D01*
X287246120Y-56265051D01*
X287198465Y-56241224D01*
X287150810Y-56193569D01*
X287126982Y-56122086D01*
X287126982Y-56074430D01*
X287150810Y-56002948D01*
X287174637Y-55979120D01*
G04 #@! TO.C,C7*
X258814207Y-56598396D02*
X258838034Y-56622224D01*
X258861862Y-56693707D01*
X258861862Y-56741362D01*
X258838034Y-56812845D01*
X258790379Y-56860500D01*
X258742724Y-56884328D01*
X258647413Y-56908155D01*
X258575930Y-56908155D01*
X258480620Y-56884328D01*
X258432965Y-56860500D01*
X258385310Y-56812845D01*
X258361482Y-56741362D01*
X258361482Y-56693707D01*
X258385310Y-56622224D01*
X258409137Y-56598396D01*
X258361482Y-56431603D02*
X258361482Y-56098016D01*
X258861862Y-56312465D01*
X259512707Y-56360120D02*
X259536534Y-56383948D01*
X259560362Y-56455430D01*
X259560362Y-56503086D01*
X259536534Y-56574569D01*
X259488879Y-56622224D01*
X259441224Y-56646051D01*
X259345913Y-56669879D01*
X259274430Y-56669879D01*
X259179120Y-56646051D01*
X259131465Y-56622224D01*
X259083810Y-56574569D01*
X259059982Y-56503086D01*
X259059982Y-56455430D01*
X259083810Y-56383948D01*
X259107637Y-56360120D01*
G04 #@! TO.C,U11*
D10*
X288248380Y-47720095D02*
X289057904Y-47720095D01*
X289153142Y-47672476D01*
X289200761Y-47624857D01*
X289248380Y-47529619D01*
X289248380Y-47339142D01*
X289200761Y-47243904D01*
X289153142Y-47196285D01*
X289057904Y-47148666D01*
X288248380Y-47148666D01*
X289248380Y-46148666D02*
X289248380Y-46720095D01*
X289248380Y-46434380D02*
X288248380Y-46434380D01*
X288391238Y-46529619D01*
X288486476Y-46624857D01*
X288534095Y-46720095D01*
X289248380Y-45196285D02*
X289248380Y-45767714D01*
X289248380Y-45482000D02*
X288248380Y-45482000D01*
X288391238Y-45577238D01*
X288486476Y-45672476D01*
X288534095Y-45767714D01*
X282748380Y-49434380D02*
X281748380Y-49434380D01*
X282224571Y-49434380D02*
X282224571Y-48862952D01*
X282748380Y-48862952D02*
X281748380Y-48862952D01*
X282748380Y-48386761D02*
X281748380Y-48386761D01*
X282748380Y-47910571D02*
X281748380Y-47910571D01*
X282224571Y-47910571D02*
X282224571Y-47339142D01*
X282748380Y-47339142D02*
X281748380Y-47339142D01*
X281748380Y-46434380D02*
X281748380Y-46624857D01*
X281796000Y-46720095D01*
X281843619Y-46767714D01*
X281986476Y-46862952D01*
X282176952Y-46910571D01*
X282557904Y-46910571D01*
X282653142Y-46862952D01*
X282700761Y-46815333D01*
X282748380Y-46720095D01*
X282748380Y-46529619D01*
X282700761Y-46434380D01*
X282653142Y-46386761D01*
X282557904Y-46339142D01*
X282319809Y-46339142D01*
X282224571Y-46386761D01*
X282176952Y-46434380D01*
X282129333Y-46529619D01*
X282129333Y-46720095D01*
X282176952Y-46815333D01*
X282224571Y-46862952D01*
X282319809Y-46910571D01*
X281748380Y-45720095D02*
X281748380Y-45624857D01*
X281796000Y-45529619D01*
X281843619Y-45482000D01*
X281938857Y-45434380D01*
X282129333Y-45386761D01*
X282367428Y-45386761D01*
X282557904Y-45434380D01*
X282653142Y-45482000D01*
X282700761Y-45529619D01*
X282748380Y-45624857D01*
X282748380Y-45720095D01*
X282700761Y-45815333D01*
X282653142Y-45862952D01*
X282557904Y-45910571D01*
X282367428Y-45958190D01*
X282129333Y-45958190D01*
X281938857Y-45910571D01*
X281843619Y-45862952D01*
X281796000Y-45815333D01*
X281748380Y-45720095D01*
X281748380Y-45053428D02*
X281748380Y-44434380D01*
X282129333Y-44767714D01*
X282129333Y-44624857D01*
X282176952Y-44529619D01*
X282224571Y-44482000D01*
X282319809Y-44434380D01*
X282557904Y-44434380D01*
X282653142Y-44482000D01*
X282700761Y-44529619D01*
X282748380Y-44624857D01*
X282748380Y-44910571D01*
X282700761Y-45005809D01*
X282653142Y-45053428D01*
X281748380Y-43815333D02*
X281748380Y-43720095D01*
X281796000Y-43624857D01*
X281843619Y-43577238D01*
X281938857Y-43529619D01*
X282129333Y-43482000D01*
X282367428Y-43482000D01*
X282557904Y-43529619D01*
X282653142Y-43577238D01*
X282700761Y-43624857D01*
X282748380Y-43720095D01*
X282748380Y-43815333D01*
X282700761Y-43910571D01*
X282653142Y-43958190D01*
X282557904Y-44005809D01*
X282367428Y-44053428D01*
X282129333Y-44053428D01*
X281938857Y-44005809D01*
X281843619Y-43958190D01*
X281796000Y-43910571D01*
X281748380Y-43815333D01*
G04 #@! TO.C,C13*
D13*
X286444327Y-39993207D02*
X286420499Y-40017034D01*
X286349016Y-40040862D01*
X286301361Y-40040862D01*
X286229878Y-40017034D01*
X286182223Y-39969379D01*
X286158395Y-39921724D01*
X286134568Y-39826413D01*
X286134568Y-39754930D01*
X286158395Y-39659620D01*
X286182223Y-39611965D01*
X286229878Y-39564310D01*
X286301361Y-39540482D01*
X286349016Y-39540482D01*
X286420499Y-39564310D01*
X286444327Y-39588137D01*
X286920879Y-40040862D02*
X286634948Y-40040862D01*
X286777913Y-40040862D02*
X286777913Y-39540482D01*
X286730258Y-39611965D01*
X286682603Y-39659620D01*
X286634948Y-39683448D01*
X287087672Y-39540482D02*
X287397431Y-39540482D01*
X287230638Y-39731103D01*
X287302121Y-39731103D01*
X287349776Y-39754930D01*
X287373604Y-39778758D01*
X287397431Y-39826413D01*
X287397431Y-39945551D01*
X287373604Y-39993207D01*
X287349776Y-40017034D01*
X287302121Y-40040862D01*
X287159155Y-40040862D01*
X287111500Y-40017034D01*
X287087672Y-39993207D01*
X286920879Y-40691707D02*
X286897051Y-40715534D01*
X286825569Y-40739362D01*
X286777913Y-40739362D01*
X286706430Y-40715534D01*
X286658775Y-40667879D01*
X286634948Y-40620224D01*
X286611120Y-40524913D01*
X286611120Y-40453430D01*
X286634948Y-40358120D01*
X286658775Y-40310465D01*
X286706430Y-40262810D01*
X286777913Y-40238982D01*
X286825569Y-40238982D01*
X286897051Y-40262810D01*
X286920879Y-40286637D01*
G04 #@! TO.C,C14*
X286126327Y-53836207D02*
X286102499Y-53860034D01*
X286031016Y-53883862D01*
X285983361Y-53883862D01*
X285911878Y-53860034D01*
X285864223Y-53812379D01*
X285840395Y-53764724D01*
X285816568Y-53669413D01*
X285816568Y-53597930D01*
X285840395Y-53502620D01*
X285864223Y-53454965D01*
X285911878Y-53407310D01*
X285983361Y-53383482D01*
X286031016Y-53383482D01*
X286102499Y-53407310D01*
X286126327Y-53431137D01*
X286602879Y-53883862D02*
X286316948Y-53883862D01*
X286459913Y-53883862D02*
X286459913Y-53383482D01*
X286412258Y-53454965D01*
X286364603Y-53502620D01*
X286316948Y-53526448D01*
X287031776Y-53550275D02*
X287031776Y-53883862D01*
X286912638Y-53359654D02*
X286793500Y-53717069D01*
X287103259Y-53717069D01*
X286602879Y-53137707D02*
X286579051Y-53161534D01*
X286507569Y-53185362D01*
X286459913Y-53185362D01*
X286388430Y-53161534D01*
X286340775Y-53113879D01*
X286316948Y-53066224D01*
X286293120Y-52970913D01*
X286293120Y-52899430D01*
X286316948Y-52804120D01*
X286340775Y-52756465D01*
X286388430Y-52708810D01*
X286459913Y-52684982D01*
X286507569Y-52684982D01*
X286579051Y-52708810D01*
X286602879Y-52732637D01*
G04 #@! TO.C,R25*
X282952327Y-40040862D02*
X282785533Y-39802586D01*
X282666395Y-40040862D02*
X282666395Y-39540482D01*
X282857016Y-39540482D01*
X282904671Y-39564310D01*
X282928499Y-39588137D01*
X282952327Y-39635792D01*
X282952327Y-39707275D01*
X282928499Y-39754930D01*
X282904671Y-39778758D01*
X282857016Y-39802586D01*
X282666395Y-39802586D01*
X283142948Y-39588137D02*
X283166775Y-39564310D01*
X283214430Y-39540482D01*
X283333569Y-39540482D01*
X283381224Y-39564310D01*
X283405051Y-39588137D01*
X283428879Y-39635792D01*
X283428879Y-39683448D01*
X283405051Y-39754930D01*
X283119120Y-40040862D01*
X283428879Y-40040862D01*
X283881604Y-39540482D02*
X283643328Y-39540482D01*
X283619500Y-39778758D01*
X283643328Y-39754930D01*
X283690983Y-39731103D01*
X283810121Y-39731103D01*
X283857776Y-39754930D01*
X283881604Y-39778758D01*
X283905431Y-39826413D01*
X283905431Y-39945551D01*
X283881604Y-39993207D01*
X283857776Y-40017034D01*
X283810121Y-40040862D01*
X283690983Y-40040862D01*
X283643328Y-40017034D01*
X283619500Y-39993207D01*
X283428879Y-40739362D02*
X283262086Y-40501086D01*
X283142948Y-40739362D02*
X283142948Y-40238982D01*
X283333569Y-40238982D01*
X283381224Y-40262810D01*
X283405051Y-40286637D01*
X283428879Y-40334292D01*
X283428879Y-40405775D01*
X283405051Y-40453430D01*
X283381224Y-40477258D01*
X283333569Y-40501086D01*
X283142948Y-40501086D01*
G04 #@! TO.C,R26*
X279522327Y-40040862D02*
X279355533Y-39802586D01*
X279236395Y-40040862D02*
X279236395Y-39540482D01*
X279427016Y-39540482D01*
X279474671Y-39564310D01*
X279498499Y-39588137D01*
X279522327Y-39635792D01*
X279522327Y-39707275D01*
X279498499Y-39754930D01*
X279474671Y-39778758D01*
X279427016Y-39802586D01*
X279236395Y-39802586D01*
X279712948Y-39588137D02*
X279736775Y-39564310D01*
X279784430Y-39540482D01*
X279903569Y-39540482D01*
X279951224Y-39564310D01*
X279975051Y-39588137D01*
X279998879Y-39635792D01*
X279998879Y-39683448D01*
X279975051Y-39754930D01*
X279689120Y-40040862D01*
X279998879Y-40040862D01*
X280427776Y-39540482D02*
X280332466Y-39540482D01*
X280284810Y-39564310D01*
X280260983Y-39588137D01*
X280213328Y-39659620D01*
X280189500Y-39754930D01*
X280189500Y-39945551D01*
X280213328Y-39993207D01*
X280237155Y-40017034D01*
X280284810Y-40040862D01*
X280380121Y-40040862D01*
X280427776Y-40017034D01*
X280451604Y-39993207D01*
X280475431Y-39945551D01*
X280475431Y-39826413D01*
X280451604Y-39778758D01*
X280427776Y-39754930D01*
X280380121Y-39731103D01*
X280284810Y-39731103D01*
X280237155Y-39754930D01*
X280213328Y-39778758D01*
X280189500Y-39826413D01*
X279998879Y-40739362D02*
X279832086Y-40501086D01*
X279712948Y-40739362D02*
X279712948Y-40238982D01*
X279903569Y-40238982D01*
X279951224Y-40262810D01*
X279975051Y-40286637D01*
X279998879Y-40334292D01*
X279998879Y-40405775D01*
X279975051Y-40453430D01*
X279951224Y-40477258D01*
X279903569Y-40501086D01*
X279712948Y-40501086D01*
G04 #@! TD*
M02*
