M48
;DRILL file {KiCad (5.0.0)} date 04/25/19 23:48:30
;FORMAT={-:-/ absolute / inch / decimal}
FMAT,2
INCH,TZ
T1C0.0200
T2C0.0315
T3C0.0320
T4C0.1250
T5C0.6250
%
G90
G05
M72
T1
X8.3833Y-2.2371
X8.7459Y-2.2242
X8.8379Y-2.4541
X9.0953Y-2.3076
X9.2928Y-3.2318
X9.8147Y-1.8968
X9.8584Y-2.2
X9.9216Y-2.1553
X9.9476Y-2.5414
X10.5456Y-2.3027
X11.0715Y-2.1622
T2
X9.Y-2.7855
X9.Y-2.8645
X9.3105Y-2.475
X9.3895Y-2.475
X9.7Y-2.7855
X9.7Y-2.8645
X7.9Y-2.7855
X7.9Y-2.8645
X8.2105Y-2.475
X8.2895Y-2.475
X8.6Y-2.7855
X8.6Y-2.8645
X10.1Y-1.8355
X10.1Y-1.9145
X10.4105Y-2.225
X10.4895Y-2.225
X10.8Y-1.8355
X10.8Y-1.9145
X7.9Y-1.8355
X7.9Y-1.9145
X8.2105Y-2.225
X8.2895Y-2.225
X8.6Y-1.8355
X8.6Y-1.9145
X10.1Y-2.7855
X10.1Y-2.8645
X10.4105Y-2.475
X10.4895Y-2.475
X10.8Y-2.7855
X10.8Y-2.8645
X9.Y-1.8355
X9.Y-1.9145
X9.3105Y-2.225
X9.3895Y-2.225
X9.7Y-1.8355
X9.7Y-1.9145
T3
X8.69Y-1.45
X8.79Y-1.45
X8.89Y-1.45
X8.99Y-1.45
X9.05Y-3.35
X9.09Y-1.45
X9.15Y-3.35
X9.19Y-1.45
X9.25Y-3.35
X9.29Y-1.45
X9.35Y-3.35
X9.39Y-1.45
X9.45Y-3.35
X9.55Y-1.45
X9.55Y-3.35
X9.65Y-1.45
X9.75Y-1.45
X9.75Y-3.35
X9.85Y-1.45
X9.85Y-3.35
X9.95Y-1.45
X9.95Y-3.35
X10.05Y-1.45
X10.05Y-3.35
X10.15Y-1.45
X10.15Y-3.35
X10.25Y-1.45
X10.25Y-3.35
X10.35Y-3.35
X10.45Y-1.45
X10.45Y-3.35
X10.55Y-1.45
X10.65Y-1.45
X10.65Y-3.35
X10.75Y-1.45
X10.75Y-3.35
X10.85Y-1.45
X10.85Y-3.35
X10.95Y-1.45
X10.95Y-3.35
X11.05Y-1.45
X11.05Y-3.35
X11.15Y-1.45
X11.15Y-3.35
X11.25Y-3.35
X11.35Y-3.35
X11.45Y-1.45
X11.45Y-1.55
X11.45Y-1.65
X11.45Y-1.75
X11.45Y-1.85
X11.45Y-1.95
X11.45Y-2.05
X11.45Y-2.15
X11.45Y-2.25
X11.45Y-2.35
X11.45Y-2.45
X11.45Y-2.55
X11.45Y-2.65
X11.45Y-2.75
X11.45Y-2.85
X11.45Y-2.95
X11.45Y-3.05
X11.45Y-3.15
X11.55Y-1.45
X11.55Y-1.55
X11.55Y-1.65
X11.55Y-1.75
X11.55Y-1.85
X11.55Y-1.95
X11.55Y-2.05
X11.55Y-2.15
X11.55Y-2.25
X11.55Y-2.35
X11.55Y-2.45
X11.55Y-2.55
X11.55Y-2.65
X11.55Y-2.75
X11.55Y-2.85
X11.55Y-2.95
X11.55Y-3.05
X11.55Y-3.15
T4
X8.3Y-3.35
X8.35Y-1.45
X11.3Y-1.45
X11.55Y-3.35
T5
X9.35Y-2.825
X8.25Y-2.825
X10.45Y-1.875
X8.25Y-1.875
X10.45Y-2.825
X9.35Y-1.875
T0
M30
