G04 #@! TF.GenerationSoftware,KiCad,Pcbnew,(5.0.0)*
G04 #@! TF.CreationDate,2019-04-25T23:48:33-07:00*
G04 #@! TF.ProjectId,Arduino_Mega_6x,41726475696E6F5F4D6567615F36782E,rev?*
G04 #@! TF.SameCoordinates,Original*
G04 #@! TF.FileFunction,Soldermask,Top*
G04 #@! TF.FilePolarity,Negative*
%FSLAX46Y46*%
G04 Gerber Fmt 4.6, Leading zero omitted, Abs format (unit mm)*
G04 Created by KiCad (PCBNEW (5.0.0)) date 04/25/19 23:48:33*
%MOMM*%
%LPD*%
G01*
G04 APERTURE LIST*
%ADD10O,1.524000X2.540000*%
%ADD11C,3.937000*%
%ADD12C,1.524000*%
%ADD13C,15.875000*%
%ADD14C,1.500000*%
%ADD15R,4.000000X0.500000*%
%ADD16R,1.397000X0.889000*%
%ADD17R,0.889000X1.397000*%
%ADD18R,0.500000X2.800000*%
G04 APERTURE END LIST*
D10*
G04 #@! TO.C,SHIELD1*
X265430000Y-36830000D03*
X267970000Y-36830000D03*
X270510000Y-36830000D03*
X273050000Y-36830000D03*
X275590000Y-36830000D03*
X278130000Y-36830000D03*
X280670000Y-36830000D03*
X283210000Y-36830000D03*
X288290000Y-85090000D03*
X285750000Y-85090000D03*
X283210000Y-85090000D03*
X280670000Y-85090000D03*
X270510000Y-85090000D03*
X265430000Y-85090000D03*
X262890000Y-85090000D03*
X273050000Y-85090000D03*
X275590000Y-85090000D03*
X278130000Y-85090000D03*
X260350000Y-85090000D03*
X257810000Y-85090000D03*
X255270000Y-85090000D03*
X247650000Y-85090000D03*
X250190000Y-85090000D03*
X252730000Y-85090000D03*
X242570000Y-85090000D03*
X240030000Y-85090000D03*
X237490000Y-85090000D03*
X232410000Y-85090000D03*
X229870000Y-85090000D03*
X260350000Y-36830000D03*
X257810000Y-36830000D03*
X255270000Y-36830000D03*
X252730000Y-36830000D03*
X250190000Y-36830000D03*
X247650000Y-36830000D03*
X245110000Y-36830000D03*
X242570000Y-36830000D03*
X238506000Y-36830000D03*
X235966000Y-36830000D03*
X233426000Y-36830000D03*
X230886000Y-36830000D03*
X228346000Y-36830000D03*
X225806000Y-36830000D03*
X223266000Y-36830000D03*
X220726000Y-36830000D03*
X234950000Y-85090000D03*
D11*
X293370000Y-85090000D03*
X287020000Y-36830000D03*
X212090000Y-36830000D03*
X210820000Y-85090000D03*
D12*
X290830000Y-39370000D03*
X293370000Y-39370000D03*
X290830000Y-41910000D03*
X293370000Y-41910000D03*
X290830000Y-44450000D03*
X293370000Y-44450000D03*
X290830000Y-46990000D03*
X293370000Y-46990000D03*
X290830000Y-36830000D03*
X293370000Y-36830000D03*
X293370000Y-49530000D03*
X290830000Y-49530000D03*
X290830000Y-52070000D03*
X293370000Y-52070000D03*
X290830000Y-54610000D03*
X293370000Y-54610000D03*
X290830000Y-57150000D03*
X293370000Y-57150000D03*
X290830000Y-59690000D03*
X293370000Y-59690000D03*
X290830000Y-62230000D03*
X293370000Y-62230000D03*
X290830000Y-64770000D03*
X293370000Y-64770000D03*
X290830000Y-67310000D03*
X293370000Y-67310000D03*
X290830000Y-69850000D03*
X293370000Y-69850000D03*
X290830000Y-72390000D03*
X293370000Y-72390000D03*
X290830000Y-74930000D03*
X293370000Y-74930000D03*
X290830000Y-77470000D03*
X293370000Y-77470000D03*
X290830000Y-80010000D03*
X293370000Y-80010000D03*
G04 #@! TD*
D13*
G04 #@! TO.C,U1*
X209550000Y-47625000D03*
D14*
X218440000Y-48628300D03*
X210553300Y-56515000D03*
X208546700Y-56515000D03*
X218440000Y-46621700D03*
X200660000Y-48628300D03*
X200660000Y-46621700D03*
G04 #@! TD*
D13*
G04 #@! TO.C,U3*
X265430000Y-47625000D03*
D14*
X274320000Y-48628300D03*
X266433300Y-56515000D03*
X264426700Y-56515000D03*
X274320000Y-46621700D03*
X256540000Y-48628300D03*
X256540000Y-46621700D03*
G04 #@! TD*
D13*
G04 #@! TO.C,U2*
X237490000Y-47625000D03*
D14*
X246380000Y-48628300D03*
X238493300Y-56515000D03*
X236486700Y-56515000D03*
X246380000Y-46621700D03*
X228600000Y-48628300D03*
X228600000Y-46621700D03*
G04 #@! TD*
D13*
G04 #@! TO.C,U4*
X209550000Y-71755000D03*
D14*
X200660000Y-70751700D03*
X208546700Y-62865000D03*
X210553300Y-62865000D03*
X200660000Y-72758300D03*
X218440000Y-70751700D03*
X218440000Y-72758300D03*
G04 #@! TD*
D13*
G04 #@! TO.C,U5*
X237490000Y-71755000D03*
D14*
X228600000Y-70751700D03*
X236486700Y-62865000D03*
X238493300Y-62865000D03*
X228600000Y-72758300D03*
X246380000Y-70751700D03*
X246380000Y-72758300D03*
G04 #@! TD*
D13*
G04 #@! TO.C,U6*
X265430000Y-71755000D03*
D14*
X256540000Y-70751700D03*
X264426700Y-62865000D03*
X266433300Y-62865000D03*
X256540000Y-72758300D03*
X274320000Y-70751700D03*
X274320000Y-72758300D03*
G04 #@! TD*
D15*
G04 #@! TO.C,U9*
X275400000Y-55880000D03*
X275400000Y-57150000D03*
X275400000Y-58420000D03*
X275400000Y-59690000D03*
X275400000Y-60960000D03*
X275400000Y-62230000D03*
X275400000Y-63500000D03*
X283400000Y-63500000D03*
X283400000Y-62230000D03*
X283400000Y-60960000D03*
X283400000Y-59690000D03*
X283400000Y-58420000D03*
X283400000Y-57150000D03*
X283400000Y-55880000D03*
G04 #@! TD*
G04 #@! TO.C,U7*
X219520000Y-55880000D03*
X219520000Y-57150000D03*
X219520000Y-58420000D03*
X219520000Y-59690000D03*
X219520000Y-60960000D03*
X219520000Y-62230000D03*
X219520000Y-63500000D03*
X227520000Y-63500000D03*
X227520000Y-62230000D03*
X227520000Y-60960000D03*
X227520000Y-59690000D03*
X227520000Y-58420000D03*
X227520000Y-57150000D03*
X227520000Y-55880000D03*
G04 #@! TD*
G04 #@! TO.C,U8*
X247460000Y-55880000D03*
X247460000Y-57150000D03*
X247460000Y-58420000D03*
X247460000Y-59690000D03*
X247460000Y-60960000D03*
X247460000Y-62230000D03*
X247460000Y-63500000D03*
X255460000Y-63500000D03*
X255460000Y-62230000D03*
X255460000Y-60960000D03*
X255460000Y-59690000D03*
X255460000Y-58420000D03*
X255460000Y-57150000D03*
X255460000Y-55880000D03*
G04 #@! TD*
D16*
G04 #@! TO.C,R1*
X216027000Y-57467500D03*
X216027000Y-55562500D03*
G04 #@! TD*
G04 #@! TO.C,R8*
X231013000Y-61912500D03*
X231013000Y-63817500D03*
G04 #@! TD*
D17*
G04 #@! TO.C,R3*
X222567500Y-50800000D03*
X224472500Y-50800000D03*
G04 #@! TD*
G04 #@! TO.C,R4*
X222567500Y-53340000D03*
X224472500Y-53340000D03*
G04 #@! TD*
G04 #@! TO.C,R2*
X222567500Y-48260000D03*
X224472500Y-48260000D03*
G04 #@! TD*
G04 #@! TO.C,R6*
X222567500Y-68580000D03*
X224472500Y-68580000D03*
G04 #@! TD*
G04 #@! TO.C,R5*
X222567500Y-66040000D03*
X224472500Y-66040000D03*
G04 #@! TD*
G04 #@! TO.C,R7*
X222567500Y-71120000D03*
X224472500Y-71120000D03*
G04 #@! TD*
D16*
G04 #@! TO.C,R9*
X243967000Y-57467500D03*
X243967000Y-55562500D03*
G04 #@! TD*
G04 #@! TO.C,R16*
X258953000Y-61912500D03*
X258953000Y-63817500D03*
G04 #@! TD*
D17*
G04 #@! TO.C,R11*
X250507500Y-50800000D03*
X252412500Y-50800000D03*
G04 #@! TD*
G04 #@! TO.C,R12*
X250507500Y-53340000D03*
X252412500Y-53340000D03*
G04 #@! TD*
G04 #@! TO.C,R10*
X250507500Y-48260000D03*
X252412500Y-48260000D03*
G04 #@! TD*
G04 #@! TO.C,R14*
X250507500Y-68580000D03*
X252412500Y-68580000D03*
G04 #@! TD*
G04 #@! TO.C,R13*
X250507500Y-66040000D03*
X252412500Y-66040000D03*
G04 #@! TD*
G04 #@! TO.C,R15*
X250507500Y-71120000D03*
X252412500Y-71120000D03*
G04 #@! TD*
D16*
G04 #@! TO.C,R17*
X271907000Y-57467500D03*
X271907000Y-55562500D03*
G04 #@! TD*
G04 #@! TO.C,R24*
X286893000Y-61912500D03*
X286893000Y-63817500D03*
G04 #@! TD*
D17*
G04 #@! TO.C,R19*
X278447500Y-50800000D03*
X280352500Y-50800000D03*
G04 #@! TD*
G04 #@! TO.C,R20*
X278447500Y-53340000D03*
X280352500Y-53340000D03*
G04 #@! TD*
G04 #@! TO.C,R18*
X278447500Y-48260000D03*
X280352500Y-48260000D03*
G04 #@! TD*
G04 #@! TO.C,R22*
X278447500Y-68580000D03*
X280352500Y-68580000D03*
G04 #@! TD*
G04 #@! TO.C,R21*
X278447500Y-66040000D03*
X280352500Y-66040000D03*
G04 #@! TD*
G04 #@! TO.C,R23*
X278447500Y-71120000D03*
X280352500Y-71120000D03*
G04 #@! TD*
G04 #@! TO.C,C1*
X216344500Y-59690000D03*
X214439500Y-59690000D03*
G04 #@! TD*
G04 #@! TO.C,C2*
X244157500Y-59690000D03*
X242252500Y-59690000D03*
G04 #@! TD*
G04 #@! TO.C,C3*
X272097500Y-59690000D03*
X270192500Y-59690000D03*
G04 #@! TD*
D16*
G04 #@! TO.C,C5*
X231013000Y-57467500D03*
X231013000Y-55562500D03*
G04 #@! TD*
G04 #@! TO.C,C4*
X216027000Y-63817500D03*
X216027000Y-61912500D03*
G04 #@! TD*
G04 #@! TO.C,C6*
X243967000Y-63817500D03*
X243967000Y-61912500D03*
G04 #@! TD*
G04 #@! TO.C,C8*
X271907000Y-63817500D03*
X271907000Y-61912500D03*
G04 #@! TD*
G04 #@! TO.C,C9*
X287020000Y-57086500D03*
X287020000Y-55181500D03*
G04 #@! TD*
G04 #@! TO.C,C7*
X258953000Y-57467500D03*
X258953000Y-55562500D03*
G04 #@! TD*
D18*
G04 #@! TO.C,U11*
X287401000Y-42982000D03*
X286131000Y-42982000D03*
X284861000Y-42982000D03*
X283591000Y-42982000D03*
X283591000Y-49982000D03*
X284861000Y-49982000D03*
X286131000Y-49982000D03*
X287401000Y-49982000D03*
G04 #@! TD*
D17*
G04 #@! TO.C,C13*
X285813500Y-40132000D03*
X287718500Y-40132000D03*
G04 #@! TD*
G04 #@! TO.C,C14*
X287400500Y-53340000D03*
X285495500Y-53340000D03*
G04 #@! TD*
G04 #@! TO.C,R25*
X282321500Y-40132000D03*
X284226500Y-40132000D03*
G04 #@! TD*
G04 #@! TO.C,R26*
X278891500Y-40132000D03*
X280796500Y-40132000D03*
G04 #@! TD*
M02*
