G04 #@! TF.GenerationSoftware,KiCad,Pcbnew,(5.0.0)*
G04 #@! TF.CreationDate,2019-04-25T23:48:33-07:00*
G04 #@! TF.ProjectId,Arduino_Mega_6x,41726475696E6F5F4D6567615F36782E,rev?*
G04 #@! TF.SameCoordinates,Original*
G04 #@! TF.FileFunction,Copper,L1,Top,Signal*
G04 #@! TF.FilePolarity,Positive*
%FSLAX46Y46*%
G04 Gerber Fmt 4.6, Leading zero omitted, Abs format (unit mm)*
G04 Created by KiCad (PCBNEW (5.0.0)) date 04/25/19 23:48:33*
%MOMM*%
%LPD*%
G01*
G04 APERTURE LIST*
G04 #@! TA.AperFunction,ComponentPad*
%ADD10O,1.524000X2.540000*%
G04 #@! TD*
G04 #@! TA.AperFunction,ComponentPad*
%ADD11C,3.937000*%
G04 #@! TD*
G04 #@! TA.AperFunction,ComponentPad*
%ADD12C,1.524000*%
G04 #@! TD*
G04 #@! TA.AperFunction,ComponentPad*
%ADD13C,15.875000*%
G04 #@! TD*
G04 #@! TA.AperFunction,ComponentPad*
%ADD14C,1.500000*%
G04 #@! TD*
G04 #@! TA.AperFunction,SMDPad,CuDef*
%ADD15R,4.000000X0.500000*%
G04 #@! TD*
G04 #@! TA.AperFunction,SMDPad,CuDef*
%ADD16R,1.397000X0.889000*%
G04 #@! TD*
G04 #@! TA.AperFunction,SMDPad,CuDef*
%ADD17R,0.889000X1.397000*%
G04 #@! TD*
G04 #@! TA.AperFunction,SMDPad,CuDef*
%ADD18R,0.500000X2.800000*%
G04 #@! TD*
G04 #@! TA.AperFunction,ViaPad*
%ADD19C,0.889000*%
G04 #@! TD*
G04 #@! TA.AperFunction,Conductor*
%ADD20C,0.254000*%
G04 #@! TD*
G04 APERTURE END LIST*
D10*
G04 #@! TO.P,SHIELD1,14*
G04 #@! TO.N,Net-(SHIELD1-Pad14)*
X265430000Y-36830000D03*
G04 #@! TO.P,SHIELD1,15*
G04 #@! TO.N,Net-(SHIELD1-Pad15)*
X267970000Y-36830000D03*
G04 #@! TO.P,SHIELD1,16*
G04 #@! TO.N,Net-(SHIELD1-Pad16)*
X270510000Y-36830000D03*
G04 #@! TO.P,SHIELD1,17*
G04 #@! TO.N,Net-(SHIELD1-Pad17)*
X273050000Y-36830000D03*
G04 #@! TO.P,SHIELD1,18*
G04 #@! TO.N,Net-(SHIELD1-Pad18)*
X275590000Y-36830000D03*
G04 #@! TO.P,SHIELD1,19*
G04 #@! TO.N,Net-(SHIELD1-Pad19)*
X278130000Y-36830000D03*
G04 #@! TO.P,SHIELD1,20*
G04 #@! TO.N,Net-(R26-Pad1)*
X280670000Y-36830000D03*
G04 #@! TO.P,SHIELD1,21*
G04 #@! TO.N,Net-(R25-Pad2)*
X283210000Y-36830000D03*
G04 #@! TO.P,SHIELD1,AD15*
G04 #@! TO.N,Net-(SHIELD1-PadAD15)*
X288290000Y-85090000D03*
G04 #@! TO.P,SHIELD1,AD14*
G04 #@! TO.N,Net-(SHIELD1-PadAD14)*
X285750000Y-85090000D03*
G04 #@! TO.P,SHIELD1,AD13*
G04 #@! TO.N,Net-(SHIELD1-PadAD13)*
X283210000Y-85090000D03*
G04 #@! TO.P,SHIELD1,AD12*
G04 #@! TO.N,Net-(SHIELD1-PadAD12)*
X280670000Y-85090000D03*
G04 #@! TO.P,SHIELD1,AD8*
G04 #@! TO.N,Net-(SHIELD1-PadAD8)*
X270510000Y-85090000D03*
G04 #@! TO.P,SHIELD1,AD7*
G04 #@! TO.N,Net-(SHIELD1-PadAD7)*
X265430000Y-85090000D03*
G04 #@! TO.P,SHIELD1,AD6*
G04 #@! TO.N,Net-(R24-Pad2)*
X262890000Y-85090000D03*
G04 #@! TO.P,SHIELD1,AD9*
G04 #@! TO.N,Net-(SHIELD1-PadAD9)*
X273050000Y-85090000D03*
G04 #@! TO.P,SHIELD1,AD10*
G04 #@! TO.N,Net-(SHIELD1-PadAD10)*
X275590000Y-85090000D03*
G04 #@! TO.P,SHIELD1,AD11*
G04 #@! TO.N,Net-(SHIELD1-PadAD11)*
X278130000Y-85090000D03*
G04 #@! TO.P,SHIELD1,AD5*
G04 #@! TO.N,Net-(R17-Pad2)*
X260350000Y-85090000D03*
G04 #@! TO.P,SHIELD1,AD4*
G04 #@! TO.N,Net-(R16-Pad2)*
X257810000Y-85090000D03*
G04 #@! TO.P,SHIELD1,AD3*
G04 #@! TO.N,Net-(R9-Pad2)*
X255270000Y-85090000D03*
G04 #@! TO.P,SHIELD1,AD0*
G04 #@! TO.N,Net-(SHIELD1-PadAD0)*
X247650000Y-85090000D03*
G04 #@! TO.P,SHIELD1,AD1*
G04 #@! TO.N,Net-(R1-Pad2)*
X250190000Y-85090000D03*
G04 #@! TO.P,SHIELD1,AD2*
G04 #@! TO.N,Net-(R8-Pad2)*
X252730000Y-85090000D03*
G04 #@! TO.P,SHIELD1,V_IN*
G04 #@! TO.N,Net-(SHIELD1-PadV_IN)*
X242570000Y-85090000D03*
G04 #@! TO.P,SHIELD1,GND2*
G04 #@! TO.N,GND*
X240030000Y-85090000D03*
G04 #@! TO.P,SHIELD1,GND1*
X237490000Y-85090000D03*
G04 #@! TO.P,SHIELD1,3V3*
G04 #@! TO.N,+3.3V*
X232410000Y-85090000D03*
G04 #@! TO.P,SHIELD1,RST*
G04 #@! TO.N,Net-(SHIELD1-PadRST)*
X229870000Y-85090000D03*
G04 #@! TO.P,SHIELD1,0*
G04 #@! TO.N,Net-(SHIELD1-Pad0)*
X260350000Y-36830000D03*
G04 #@! TO.P,SHIELD1,1*
G04 #@! TO.N,Net-(SHIELD1-Pad1)*
X257810000Y-36830000D03*
G04 #@! TO.P,SHIELD1,2*
G04 #@! TO.N,Net-(SHIELD1-Pad2)*
X255270000Y-36830000D03*
G04 #@! TO.P,SHIELD1,3*
G04 #@! TO.N,Net-(SHIELD1-Pad3)*
X252730000Y-36830000D03*
G04 #@! TO.P,SHIELD1,4*
G04 #@! TO.N,Net-(SHIELD1-Pad4)*
X250190000Y-36830000D03*
G04 #@! TO.P,SHIELD1,5*
G04 #@! TO.N,Net-(SHIELD1-Pad5)*
X247650000Y-36830000D03*
G04 #@! TO.P,SHIELD1,6*
G04 #@! TO.N,Net-(SHIELD1-Pad6)*
X245110000Y-36830000D03*
G04 #@! TO.P,SHIELD1,7*
G04 #@! TO.N,Net-(SHIELD1-Pad7)*
X242570000Y-36830000D03*
G04 #@! TO.P,SHIELD1,8*
G04 #@! TO.N,Net-(SHIELD1-Pad8)*
X238506000Y-36830000D03*
G04 #@! TO.P,SHIELD1,9*
G04 #@! TO.N,Net-(SHIELD1-Pad9)*
X235966000Y-36830000D03*
G04 #@! TO.P,SHIELD1,10*
G04 #@! TO.N,Net-(SHIELD1-Pad10)*
X233426000Y-36830000D03*
G04 #@! TO.P,SHIELD1,11*
G04 #@! TO.N,Net-(SHIELD1-Pad11)*
X230886000Y-36830000D03*
G04 #@! TO.P,SHIELD1,12*
G04 #@! TO.N,Net-(SHIELD1-Pad12)*
X228346000Y-36830000D03*
G04 #@! TO.P,SHIELD1,13*
G04 #@! TO.N,Net-(SHIELD1-Pad13)*
X225806000Y-36830000D03*
G04 #@! TO.P,SHIELD1,GND3*
G04 #@! TO.N,GND*
X223266000Y-36830000D03*
G04 #@! TO.P,SHIELD1,AREF*
G04 #@! TO.N,Net-(SHIELD1-PadAREF)*
X220726000Y-36830000D03*
G04 #@! TO.P,SHIELD1,5V*
G04 #@! TO.N,+5V*
X234950000Y-85090000D03*
D11*
G04 #@! TO.P,SHIELD1,*
G04 #@! TO.N,*
X293370000Y-85090000D03*
X287020000Y-36830000D03*
X212090000Y-36830000D03*
X210820000Y-85090000D03*
D12*
G04 #@! TO.P,SHIELD1,22*
G04 #@! TO.N,Net-(SHIELD1-Pad22)*
X290830000Y-39370000D03*
G04 #@! TO.P,SHIELD1,23*
G04 #@! TO.N,Net-(SHIELD1-Pad23)*
X293370000Y-39370000D03*
G04 #@! TO.P,SHIELD1,24*
G04 #@! TO.N,Net-(SHIELD1-Pad24)*
X290830000Y-41910000D03*
G04 #@! TO.P,SHIELD1,25*
G04 #@! TO.N,Net-(SHIELD1-Pad25)*
X293370000Y-41910000D03*
G04 #@! TO.P,SHIELD1,26*
G04 #@! TO.N,Net-(SHIELD1-Pad26)*
X290830000Y-44450000D03*
G04 #@! TO.P,SHIELD1,27*
G04 #@! TO.N,Net-(SHIELD1-Pad27)*
X293370000Y-44450000D03*
G04 #@! TO.P,SHIELD1,28*
G04 #@! TO.N,Net-(SHIELD1-Pad28)*
X290830000Y-46990000D03*
G04 #@! TO.P,SHIELD1,29*
G04 #@! TO.N,Net-(SHIELD1-Pad29)*
X293370000Y-46990000D03*
G04 #@! TO.P,SHIELD1,5V_4*
G04 #@! TO.N,Net-(SHIELD1-Pad5V_4)*
X290830000Y-36830000D03*
G04 #@! TO.P,SHIELD1,5V_5*
G04 #@! TO.N,Net-(SHIELD1-Pad5V_5)*
X293370000Y-36830000D03*
G04 #@! TO.P,SHIELD1,31*
G04 #@! TO.N,Net-(SHIELD1-Pad31)*
X293370000Y-49530000D03*
G04 #@! TO.P,SHIELD1,30*
G04 #@! TO.N,Net-(SHIELD1-Pad30)*
X290830000Y-49530000D03*
G04 #@! TO.P,SHIELD1,32*
G04 #@! TO.N,Net-(SHIELD1-Pad32)*
X290830000Y-52070000D03*
G04 #@! TO.P,SHIELD1,33*
G04 #@! TO.N,Net-(SHIELD1-Pad33)*
X293370000Y-52070000D03*
G04 #@! TO.P,SHIELD1,34*
G04 #@! TO.N,Net-(SHIELD1-Pad34)*
X290830000Y-54610000D03*
G04 #@! TO.P,SHIELD1,35*
G04 #@! TO.N,Net-(SHIELD1-Pad35)*
X293370000Y-54610000D03*
G04 #@! TO.P,SHIELD1,36*
G04 #@! TO.N,Net-(SHIELD1-Pad36)*
X290830000Y-57150000D03*
G04 #@! TO.P,SHIELD1,37*
G04 #@! TO.N,Net-(SHIELD1-Pad37)*
X293370000Y-57150000D03*
G04 #@! TO.P,SHIELD1,38*
G04 #@! TO.N,Net-(SHIELD1-Pad38)*
X290830000Y-59690000D03*
G04 #@! TO.P,SHIELD1,39*
G04 #@! TO.N,Net-(SHIELD1-Pad39)*
X293370000Y-59690000D03*
G04 #@! TO.P,SHIELD1,40*
G04 #@! TO.N,Net-(SHIELD1-Pad40)*
X290830000Y-62230000D03*
G04 #@! TO.P,SHIELD1,41*
G04 #@! TO.N,Net-(SHIELD1-Pad41)*
X293370000Y-62230000D03*
G04 #@! TO.P,SHIELD1,42*
G04 #@! TO.N,Net-(SHIELD1-Pad42)*
X290830000Y-64770000D03*
G04 #@! TO.P,SHIELD1,43*
G04 #@! TO.N,Net-(SHIELD1-Pad43)*
X293370000Y-64770000D03*
G04 #@! TO.P,SHIELD1,44*
G04 #@! TO.N,Net-(SHIELD1-Pad44)*
X290830000Y-67310000D03*
G04 #@! TO.P,SHIELD1,45*
G04 #@! TO.N,Net-(SHIELD1-Pad45)*
X293370000Y-67310000D03*
G04 #@! TO.P,SHIELD1,46*
G04 #@! TO.N,Net-(SHIELD1-Pad46)*
X290830000Y-69850000D03*
G04 #@! TO.P,SHIELD1,47*
G04 #@! TO.N,Net-(SHIELD1-Pad47)*
X293370000Y-69850000D03*
G04 #@! TO.P,SHIELD1,48*
G04 #@! TO.N,Net-(SHIELD1-Pad48)*
X290830000Y-72390000D03*
G04 #@! TO.P,SHIELD1,49*
G04 #@! TO.N,Net-(SHIELD1-Pad49)*
X293370000Y-72390000D03*
G04 #@! TO.P,SHIELD1,50*
G04 #@! TO.N,Net-(SHIELD1-Pad50)*
X290830000Y-74930000D03*
G04 #@! TO.P,SHIELD1,51*
G04 #@! TO.N,Net-(SHIELD1-Pad51)*
X293370000Y-74930000D03*
G04 #@! TO.P,SHIELD1,52*
G04 #@! TO.N,Net-(SHIELD1-Pad52)*
X290830000Y-77470000D03*
G04 #@! TO.P,SHIELD1,53*
G04 #@! TO.N,Net-(SHIELD1-Pad53)*
X293370000Y-77470000D03*
G04 #@! TO.P,SHIELD1,GND4*
G04 #@! TO.N,GND*
X290830000Y-80010000D03*
G04 #@! TO.P,SHIELD1,GND5*
X293370000Y-80010000D03*
G04 #@! TD*
D13*
G04 #@! TO.P,U1,*
G04 #@! TO.N,*
X209550000Y-47625000D03*
D14*
G04 #@! TO.P,U1,1*
G04 #@! TO.N,Net-(R1-Pad1)*
X218440000Y-48628300D03*
G04 #@! TO.P,U1,*
G04 #@! TO.N,*
X210553300Y-56515000D03*
X208546700Y-56515000D03*
G04 #@! TO.P,U1,6*
G04 #@! TO.N,Net-(R1-Pad1)*
X218440000Y-46621700D03*
G04 #@! TO.P,U1,4*
G04 #@! TO.N,Net-(C5-Pad1)*
X200660000Y-48628300D03*
G04 #@! TO.P,U1,5*
G04 #@! TO.N,Net-(C5-Pad2)*
X200660000Y-46621700D03*
G04 #@! TD*
D13*
G04 #@! TO.P,U3,*
G04 #@! TO.N,*
X265430000Y-47625000D03*
D14*
G04 #@! TO.P,U3,1*
G04 #@! TO.N,Net-(R17-Pad1)*
X274320000Y-48628300D03*
G04 #@! TO.P,U3,*
G04 #@! TO.N,*
X266433300Y-56515000D03*
X264426700Y-56515000D03*
G04 #@! TO.P,U3,6*
G04 #@! TO.N,Net-(R17-Pad1)*
X274320000Y-46621700D03*
G04 #@! TO.P,U3,4*
G04 #@! TO.N,Net-(C9-Pad1)*
X256540000Y-48628300D03*
G04 #@! TO.P,U3,5*
G04 #@! TO.N,Net-(C9-Pad2)*
X256540000Y-46621700D03*
G04 #@! TD*
D13*
G04 #@! TO.P,U2,*
G04 #@! TO.N,*
X237490000Y-47625000D03*
D14*
G04 #@! TO.P,U2,1*
G04 #@! TO.N,Net-(R9-Pad1)*
X246380000Y-48628300D03*
G04 #@! TO.P,U2,*
G04 #@! TO.N,*
X238493300Y-56515000D03*
X236486700Y-56515000D03*
G04 #@! TO.P,U2,6*
G04 #@! TO.N,Net-(R9-Pad1)*
X246380000Y-46621700D03*
G04 #@! TO.P,U2,4*
G04 #@! TO.N,Net-(C7-Pad1)*
X228600000Y-48628300D03*
G04 #@! TO.P,U2,5*
G04 #@! TO.N,Net-(C7-Pad2)*
X228600000Y-46621700D03*
G04 #@! TD*
D13*
G04 #@! TO.P,U4,*
G04 #@! TO.N,*
X209550000Y-71755000D03*
D14*
G04 #@! TO.P,U4,1*
G04 #@! TO.N,Net-(R8-Pad1)*
X200660000Y-70751700D03*
G04 #@! TO.P,U4,*
G04 #@! TO.N,*
X208546700Y-62865000D03*
X210553300Y-62865000D03*
G04 #@! TO.P,U4,6*
G04 #@! TO.N,Net-(R8-Pad1)*
X200660000Y-72758300D03*
G04 #@! TO.P,U4,4*
G04 #@! TO.N,Net-(C4-Pad2)*
X218440000Y-70751700D03*
G04 #@! TO.P,U4,5*
G04 #@! TO.N,Net-(C4-Pad1)*
X218440000Y-72758300D03*
G04 #@! TD*
D13*
G04 #@! TO.P,U5,*
G04 #@! TO.N,*
X237490000Y-71755000D03*
D14*
G04 #@! TO.P,U5,1*
G04 #@! TO.N,Net-(R16-Pad1)*
X228600000Y-70751700D03*
G04 #@! TO.P,U5,*
G04 #@! TO.N,*
X236486700Y-62865000D03*
X238493300Y-62865000D03*
G04 #@! TO.P,U5,6*
G04 #@! TO.N,Net-(R16-Pad1)*
X228600000Y-72758300D03*
G04 #@! TO.P,U5,4*
G04 #@! TO.N,Net-(C6-Pad2)*
X246380000Y-70751700D03*
G04 #@! TO.P,U5,5*
G04 #@! TO.N,Net-(C6-Pad1)*
X246380000Y-72758300D03*
G04 #@! TD*
D13*
G04 #@! TO.P,U6,*
G04 #@! TO.N,*
X265430000Y-71755000D03*
D14*
G04 #@! TO.P,U6,1*
G04 #@! TO.N,Net-(R24-Pad1)*
X256540000Y-70751700D03*
G04 #@! TO.P,U6,*
G04 #@! TO.N,*
X264426700Y-62865000D03*
X266433300Y-62865000D03*
G04 #@! TO.P,U6,6*
G04 #@! TO.N,Net-(R24-Pad1)*
X256540000Y-72758300D03*
G04 #@! TO.P,U6,4*
G04 #@! TO.N,Net-(C8-Pad2)*
X274320000Y-70751700D03*
G04 #@! TO.P,U6,5*
G04 #@! TO.N,Net-(C8-Pad1)*
X274320000Y-72758300D03*
G04 #@! TD*
D15*
G04 #@! TO.P,U9,1*
G04 #@! TO.N,Net-(R17-Pad2)*
X275400000Y-55880000D03*
G04 #@! TO.P,U9,2*
G04 #@! TO.N,Net-(R17-Pad1)*
X275400000Y-57150000D03*
G04 #@! TO.P,U9,3*
G04 #@! TO.N,Net-(R19-Pad1)*
X275400000Y-58420000D03*
G04 #@! TO.P,U9,4*
G04 #@! TO.N,+3.3V*
X275400000Y-59690000D03*
G04 #@! TO.P,U9,5*
G04 #@! TO.N,Net-(R22-Pad2)*
X275400000Y-60960000D03*
G04 #@! TO.P,U9,6*
G04 #@! TO.N,Net-(C8-Pad2)*
X275400000Y-62230000D03*
G04 #@! TO.P,U9,7*
G04 #@! TO.N,Net-(C8-Pad1)*
X275400000Y-63500000D03*
G04 #@! TO.P,U9,8*
G04 #@! TO.N,Net-(R24-Pad2)*
X283400000Y-63500000D03*
G04 #@! TO.P,U9,9*
G04 #@! TO.N,Net-(R24-Pad1)*
X283400000Y-62230000D03*
G04 #@! TO.P,U9,10*
G04 #@! TO.N,Net-(R21-Pad1)*
X283400000Y-60960000D03*
G04 #@! TO.P,U9,11*
G04 #@! TO.N,GND*
X283400000Y-59690000D03*
G04 #@! TO.P,U9,12*
G04 #@! TO.N,Net-(R18-Pad2)*
X283400000Y-58420000D03*
G04 #@! TO.P,U9,13*
G04 #@! TO.N,Net-(C9-Pad1)*
X283400000Y-57150000D03*
G04 #@! TO.P,U9,14*
G04 #@! TO.N,Net-(C9-Pad2)*
X283400000Y-55880000D03*
G04 #@! TD*
G04 #@! TO.P,U7,1*
G04 #@! TO.N,Net-(R1-Pad2)*
X219520000Y-55880000D03*
G04 #@! TO.P,U7,2*
G04 #@! TO.N,Net-(R1-Pad1)*
X219520000Y-57150000D03*
G04 #@! TO.P,U7,3*
G04 #@! TO.N,Net-(R3-Pad1)*
X219520000Y-58420000D03*
G04 #@! TO.P,U7,4*
G04 #@! TO.N,+3.3V*
X219520000Y-59690000D03*
G04 #@! TO.P,U7,5*
G04 #@! TO.N,Net-(R6-Pad2)*
X219520000Y-60960000D03*
G04 #@! TO.P,U7,6*
G04 #@! TO.N,Net-(C4-Pad2)*
X219520000Y-62230000D03*
G04 #@! TO.P,U7,7*
G04 #@! TO.N,Net-(C4-Pad1)*
X219520000Y-63500000D03*
G04 #@! TO.P,U7,8*
G04 #@! TO.N,Net-(R8-Pad2)*
X227520000Y-63500000D03*
G04 #@! TO.P,U7,9*
G04 #@! TO.N,Net-(R8-Pad1)*
X227520000Y-62230000D03*
G04 #@! TO.P,U7,10*
G04 #@! TO.N,Net-(R5-Pad1)*
X227520000Y-60960000D03*
G04 #@! TO.P,U7,11*
G04 #@! TO.N,GND*
X227520000Y-59690000D03*
G04 #@! TO.P,U7,12*
G04 #@! TO.N,Net-(R2-Pad2)*
X227520000Y-58420000D03*
G04 #@! TO.P,U7,13*
G04 #@! TO.N,Net-(C5-Pad1)*
X227520000Y-57150000D03*
G04 #@! TO.P,U7,14*
G04 #@! TO.N,Net-(C5-Pad2)*
X227520000Y-55880000D03*
G04 #@! TD*
G04 #@! TO.P,U8,1*
G04 #@! TO.N,Net-(R9-Pad2)*
X247460000Y-55880000D03*
G04 #@! TO.P,U8,2*
G04 #@! TO.N,Net-(R9-Pad1)*
X247460000Y-57150000D03*
G04 #@! TO.P,U8,3*
G04 #@! TO.N,Net-(R11-Pad1)*
X247460000Y-58420000D03*
G04 #@! TO.P,U8,4*
G04 #@! TO.N,+3.3V*
X247460000Y-59690000D03*
G04 #@! TO.P,U8,5*
G04 #@! TO.N,Net-(R14-Pad2)*
X247460000Y-60960000D03*
G04 #@! TO.P,U8,6*
G04 #@! TO.N,Net-(C6-Pad2)*
X247460000Y-62230000D03*
G04 #@! TO.P,U8,7*
G04 #@! TO.N,Net-(C6-Pad1)*
X247460000Y-63500000D03*
G04 #@! TO.P,U8,8*
G04 #@! TO.N,Net-(R16-Pad2)*
X255460000Y-63500000D03*
G04 #@! TO.P,U8,9*
G04 #@! TO.N,Net-(R16-Pad1)*
X255460000Y-62230000D03*
G04 #@! TO.P,U8,10*
G04 #@! TO.N,Net-(R13-Pad1)*
X255460000Y-60960000D03*
G04 #@! TO.P,U8,11*
G04 #@! TO.N,GND*
X255460000Y-59690000D03*
G04 #@! TO.P,U8,12*
G04 #@! TO.N,Net-(R10-Pad2)*
X255460000Y-58420000D03*
G04 #@! TO.P,U8,13*
G04 #@! TO.N,Net-(C7-Pad1)*
X255460000Y-57150000D03*
G04 #@! TO.P,U8,14*
G04 #@! TO.N,Net-(C7-Pad2)*
X255460000Y-55880000D03*
G04 #@! TD*
D16*
G04 #@! TO.P,R1,1*
G04 #@! TO.N,Net-(R1-Pad1)*
X216027000Y-57467500D03*
G04 #@! TO.P,R1,2*
G04 #@! TO.N,Net-(R1-Pad2)*
X216027000Y-55562500D03*
G04 #@! TD*
G04 #@! TO.P,R8,1*
G04 #@! TO.N,Net-(R8-Pad1)*
X231013000Y-61912500D03*
G04 #@! TO.P,R8,2*
G04 #@! TO.N,Net-(R8-Pad2)*
X231013000Y-63817500D03*
G04 #@! TD*
D17*
G04 #@! TO.P,R3,1*
G04 #@! TO.N,Net-(R3-Pad1)*
X222567500Y-50800000D03*
G04 #@! TO.P,R3,2*
G04 #@! TO.N,Net-(R2-Pad2)*
X224472500Y-50800000D03*
G04 #@! TD*
G04 #@! TO.P,R4,1*
G04 #@! TO.N,Net-(R3-Pad1)*
X222567500Y-53340000D03*
G04 #@! TO.P,R4,2*
G04 #@! TO.N,GND*
X224472500Y-53340000D03*
G04 #@! TD*
G04 #@! TO.P,R2,1*
G04 #@! TO.N,+3.3V*
X222567500Y-48260000D03*
G04 #@! TO.P,R2,2*
G04 #@! TO.N,Net-(R2-Pad2)*
X224472500Y-48260000D03*
G04 #@! TD*
G04 #@! TO.P,R6,1*
G04 #@! TO.N,Net-(R5-Pad1)*
X222567500Y-68580000D03*
G04 #@! TO.P,R6,2*
G04 #@! TO.N,Net-(R6-Pad2)*
X224472500Y-68580000D03*
G04 #@! TD*
G04 #@! TO.P,R5,1*
G04 #@! TO.N,Net-(R5-Pad1)*
X222567500Y-66040000D03*
G04 #@! TO.P,R5,2*
G04 #@! TO.N,GND*
X224472500Y-66040000D03*
G04 #@! TD*
G04 #@! TO.P,R7,1*
G04 #@! TO.N,+3.3V*
X222567500Y-71120000D03*
G04 #@! TO.P,R7,2*
G04 #@! TO.N,Net-(R6-Pad2)*
X224472500Y-71120000D03*
G04 #@! TD*
D16*
G04 #@! TO.P,R9,1*
G04 #@! TO.N,Net-(R9-Pad1)*
X243967000Y-57467500D03*
G04 #@! TO.P,R9,2*
G04 #@! TO.N,Net-(R9-Pad2)*
X243967000Y-55562500D03*
G04 #@! TD*
G04 #@! TO.P,R16,1*
G04 #@! TO.N,Net-(R16-Pad1)*
X258953000Y-61912500D03*
G04 #@! TO.P,R16,2*
G04 #@! TO.N,Net-(R16-Pad2)*
X258953000Y-63817500D03*
G04 #@! TD*
D17*
G04 #@! TO.P,R11,1*
G04 #@! TO.N,Net-(R11-Pad1)*
X250507500Y-50800000D03*
G04 #@! TO.P,R11,2*
G04 #@! TO.N,Net-(R10-Pad2)*
X252412500Y-50800000D03*
G04 #@! TD*
G04 #@! TO.P,R12,1*
G04 #@! TO.N,Net-(R11-Pad1)*
X250507500Y-53340000D03*
G04 #@! TO.P,R12,2*
G04 #@! TO.N,GND*
X252412500Y-53340000D03*
G04 #@! TD*
G04 #@! TO.P,R10,1*
G04 #@! TO.N,+3.3V*
X250507500Y-48260000D03*
G04 #@! TO.P,R10,2*
G04 #@! TO.N,Net-(R10-Pad2)*
X252412500Y-48260000D03*
G04 #@! TD*
G04 #@! TO.P,R14,1*
G04 #@! TO.N,Net-(R13-Pad1)*
X250507500Y-68580000D03*
G04 #@! TO.P,R14,2*
G04 #@! TO.N,Net-(R14-Pad2)*
X252412500Y-68580000D03*
G04 #@! TD*
G04 #@! TO.P,R13,1*
G04 #@! TO.N,Net-(R13-Pad1)*
X250507500Y-66040000D03*
G04 #@! TO.P,R13,2*
G04 #@! TO.N,GND*
X252412500Y-66040000D03*
G04 #@! TD*
G04 #@! TO.P,R15,1*
G04 #@! TO.N,+3.3V*
X250507500Y-71120000D03*
G04 #@! TO.P,R15,2*
G04 #@! TO.N,Net-(R14-Pad2)*
X252412500Y-71120000D03*
G04 #@! TD*
D16*
G04 #@! TO.P,R17,1*
G04 #@! TO.N,Net-(R17-Pad1)*
X271907000Y-57467500D03*
G04 #@! TO.P,R17,2*
G04 #@! TO.N,Net-(R17-Pad2)*
X271907000Y-55562500D03*
G04 #@! TD*
G04 #@! TO.P,R24,1*
G04 #@! TO.N,Net-(R24-Pad1)*
X286893000Y-61912500D03*
G04 #@! TO.P,R24,2*
G04 #@! TO.N,Net-(R24-Pad2)*
X286893000Y-63817500D03*
G04 #@! TD*
D17*
G04 #@! TO.P,R19,1*
G04 #@! TO.N,Net-(R19-Pad1)*
X278447500Y-50800000D03*
G04 #@! TO.P,R19,2*
G04 #@! TO.N,Net-(R18-Pad2)*
X280352500Y-50800000D03*
G04 #@! TD*
G04 #@! TO.P,R20,1*
G04 #@! TO.N,Net-(R19-Pad1)*
X278447500Y-53340000D03*
G04 #@! TO.P,R20,2*
G04 #@! TO.N,GND*
X280352500Y-53340000D03*
G04 #@! TD*
G04 #@! TO.P,R18,1*
G04 #@! TO.N,+3.3V*
X278447500Y-48260000D03*
G04 #@! TO.P,R18,2*
G04 #@! TO.N,Net-(R18-Pad2)*
X280352500Y-48260000D03*
G04 #@! TD*
G04 #@! TO.P,R22,1*
G04 #@! TO.N,Net-(R21-Pad1)*
X278447500Y-68580000D03*
G04 #@! TO.P,R22,2*
G04 #@! TO.N,Net-(R22-Pad2)*
X280352500Y-68580000D03*
G04 #@! TD*
G04 #@! TO.P,R21,1*
G04 #@! TO.N,Net-(R21-Pad1)*
X278447500Y-66040000D03*
G04 #@! TO.P,R21,2*
G04 #@! TO.N,GND*
X280352500Y-66040000D03*
G04 #@! TD*
G04 #@! TO.P,R23,1*
G04 #@! TO.N,+3.3V*
X278447500Y-71120000D03*
G04 #@! TO.P,R23,2*
G04 #@! TO.N,Net-(R22-Pad2)*
X280352500Y-71120000D03*
G04 #@! TD*
G04 #@! TO.P,C1,1*
G04 #@! TO.N,+3.3V*
X216344500Y-59690000D03*
G04 #@! TO.P,C1,2*
G04 #@! TO.N,GND*
X214439500Y-59690000D03*
G04 #@! TD*
G04 #@! TO.P,C2,1*
G04 #@! TO.N,+3.3V*
X244157500Y-59690000D03*
G04 #@! TO.P,C2,2*
G04 #@! TO.N,GND*
X242252500Y-59690000D03*
G04 #@! TD*
G04 #@! TO.P,C3,1*
G04 #@! TO.N,+3.3V*
X272097500Y-59690000D03*
G04 #@! TO.P,C3,2*
G04 #@! TO.N,GND*
X270192500Y-59690000D03*
G04 #@! TD*
D16*
G04 #@! TO.P,C5,1*
G04 #@! TO.N,Net-(C5-Pad1)*
X231013000Y-57467500D03*
G04 #@! TO.P,C5,2*
G04 #@! TO.N,Net-(C5-Pad2)*
X231013000Y-55562500D03*
G04 #@! TD*
G04 #@! TO.P,C4,1*
G04 #@! TO.N,Net-(C4-Pad1)*
X216027000Y-63817500D03*
G04 #@! TO.P,C4,2*
G04 #@! TO.N,Net-(C4-Pad2)*
X216027000Y-61912500D03*
G04 #@! TD*
G04 #@! TO.P,C6,1*
G04 #@! TO.N,Net-(C6-Pad1)*
X243967000Y-63817500D03*
G04 #@! TO.P,C6,2*
G04 #@! TO.N,Net-(C6-Pad2)*
X243967000Y-61912500D03*
G04 #@! TD*
G04 #@! TO.P,C8,1*
G04 #@! TO.N,Net-(C8-Pad1)*
X271907000Y-63817500D03*
G04 #@! TO.P,C8,2*
G04 #@! TO.N,Net-(C8-Pad2)*
X271907000Y-61912500D03*
G04 #@! TD*
G04 #@! TO.P,C9,1*
G04 #@! TO.N,Net-(C9-Pad1)*
X287020000Y-57086500D03*
G04 #@! TO.P,C9,2*
G04 #@! TO.N,Net-(C9-Pad2)*
X287020000Y-55181500D03*
G04 #@! TD*
G04 #@! TO.P,C7,1*
G04 #@! TO.N,Net-(C7-Pad1)*
X258953000Y-57467500D03*
G04 #@! TO.P,C7,2*
G04 #@! TO.N,Net-(C7-Pad2)*
X258953000Y-55562500D03*
G04 #@! TD*
D18*
G04 #@! TO.P,U11,1*
G04 #@! TO.N,Net-(C13-Pad2)*
X287401000Y-42982000D03*
G04 #@! TO.P,U11,2*
G04 #@! TO.N,GND*
X286131000Y-42982000D03*
G04 #@! TO.P,U11,3*
G04 #@! TO.N,Net-(R25-Pad2)*
X284861000Y-42982000D03*
G04 #@! TO.P,U11,4*
G04 #@! TO.N,Net-(R26-Pad1)*
X283591000Y-42982000D03*
G04 #@! TO.P,U11,5*
G04 #@! TO.N,Net-(U11-Pad5)*
X283591000Y-49982000D03*
G04 #@! TO.P,U11,6*
G04 #@! TO.N,Net-(U11-Pad6)*
X284861000Y-49982000D03*
G04 #@! TO.P,U11,7*
G04 #@! TO.N,Net-(U11-Pad7)*
X286131000Y-49982000D03*
G04 #@! TO.P,U11,8*
G04 #@! TO.N,+5V*
X287401000Y-49982000D03*
G04 #@! TD*
D17*
G04 #@! TO.P,C13,1*
G04 #@! TO.N,GND*
X285813500Y-40132000D03*
G04 #@! TO.P,C13,2*
G04 #@! TO.N,Net-(C13-Pad2)*
X287718500Y-40132000D03*
G04 #@! TD*
G04 #@! TO.P,C14,1*
G04 #@! TO.N,+5V*
X287400500Y-53340000D03*
G04 #@! TO.P,C14,2*
G04 #@! TO.N,GND*
X285495500Y-53340000D03*
G04 #@! TD*
G04 #@! TO.P,R25,1*
G04 #@! TO.N,+5V*
X282321500Y-40132000D03*
G04 #@! TO.P,R25,2*
G04 #@! TO.N,Net-(R25-Pad2)*
X284226500Y-40132000D03*
G04 #@! TD*
G04 #@! TO.P,R26,1*
G04 #@! TO.N,Net-(R26-Pad1)*
X278891500Y-40132000D03*
G04 #@! TO.P,R26,2*
G04 #@! TO.N,+5V*
X280796500Y-40132000D03*
G04 #@! TD*
D19*
G04 #@! TO.N,+5V*
X249294400Y-48177900D03*
G04 #@! TO.N,GND*
X212935600Y-56823100D03*
X252009300Y-54744700D03*
X252669400Y-64552200D03*
G04 #@! TO.N,Net-(C5-Pad1)*
X231019500Y-58612400D03*
G04 #@! TO.N,Net-(C9-Pad1)*
X281215800Y-54921000D03*
G04 #@! TO.N,Net-(R1-Pad2)*
X236036200Y-82086800D03*
X222144600Y-56494800D03*
G04 #@! TO.N,Net-(R8-Pad1)*
X224483600Y-62333900D03*
G04 #@! TO.N,Net-(R9-Pad2)*
X250402300Y-55880000D03*
G04 #@! TO.N,Net-(R17-Pad2)*
X267858100Y-58488000D03*
G04 #@! TD*
D20*
G04 #@! TO.N,+3.3V*
X232410000Y-85090000D02*
X232410000Y-83438700D01*
X222154600Y-71120000D02*
X222154600Y-73183300D01*
X222154600Y-73183300D02*
X232410000Y-83438700D01*
X222154600Y-71120000D02*
X221741700Y-71120000D01*
X222567500Y-71120000D02*
X222154600Y-71120000D01*
X217091100Y-59737600D02*
X217122200Y-59768700D01*
X217122200Y-59768700D02*
X217122200Y-61363600D01*
X217122200Y-61363600D02*
X217350000Y-61591400D01*
X217350000Y-61591400D02*
X221676300Y-61591400D01*
X221676300Y-61591400D02*
X221901400Y-61816500D01*
X221901400Y-61816500D02*
X221901400Y-63924400D01*
X221901400Y-63924400D02*
X221200800Y-64625000D01*
X221200800Y-64625000D02*
X221200800Y-70579100D01*
X221200800Y-70579100D02*
X221741700Y-71120000D01*
X217091100Y-59737600D02*
X216805000Y-59737600D01*
X216805000Y-59737600D02*
X216757400Y-59690000D01*
X217138700Y-59690000D02*
X217091100Y-59737600D01*
X223511700Y-59143900D02*
X222447400Y-59143900D01*
X222447400Y-59143900D02*
X221901300Y-59690000D01*
X243331700Y-59690000D02*
X243331700Y-60309300D01*
X243331700Y-60309300D02*
X242871100Y-60769900D01*
X242871100Y-60769900D02*
X232884500Y-60769900D01*
X232884500Y-60769900D02*
X232436000Y-60321400D01*
X232436000Y-60321400D02*
X224689200Y-60321400D01*
X224689200Y-60321400D02*
X223511700Y-59143900D01*
X223511700Y-59143900D02*
X223511700Y-48378400D01*
X223511700Y-48378400D02*
X223393300Y-48260000D01*
X219520000Y-59690000D02*
X221901300Y-59690000D01*
X219520000Y-59690000D02*
X217138700Y-59690000D01*
X222567500Y-48260000D02*
X223393300Y-48260000D01*
X250349600Y-59690000D02*
X250984500Y-59055100D01*
X250984500Y-59055100D02*
X259771100Y-59055100D01*
X259771100Y-59055100D02*
X262337100Y-56489100D01*
X216551000Y-59690000D02*
X216757400Y-59690000D01*
X216344500Y-59690000D02*
X216492700Y-59690000D01*
X216551000Y-59690000D02*
X216492700Y-59690000D01*
X250507500Y-48260000D02*
X251333300Y-48260000D01*
X262337100Y-56489100D02*
X253028100Y-47180100D01*
X253028100Y-47180100D02*
X251793800Y-47180100D01*
X251793800Y-47180100D02*
X251333300Y-47640600D01*
X251333300Y-47640600D02*
X251333300Y-48260000D01*
X262337100Y-56489100D02*
X263550800Y-57702800D01*
X263550800Y-57702800D02*
X267032200Y-57702800D01*
X272097500Y-60769800D02*
X268936700Y-60769800D01*
X268936700Y-60769800D02*
X267032200Y-58865300D01*
X267032200Y-58865300D02*
X267032200Y-57702800D01*
X277621700Y-71120000D02*
X277061500Y-70559800D01*
X277061500Y-70559800D02*
X277061500Y-64696600D01*
X277061500Y-64696600D02*
X277781300Y-63976800D01*
X277781300Y-63976800D02*
X277781300Y-61818300D01*
X277781300Y-61818300D02*
X277558000Y-61595000D01*
X277558000Y-61595000D02*
X273138700Y-61595000D01*
X273138700Y-61595000D02*
X273005800Y-61462100D01*
X273005800Y-61462100D02*
X273005800Y-61329100D01*
X273005800Y-61329100D02*
X272446600Y-60769900D01*
X272446600Y-60769900D02*
X272097500Y-60769900D01*
X272097500Y-60769900D02*
X272097500Y-60769800D01*
X267032200Y-57702800D02*
X267468700Y-57702800D01*
X267468700Y-57702800D02*
X276911500Y-48260000D01*
X276911500Y-48260000D02*
X278447500Y-48260000D01*
X249714200Y-59690000D02*
X250349600Y-59690000D01*
X249681700Y-71120000D02*
X249681700Y-65059100D01*
X249681700Y-65059100D02*
X250349600Y-64391200D01*
X250349600Y-64391200D02*
X250349600Y-59690000D01*
X247460000Y-59690000D02*
X249714200Y-59690000D01*
X244157500Y-59690000D02*
X243331700Y-59690000D01*
X247460000Y-59690000D02*
X244157500Y-59690000D01*
X250507500Y-71120000D02*
X249681700Y-71120000D01*
X272097500Y-59690000D02*
X272097500Y-60769800D01*
X278447500Y-71120000D02*
X277621700Y-71120000D01*
X272097500Y-59690000D02*
X273018700Y-59690000D01*
X275400000Y-59690000D02*
X273018700Y-59690000D01*
G04 #@! TO.N,+5V*
X287401000Y-49982000D02*
X287401000Y-48200700D01*
X287401000Y-48200700D02*
X286582900Y-48200700D01*
X286582900Y-48200700D02*
X282321500Y-43939300D01*
X282321500Y-43939300D02*
X282321500Y-40132000D01*
X287400500Y-52260200D02*
X287401000Y-52259700D01*
X287401000Y-52259700D02*
X287401000Y-49982000D01*
X281003000Y-40132000D02*
X279923100Y-41211900D01*
X279923100Y-41211900D02*
X278065600Y-41211900D01*
X278065600Y-41211900D02*
X275576000Y-38722300D01*
X275576000Y-38722300D02*
X258348200Y-38722300D01*
X258348200Y-38722300D02*
X249294400Y-47776100D01*
X249294400Y-47776100D02*
X249294400Y-48177900D01*
X281003000Y-40132000D02*
X281622300Y-40132000D01*
X280796500Y-40132000D02*
X281003000Y-40132000D01*
X282321500Y-40132000D02*
X281622300Y-40132000D01*
X287400500Y-53340000D02*
X287400500Y-52260200D01*
G04 #@! TO.N,GND*
X290830000Y-80010000D02*
X293370000Y-80010000D01*
X287692500Y-62861400D02*
X289433400Y-64602300D01*
X289433400Y-64602300D02*
X289433400Y-78613400D01*
X289433400Y-78613400D02*
X290830000Y-80010000D01*
X212935600Y-56823100D02*
X214439500Y-58327000D01*
X214439500Y-58327000D02*
X214439500Y-59690000D01*
X232119000Y-59690000D02*
X241426700Y-59690000D01*
X229901300Y-59690000D02*
X232119000Y-59690000D01*
X232119000Y-59690000D02*
X232119000Y-54793300D01*
X232119000Y-54793300D02*
X227445000Y-50119300D01*
X227445000Y-50119300D02*
X227445000Y-42660300D01*
X227445000Y-42660300D02*
X223266000Y-38481300D01*
X223266000Y-36830000D02*
X223266000Y-38481300D01*
X224472500Y-53340000D02*
X224472500Y-54419800D01*
X227520000Y-59690000D02*
X225138700Y-59690000D01*
X225138700Y-59690000D02*
X224472500Y-59023800D01*
X224472500Y-59023800D02*
X224472500Y-54419800D01*
X228710700Y-59690000D02*
X227520000Y-59690000D01*
X228710700Y-59690000D02*
X229901300Y-59690000D01*
X252412500Y-54419800D02*
X252087600Y-54744700D01*
X252087600Y-54744700D02*
X252009300Y-54744700D01*
X281178300Y-66040000D02*
X281727100Y-66588800D01*
X281727100Y-66588800D02*
X281727100Y-72161600D01*
X281727100Y-72161600D02*
X273271800Y-80616900D01*
X273271800Y-80616900D02*
X261760500Y-80616900D01*
X261760500Y-80616900D02*
X255392500Y-74248900D01*
X255392500Y-74248900D02*
X255392500Y-69835600D01*
X255392500Y-69835600D02*
X260032900Y-65195200D01*
X260032900Y-65195200D02*
X260032900Y-63215200D01*
X260032900Y-63215200D02*
X259679200Y-62861500D01*
X280352500Y-66040000D02*
X281178300Y-66040000D01*
X280352500Y-66040000D02*
X280352500Y-63731200D01*
X280352500Y-63731200D02*
X281222300Y-62861400D01*
X281222300Y-62861400D02*
X287692500Y-62861400D01*
X259679200Y-62861500D02*
X253282200Y-62861500D01*
X253282200Y-62861500D02*
X252669400Y-63474300D01*
X252669400Y-63474300D02*
X252669400Y-64552200D01*
X259679200Y-62861500D02*
X259679200Y-62861400D01*
X259679200Y-62861400D02*
X259695600Y-62861400D01*
X259695600Y-62861400D02*
X260038100Y-62518900D01*
X260038100Y-62518900D02*
X260038100Y-61286900D01*
X260038100Y-61286900D02*
X258441200Y-59690000D01*
X258441200Y-59690000D02*
X255460000Y-59690000D01*
X270605400Y-59690000D02*
X270192500Y-59690000D01*
X242252500Y-59690000D02*
X241426700Y-59690000D01*
X270605400Y-59690000D02*
X271018300Y-59690000D01*
X252412500Y-53340000D02*
X252412500Y-54419800D01*
X286358200Y-59690000D02*
X288020500Y-61352300D01*
X288020500Y-61352300D02*
X288020500Y-62533400D01*
X288020500Y-62533400D02*
X287692500Y-62861400D01*
X285781300Y-59690000D02*
X286358200Y-59690000D01*
X281018700Y-59690000D02*
X280387400Y-59058700D01*
X280387400Y-59058700D02*
X273198800Y-59058700D01*
X273198800Y-59058700D02*
X272750200Y-58610100D01*
X272750200Y-58610100D02*
X271478800Y-58610100D01*
X271478800Y-58610100D02*
X271018300Y-59070600D01*
X271018300Y-59070600D02*
X271018300Y-59690000D01*
X225298300Y-66040000D02*
X225298300Y-72792300D01*
X225298300Y-72792300D02*
X235944700Y-83438700D01*
X235944700Y-83438700D02*
X237490000Y-83438700D01*
X252669400Y-64552200D02*
X252412500Y-64809100D01*
X252412500Y-64809100D02*
X252412500Y-66040000D01*
X286358200Y-58407400D02*
X286358200Y-59690000D01*
X224472500Y-66040000D02*
X225298300Y-66040000D01*
X237490000Y-85090000D02*
X237490000Y-83438700D01*
X240030000Y-85090000D02*
X240030000Y-83438700D01*
X240030000Y-83438700D02*
X237490000Y-83438700D01*
X286358200Y-58407400D02*
X287400300Y-58407400D01*
X287400300Y-58407400D02*
X288271600Y-57536100D01*
X288271600Y-57536100D02*
X288271600Y-48228900D01*
X288271600Y-48228900D02*
X286131000Y-46088300D01*
X286131000Y-46088300D02*
X286131000Y-42982000D01*
X280389900Y-53340000D02*
X280389900Y-56955600D01*
X280389900Y-56955600D02*
X281215700Y-57781400D01*
X281215700Y-57781400D02*
X285732200Y-57781400D01*
X285732200Y-57781400D02*
X286358200Y-58407400D01*
X280389900Y-53340000D02*
X280352500Y-53340000D01*
X285495500Y-53340000D02*
X280389900Y-53340000D01*
X285813500Y-41211800D02*
X286131000Y-41529300D01*
X286131000Y-41529300D02*
X286131000Y-42982000D01*
X283400000Y-59690000D02*
X281018700Y-59690000D01*
X283400000Y-59690000D02*
X285781300Y-59690000D01*
X285813500Y-40132000D02*
X285813500Y-41211800D01*
G04 #@! TO.N,Net-(C4-Pad1)*
X216027000Y-63817500D02*
X217106800Y-63817500D01*
X219520000Y-63500000D02*
X217138700Y-63500000D01*
X217106800Y-63817500D02*
X217106800Y-63531900D01*
X217106800Y-63531900D02*
X217138700Y-63500000D01*
X219520000Y-63500000D02*
X219571700Y-63551700D01*
X219571700Y-63551700D02*
X219571700Y-71626600D01*
X219571700Y-71626600D02*
X218440000Y-72758300D01*
G04 #@! TO.N,Net-(C4-Pad2)*
X216027000Y-62325400D02*
X215788400Y-62325400D01*
X215788400Y-62325400D02*
X214924800Y-63189000D01*
X214924800Y-63189000D02*
X214924800Y-64399400D01*
X214924800Y-64399400D02*
X218440000Y-67914600D01*
X218440000Y-67914600D02*
X218440000Y-70751700D01*
X217138700Y-62230000D02*
X217043300Y-62325400D01*
X217043300Y-62325400D02*
X216027000Y-62325400D01*
X219520000Y-62230000D02*
X217138700Y-62230000D01*
X216027000Y-61912500D02*
X216027000Y-62325400D01*
G04 #@! TO.N,Net-(C5-Pad1)*
X230473100Y-57467500D02*
X230473100Y-58066000D01*
X230473100Y-58066000D02*
X231019500Y-58612400D01*
X230473100Y-57467500D02*
X229933200Y-57467500D01*
X231013000Y-57467500D02*
X230473100Y-57467500D01*
X227520000Y-57150000D02*
X229901300Y-57150000D01*
X229933200Y-57467500D02*
X229933200Y-57181900D01*
X229933200Y-57181900D02*
X229901300Y-57150000D01*
G04 #@! TO.N,Net-(C5-Pad2)*
X200660000Y-46621700D02*
X200660000Y-44653500D01*
X200660000Y-44653500D02*
X206036800Y-39276700D01*
X206036800Y-39276700D02*
X217231200Y-39276700D01*
X217231200Y-39276700D02*
X226488400Y-48533900D01*
X226488400Y-48533900D02*
X226488400Y-54276000D01*
X226488400Y-54276000D02*
X226488500Y-54276000D01*
X226488500Y-54276000D02*
X228092500Y-55880000D01*
X228092500Y-55880000D02*
X229901300Y-55880000D01*
X227520000Y-55880000D02*
X228092500Y-55880000D01*
X231013000Y-55562500D02*
X229933200Y-55562500D01*
X229933200Y-55562500D02*
X229933200Y-55848100D01*
X229933200Y-55848100D02*
X229901300Y-55880000D01*
G04 #@! TO.N,Net-(C6-Pad1)*
X243967000Y-63817500D02*
X245046800Y-63817500D01*
X247460000Y-63500000D02*
X245078700Y-63500000D01*
X245046800Y-63817500D02*
X245046800Y-63531900D01*
X245046800Y-63531900D02*
X245078700Y-63500000D01*
X247460000Y-63500000D02*
X247538200Y-63578200D01*
X247538200Y-63578200D02*
X247538200Y-71600100D01*
X247538200Y-71600100D02*
X246380000Y-72758300D01*
G04 #@! TO.N,Net-(C6-Pad2)*
X243967000Y-62230000D02*
X243855900Y-62230000D01*
X243855900Y-62230000D02*
X242887100Y-63198800D01*
X242887100Y-63198800D02*
X242887100Y-64433300D01*
X242887100Y-64433300D02*
X246380000Y-67926200D01*
X246380000Y-67926200D02*
X246380000Y-70751700D01*
X243967000Y-62118900D02*
X243967000Y-62230000D01*
X243967000Y-62230000D02*
X245078700Y-62230000D01*
X247460000Y-62230000D02*
X245078700Y-62230000D01*
X243967000Y-61912500D02*
X243967000Y-62118900D01*
G04 #@! TO.N,Net-(C7-Pad1)*
X258953000Y-57467500D02*
X257873200Y-57467500D01*
X255460000Y-57150000D02*
X257841300Y-57150000D01*
X257873200Y-57467500D02*
X257873200Y-57181900D01*
X257873200Y-57181900D02*
X257841300Y-57150000D01*
X255460000Y-57150000D02*
X252136500Y-57150000D01*
X252136500Y-57150000D02*
X250235100Y-59051400D01*
X250235100Y-59051400D02*
X245251800Y-59051400D01*
X245251800Y-59051400D02*
X244507400Y-58307000D01*
X244507400Y-58307000D02*
X236351700Y-58307000D01*
X236351700Y-58307000D02*
X228600000Y-50555300D01*
X228600000Y-50555300D02*
X228600000Y-48628300D01*
G04 #@! TO.N,Net-(C7-Pad2)*
X228600000Y-46621700D02*
X228600000Y-44685900D01*
X228600000Y-44685900D02*
X233987000Y-39298900D01*
X233987000Y-39298900D02*
X240948500Y-39298900D01*
X240948500Y-39298900D02*
X248468600Y-46819000D01*
X248468600Y-46819000D02*
X248468600Y-48519900D01*
X248468600Y-48519900D02*
X249668800Y-49720100D01*
X249668800Y-49720100D02*
X251174000Y-49720100D01*
X251174000Y-49720100D02*
X251586600Y-50132700D01*
X251586600Y-50132700D02*
X251586600Y-51720400D01*
X251586600Y-51720400D02*
X252126300Y-52260100D01*
X252126300Y-52260100D02*
X253025900Y-52260100D01*
X253025900Y-52260100D02*
X256055400Y-55289600D01*
X256055400Y-55289600D02*
X256055400Y-55880000D01*
X256055400Y-55880000D02*
X257841300Y-55880000D01*
X255460000Y-55880000D02*
X256055400Y-55880000D01*
X258953000Y-55562500D02*
X257873200Y-55562500D01*
X257873200Y-55562500D02*
X257841300Y-55594400D01*
X257841300Y-55594400D02*
X257841300Y-55880000D01*
G04 #@! TO.N,Net-(C8-Pad1)*
X271907000Y-63817500D02*
X272986800Y-63817500D01*
X275400000Y-63500000D02*
X273018700Y-63500000D01*
X272986800Y-63817500D02*
X272986800Y-63531900D01*
X272986800Y-63531900D02*
X273018700Y-63500000D01*
X275400000Y-63500000D02*
X275451700Y-63551700D01*
X275451700Y-63551700D02*
X275451700Y-71626600D01*
X275451700Y-71626600D02*
X274320000Y-72758300D01*
G04 #@! TO.N,Net-(C8-Pad2)*
X271907000Y-62230000D02*
X271795900Y-62230000D01*
X271795900Y-62230000D02*
X270827100Y-63198800D01*
X270827100Y-63198800D02*
X270827100Y-64433300D01*
X270827100Y-64433300D02*
X274320000Y-67926200D01*
X274320000Y-67926200D02*
X274320000Y-70751700D01*
X271907000Y-62118900D02*
X271907000Y-62230000D01*
X271907000Y-62230000D02*
X273018700Y-62230000D01*
X275400000Y-62230000D02*
X273018700Y-62230000D01*
X271907000Y-61912500D02*
X271907000Y-62118900D01*
G04 #@! TO.N,Net-(C9-Pad1)*
X283400000Y-57150000D02*
X285781300Y-57150000D01*
X287020000Y-57086500D02*
X285844800Y-57086500D01*
X285844800Y-57086500D02*
X285781300Y-57150000D01*
X283400000Y-57150000D02*
X281816500Y-57150000D01*
X281816500Y-57150000D02*
X281018600Y-56352100D01*
X281018600Y-56352100D02*
X281018600Y-55118200D01*
X281018600Y-55118200D02*
X281215800Y-54921000D01*
G04 #@! TO.N,Net-(C9-Pad2)*
X286448000Y-55181500D02*
X286448000Y-52607200D01*
X286448000Y-52607200D02*
X285499600Y-51658800D01*
X285499600Y-51658800D02*
X285499600Y-48422100D01*
X285499600Y-48422100D02*
X283703600Y-46626100D01*
X283703600Y-46626100D02*
X278603300Y-46626100D01*
X278603300Y-46626100D02*
X271259000Y-39281800D01*
X271259000Y-39281800D02*
X261941800Y-39281800D01*
X261941800Y-39281800D02*
X256540000Y-44683600D01*
X256540000Y-44683600D02*
X256540000Y-46621700D01*
X286448000Y-55181500D02*
X285940200Y-55181500D01*
X287020000Y-55181500D02*
X286448000Y-55181500D01*
X283400000Y-55880000D02*
X285781300Y-55880000D01*
X285940200Y-55181500D02*
X285940200Y-55721100D01*
X285940200Y-55721100D02*
X285781300Y-55880000D01*
G04 #@! TO.N,Net-(C13-Pad2)*
X287718500Y-40132000D02*
X287718500Y-41211800D01*
X287401000Y-42982000D02*
X287401000Y-41529300D01*
X287401000Y-41529300D02*
X287718500Y-41211800D01*
G04 #@! TO.N,Net-(R1-Pad1)*
X216027000Y-57467500D02*
X216027000Y-56641700D01*
X216027000Y-56641700D02*
X215407600Y-56641700D01*
X215407600Y-56641700D02*
X214940500Y-56174600D01*
X214940500Y-56174600D02*
X214940500Y-54137000D01*
X214940500Y-54137000D02*
X218440000Y-50637500D01*
X218440000Y-50637500D02*
X218440000Y-48628300D01*
X216566900Y-57467500D02*
X216027000Y-57467500D01*
X216566900Y-57467500D02*
X217106800Y-57467500D01*
X219520000Y-57150000D02*
X217138700Y-57150000D01*
X217106800Y-57467500D02*
X217106800Y-57181900D01*
X217106800Y-57181900D02*
X217138700Y-57150000D01*
G04 #@! TO.N,Net-(R1-Pad2)*
X216027000Y-55562500D02*
X217106800Y-55562500D01*
X219520000Y-55880000D02*
X217138700Y-55880000D01*
X217106800Y-55562500D02*
X217106800Y-55848100D01*
X217106800Y-55848100D02*
X217138700Y-55880000D01*
X250190000Y-83438700D02*
X248838100Y-82086800D01*
X248838100Y-82086800D02*
X236036200Y-82086800D01*
X219520000Y-55880000D02*
X221901300Y-55880000D01*
X250190000Y-85090000D02*
X250190000Y-83438700D01*
X221901300Y-55880000D02*
X221901300Y-56251500D01*
X221901300Y-56251500D02*
X222144600Y-56494800D01*
G04 #@! TO.N,Net-(R2-Pad2)*
X224472500Y-50800000D02*
X225298300Y-50800000D01*
X225298300Y-50800000D02*
X225298300Y-54313000D01*
X225298300Y-54313000D02*
X225138700Y-54472600D01*
X225138700Y-54472600D02*
X225138700Y-58420000D01*
X224472500Y-50800000D02*
X224472500Y-48260000D01*
X227520000Y-58420000D02*
X225138700Y-58420000D01*
G04 #@! TO.N,Net-(R3-Pad1)*
X222567500Y-53340000D02*
X222567500Y-54419800D01*
X221901300Y-58420000D02*
X222970400Y-57350900D01*
X222970400Y-57350900D02*
X222970400Y-54822700D01*
X222970400Y-54822700D02*
X222567500Y-54419800D01*
X219520000Y-58420000D02*
X221901300Y-58420000D01*
X222567500Y-50800000D02*
X222567500Y-53340000D01*
G04 #@! TO.N,Net-(R5-Pad1)*
X222567500Y-64960200D02*
X223426200Y-64101500D01*
X223426200Y-64101500D02*
X223426200Y-62219500D01*
X223426200Y-62219500D02*
X224685700Y-60960000D01*
X224685700Y-60960000D02*
X225138700Y-60960000D01*
X222567500Y-66040000D02*
X222567500Y-64960200D01*
X227520000Y-60960000D02*
X225138700Y-60960000D01*
X222567500Y-68580000D02*
X222567500Y-66040000D01*
G04 #@! TO.N,Net-(R6-Pad2)*
X224472500Y-69679300D02*
X224472500Y-68580000D01*
X224472500Y-71120000D02*
X224472500Y-69679300D01*
X224472500Y-69679300D02*
X221912200Y-69679300D01*
X221912200Y-69679300D02*
X221741600Y-69508700D01*
X221741600Y-69508700D02*
X221741600Y-65050300D01*
X221741600Y-65050300D02*
X222421200Y-64370700D01*
X222421200Y-64370700D02*
X222421200Y-61479900D01*
X222421200Y-61479900D02*
X221901300Y-60960000D01*
X219520000Y-60960000D02*
X221901300Y-60960000D01*
G04 #@! TO.N,Net-(R8-Pad1)*
X225138700Y-62230000D02*
X225034800Y-62333900D01*
X225034800Y-62333900D02*
X224483600Y-62333900D01*
X231013000Y-61912500D02*
X229933200Y-61912500D01*
X227520000Y-62230000D02*
X229901300Y-62230000D01*
X229933200Y-61912500D02*
X229933200Y-62198100D01*
X229933200Y-62198100D02*
X229901300Y-62230000D01*
X227520000Y-62230000D02*
X225138700Y-62230000D01*
G04 #@! TO.N,Net-(R8-Pad2)*
X252730000Y-83438700D02*
X250552300Y-81261000D01*
X250552300Y-81261000D02*
X234485800Y-81261000D01*
X234485800Y-81261000D02*
X227431500Y-74206700D01*
X227431500Y-74206700D02*
X227431500Y-64779200D01*
X227431500Y-64779200D02*
X228710700Y-63500000D01*
X252730000Y-85090000D02*
X252730000Y-83438700D01*
X228710700Y-63500000D02*
X229901300Y-63500000D01*
X227520000Y-63500000D02*
X228710700Y-63500000D01*
X231013000Y-63817500D02*
X229933200Y-63817500D01*
X229933200Y-63817500D02*
X229933200Y-63531900D01*
X229933200Y-63531900D02*
X229901300Y-63500000D01*
G04 #@! TO.N,Net-(R9-Pad1)*
X243967000Y-57467500D02*
X243967000Y-56641700D01*
X243967000Y-56641700D02*
X243347600Y-56641700D01*
X243347600Y-56641700D02*
X242887100Y-56181200D01*
X242887100Y-56181200D02*
X242887100Y-54946600D01*
X242887100Y-54946600D02*
X246380000Y-51453700D01*
X246380000Y-51453700D02*
X246380000Y-48628300D01*
X244506900Y-57467500D02*
X243967000Y-57467500D01*
X244506900Y-57467500D02*
X245046800Y-57467500D01*
X247460000Y-57150000D02*
X245078700Y-57150000D01*
X245046800Y-57467500D02*
X245046800Y-57181900D01*
X245046800Y-57181900D02*
X245078700Y-57150000D01*
G04 #@! TO.N,Net-(R9-Pad2)*
X243967000Y-55562500D02*
X245046800Y-55562500D01*
X247460000Y-55880000D02*
X245078700Y-55880000D01*
X245046800Y-55562500D02*
X245046800Y-55848100D01*
X245046800Y-55848100D02*
X245078700Y-55880000D01*
X249841300Y-55880000D02*
X250402300Y-55880000D01*
X247460000Y-55880000D02*
X249841300Y-55880000D01*
G04 #@! TO.N,Net-(R10-Pad2)*
X252412500Y-50800000D02*
X255929000Y-50800000D01*
X255929000Y-50800000D02*
X260046800Y-54917800D01*
X260046800Y-54917800D02*
X260046800Y-58060400D01*
X260046800Y-58060400D02*
X259687200Y-58420000D01*
X259687200Y-58420000D02*
X255460000Y-58420000D01*
X252412500Y-48260000D02*
X252412500Y-50800000D01*
G04 #@! TO.N,Net-(R11-Pad1)*
X247460000Y-58420000D02*
X249841300Y-58420000D01*
X250507500Y-53340000D02*
X250507500Y-54419800D01*
X250507500Y-54419800D02*
X251264300Y-55176600D01*
X251264300Y-55176600D02*
X251264300Y-56997000D01*
X251264300Y-56997000D02*
X249841300Y-58420000D01*
X250507500Y-50800000D02*
X250507500Y-53340000D01*
G04 #@! TO.N,Net-(R13-Pad1)*
X250507500Y-66040000D02*
X250507500Y-64960200D01*
X250507500Y-64960200D02*
X250858000Y-64609700D01*
X250858000Y-64609700D02*
X250858000Y-63180700D01*
X250858000Y-63180700D02*
X253078700Y-60960000D01*
X250507500Y-68580000D02*
X250507500Y-66040000D01*
X255460000Y-60960000D02*
X253078700Y-60960000D01*
G04 #@! TO.N,Net-(R14-Pad2)*
X247460000Y-60960000D02*
X249841300Y-60960000D01*
X252412500Y-71120000D02*
X251586700Y-71120000D01*
X251586700Y-71120000D02*
X251586700Y-71739300D01*
X251586700Y-71739300D02*
X251126100Y-72199900D01*
X251126100Y-72199900D02*
X249848000Y-72199900D01*
X249848000Y-72199900D02*
X249169900Y-71521800D01*
X249169900Y-71521800D02*
X249169900Y-64619600D01*
X249169900Y-64619600D02*
X249841300Y-63948200D01*
X249841300Y-63948200D02*
X249841300Y-60960000D01*
X252412500Y-68580000D02*
X252412500Y-71120000D01*
G04 #@! TO.N,Net-(R16-Pad1)*
X258953000Y-61912500D02*
X257873200Y-61912500D01*
X255460000Y-62230000D02*
X257841300Y-62230000D01*
X257873200Y-61912500D02*
X257873200Y-62198100D01*
X257873200Y-62198100D02*
X257841300Y-62230000D01*
X255460000Y-62230000D02*
X253078700Y-62230000D01*
X253078700Y-62230000D02*
X251586600Y-63722100D01*
X251586600Y-63722100D02*
X251586600Y-66896300D01*
X251586600Y-66896300D02*
X251810200Y-67119900D01*
X251810200Y-67119900D02*
X252702900Y-67119900D01*
X252702900Y-67119900D02*
X253238400Y-67655400D01*
X253238400Y-67655400D02*
X253238400Y-71982600D01*
X253238400Y-71982600D02*
X245147100Y-80073900D01*
X245147100Y-80073900D02*
X234017500Y-80073900D01*
X234017500Y-80073900D02*
X228600000Y-74656400D01*
X228600000Y-74656400D02*
X228600000Y-72758300D01*
G04 #@! TO.N,Net-(R16-Pad2)*
X255460000Y-63500000D02*
X254884200Y-64075800D01*
X254884200Y-64075800D02*
X254884200Y-80512900D01*
X254884200Y-80512900D02*
X257810000Y-83438700D01*
X258953000Y-63817500D02*
X257873200Y-63817500D01*
X255460000Y-63500000D02*
X257841300Y-63500000D01*
X257873200Y-63817500D02*
X257873200Y-63531900D01*
X257873200Y-63531900D02*
X257841300Y-63500000D01*
X257810000Y-85090000D02*
X257810000Y-83438700D01*
G04 #@! TO.N,Net-(R17-Pad1)*
X275496700Y-47134500D02*
X279056500Y-47134500D01*
X279056500Y-47134500D02*
X279273400Y-47351400D01*
X279273400Y-47351400D02*
X279273400Y-49184600D01*
X279273400Y-49184600D02*
X278737900Y-49720100D01*
X278737900Y-49720100D02*
X277845200Y-49720100D01*
X277845200Y-49720100D02*
X277621600Y-49943700D01*
X277621600Y-49943700D02*
X277621600Y-54736600D01*
X277621600Y-54736600D02*
X277781300Y-54896300D01*
X277781300Y-54896300D02*
X277781300Y-57150000D01*
X275496700Y-47134500D02*
X275496700Y-47451600D01*
X275496700Y-47451600D02*
X274320000Y-48628300D01*
X274320000Y-46621700D02*
X274983900Y-46621700D01*
X274983900Y-46621700D02*
X275496700Y-47134500D01*
X271907000Y-57467500D02*
X272986800Y-57467500D01*
X275400000Y-57150000D02*
X273018700Y-57150000D01*
X272986800Y-57467500D02*
X272986800Y-57181900D01*
X272986800Y-57181900D02*
X273018700Y-57150000D01*
X275400000Y-57150000D02*
X277781300Y-57150000D01*
G04 #@! TO.N,Net-(R17-Pad2)*
X270827200Y-55562500D02*
X267901700Y-58488000D01*
X267901700Y-58488000D02*
X267858100Y-58488000D01*
X271907000Y-55562500D02*
X270827200Y-55562500D01*
X272446900Y-55562500D02*
X271907000Y-55562500D01*
X272446900Y-55562500D02*
X272986800Y-55562500D01*
X273145800Y-55880000D02*
X272986800Y-55721000D01*
X272986800Y-55721000D02*
X272986800Y-55562500D01*
X275400000Y-55880000D02*
X273145800Y-55880000D01*
G04 #@! TO.N,Net-(R18-Pad2)*
X280352500Y-50800000D02*
X279526700Y-50800000D01*
X283400000Y-58420000D02*
X281018700Y-58420000D01*
X281018700Y-58420000D02*
X279526700Y-56928000D01*
X279526700Y-56928000D02*
X279526700Y-50800000D01*
X280352500Y-48260000D02*
X280352500Y-50800000D01*
G04 #@! TO.N,Net-(R19-Pad1)*
X275400000Y-58420000D02*
X277781300Y-58420000D01*
X278447500Y-53340000D02*
X278447500Y-57753800D01*
X278447500Y-57753800D02*
X277781300Y-58420000D01*
X278447500Y-50800000D02*
X278447500Y-53340000D01*
G04 #@! TO.N,Net-(R21-Pad1)*
X278447500Y-66040000D02*
X278447500Y-64960200D01*
X278447500Y-64960200D02*
X278908100Y-64499600D01*
X278908100Y-64499600D02*
X278908100Y-63070600D01*
X278908100Y-63070600D02*
X281018700Y-60960000D01*
X278447500Y-68580000D02*
X278447500Y-66040000D01*
X283400000Y-60960000D02*
X281018700Y-60960000D01*
G04 #@! TO.N,Net-(R22-Pad2)*
X280352500Y-69679000D02*
X277791900Y-69679000D01*
X277791900Y-69679000D02*
X277620900Y-69508000D01*
X277620900Y-69508000D02*
X277620900Y-64856100D01*
X277620900Y-64856100D02*
X278289600Y-64187400D01*
X278289600Y-64187400D02*
X278289600Y-61468300D01*
X278289600Y-61468300D02*
X277781300Y-60960000D01*
X280352500Y-69679000D02*
X280352500Y-68580000D01*
X280352500Y-71120000D02*
X280352500Y-69679000D01*
X275400000Y-60960000D02*
X277781300Y-60960000D01*
G04 #@! TO.N,Net-(R24-Pad1)*
X281018700Y-62230000D02*
X279526600Y-63722100D01*
X279526600Y-63722100D02*
X279526600Y-66945200D01*
X279526600Y-66945200D02*
X280060900Y-67479500D01*
X280060900Y-67479500D02*
X280984100Y-67479500D01*
X280984100Y-67479500D02*
X281191800Y-67687200D01*
X281191800Y-67687200D02*
X281191800Y-71977900D01*
X281191800Y-71977900D02*
X273070800Y-80098900D01*
X273070800Y-80098900D02*
X261971400Y-80098900D01*
X261971400Y-80098900D02*
X256540000Y-74667500D01*
X256540000Y-74667500D02*
X256540000Y-72758300D01*
X286893000Y-61912500D02*
X285813200Y-61912500D01*
X283400000Y-62230000D02*
X285781300Y-62230000D01*
X285813200Y-61912500D02*
X285813200Y-62198100D01*
X285813200Y-62198100D02*
X285781300Y-62230000D01*
X283400000Y-62230000D02*
X281018700Y-62230000D01*
G04 #@! TO.N,Net-(R24-Pad2)*
X262890000Y-85090000D02*
X262890000Y-83438700D01*
X284590700Y-63500000D02*
X284590700Y-70017000D01*
X284590700Y-70017000D02*
X271169000Y-83438700D01*
X271169000Y-83438700D02*
X262890000Y-83438700D01*
X284590700Y-63500000D02*
X285781300Y-63500000D01*
X283400000Y-63500000D02*
X284590700Y-63500000D01*
X286893000Y-63817500D02*
X285813200Y-63817500D01*
X285813200Y-63817500D02*
X285813200Y-63531900D01*
X285813200Y-63531900D02*
X285781300Y-63500000D01*
G04 #@! TO.N,Net-(R25-Pad2)*
X284226500Y-40132000D02*
X284226500Y-41211800D01*
X284861000Y-42982000D02*
X284861000Y-41846300D01*
X284861000Y-41846300D02*
X284226500Y-41211800D01*
X284226500Y-40132000D02*
X284226500Y-39052200D01*
X283210000Y-36830000D02*
X283210000Y-38481300D01*
X284226500Y-39052200D02*
X283780900Y-39052200D01*
X283780900Y-39052200D02*
X283210000Y-38481300D01*
G04 #@! TO.N,Net-(R26-Pad1)*
X278891500Y-40132000D02*
X279717300Y-40132000D01*
X279717300Y-40132000D02*
X279717300Y-39434000D01*
X279717300Y-39434000D02*
X280670000Y-38481300D01*
X280670000Y-36830000D02*
X280670000Y-38481300D01*
X283591000Y-42982000D02*
X283591000Y-41200700D01*
X283591000Y-41200700D02*
X283400600Y-41010300D01*
X283400600Y-41010300D02*
X283400600Y-39504900D01*
X283400600Y-39504900D02*
X282377000Y-38481300D01*
X282377000Y-38481300D02*
X280670000Y-38481300D01*
G04 #@! TD*
M02*
